STARTFONT 2.1
COMMENT
COMMENT Converted from OpenType font "BeVietnam-Bold.ttf" by "otf2bdf 3.0".
COMMENT
FONT -FreeType-Be Vietnam-Bold-R-Normal--77-560-100-100-P-382-ISO10646-1
SIZE 56 100 100
FONTBOUNDINGBOX 122 109 -36 -20
STARTPROPERTIES 19
FOUNDRY "FreeType"
FAMILY_NAME "Be Vietnam"
WEIGHT_NAME "Bold"
SLANT "R"
SETWIDTH_NAME "Normal"
ADD_STYLE_NAME ""
PIXEL_SIZE 77
POINT_SIZE 560
RESOLUTION_X 100
RESOLUTION_Y 100
SPACING "P"
AVERAGE_WIDTH 382
CHARSET_REGISTRY "ISO10646"
CHARSET_ENCODING "1"
FONT_ASCENT 93
FONT_DESCENT 20
COPYRIGHT "Copyright 2019 The Bevietnam Project Authors (https://github.com/bettergui/beVietnam)"
_OTF_FONTFILE "BeVietnam-Bold.ttf"
_OTF_PSNAME "BeVietnam-Bold"
ENDPROPERTIES
CHARS 445
STARTCHAR 000D
ENCODING 13
SWIDTH 591 0
DWIDTH 46 0
BBX 0 0 0 0
BITMAP
ENDCHAR
STARTCHAR 0020
ENCODING 32
SWIDTH 218 0
DWIDTH 17 0
BBX 0 0 0 0
BITMAP
ENDCHAR
STARTCHAR 0021
ENCODING 33
SWIDTH 270 0
DWIDTH 21 0
BBX 12 58 5 -1
BITMAP
FFE0
FFE0
FFE0
FFE0
FFE0
FFE0
FFE0
FFE0
FFE0
7FE0
7FE0
7FE0
7FE0
7FE0
7FE0
7FE0
7FE0
7FE0
7FE0
7FE0
7FE0
7FE0
7FC0
7FC0
7FC0
7FC0
7FC0
7FC0
7FC0
7FC0
7FC0
7FC0
3FC0
3FC0
3FC0
3FC0
3FC0
3FC0
3FC0
0000
0000
0000
0000
0000
0000
0000
0F00
3FC0
7FE0
7FE0
FFE0
FFF0
FFF0
FFE0
7FE0
7FC0
3FC0
0E00
ENDCHAR
STARTCHAR 0022
ENCODING 34
SWIDTH 527 0
DWIDTH 41 0
BBX 32 23 4 38
BITMAP
00C0001C
03C0007C
07C000FC
0FC001F8
1F0003E0
3E0007C0
3C000780
7C000F80
78000F80
78000F00
F8000F80
FC001F80
FF001FF0
FFF01FFE
FFF01FFF
FFF81FFF
FFF81FFF
FFF80FFF
7FF80FFF
7FF80FFF
7FF007FF
3FF007FE
0FE001F8
ENDCHAR
STARTCHAR 0023
ENCODING 35
SWIDTH 874 0
DWIDTH 68 0
BBX 57 54 6 0
BITMAP
00000FF800FF8000
00000FF800FF8000
00000FF800FF8000
00001FF000FF8000
00001FF001FF0000
00001FF001FF0000
00001FF001FF0000
00001FF001FF0000
00003FE001FF0000
00003FE003FE0000
00003FE003FE0000
00003FE003FE0000
00007FE003FE0000
00007FC003FC0000
03FFFFFFFFFFFF80
03FFFFFFFFFFFF80
03FFFFFFFFFFFF80
07FFFFFFFFFFFF80
07FFFFFFFFFFFF00
07FFFFFFFFFFFF00
07FFFFFFFFFFFF00
0000FF800FF80000
0001FF000FF80000
0001FF001FF00000
0001FF001FF00000
0001FF001FF00000
0003FE001FF00000
0003FE003FE00000
0003FE003FE00000
0003FE003FE00000
0003FE003FE00000
0007FC003FE00000
0007FC007FC00000
0007FC007FC00000
7FFFFFFFFFFFF800
7FFFFFFFFFFFF800
7FFFFFFFFFFFF000
7FFFFFFFFFFFF000
7FFFFFFFFFFFF000
FFFFFFFFFFFFF000
FFFFFFFFFFFFE000
001FF001FF000000
001FF001FF000000
001FF001FF000000
001FF001FF000000
003FE001FF000000
003FE003FE000000
003FE003FE000000
003FE003FE000000
003FE003FE000000
007FC007FC000000
007FC007FC000000
007FC007FC000000
007FC007FC000000
ENDCHAR
STARTCHAR 0024
ENCODING 36
SWIDTH 578 0
DWIDTH 45 0
BBX 41 67 3 -7
BITMAP
00001C000000
00001C000000
00001C000000
00001C000000
00001C000000
00001C000000
0001FFC00000
001FFFFC0000
007FFFFF0000
01FFFFFF8000
03FFFFFFE000
07FFFFFFF000
0FFFFFFFF000
1FFFFFFFF800
1FFFFFFFFC00
3FFF1C7FFC00
3FFC1C3FFE00
3FF81C1FFE00
3FF81C0FFE00
7FF01C07FF00
7FF01C07FF00
7FF01C07FF00
7FF01C07FF00
7FF01C000000
3FF81C000000
3FFC1C000000
3FFF1C000000
3FFFDC000000
1FFFFC000000
0FFFFFE00000
07FFFFFC0000
03FFFFFF0000
01FFFFFFC000
00FFFFFFE000
003FFFFFF800
000FFFFFFC00
0001FFFFFE00
00001FFFFE00
00001CFFFF00
00001C1FFF00
00001C0FFF80
00001C07FF80
FFE01C03FF80
FFE01C03FF80
FFE01C01FF80
FFF01C03FF80
FFF01C03FF80
7FF81C03FF80
7FFC1C07FF80
3FFE1C0FFF00
3FFF9C3FFF00
1FFFFFFFFE00
1FFFFFFFFE00
0FFFFFFFFC00
07FFFFFFF800
03FFFFFFF000
01FFFFFFE000
007FFFFFC000
003FFFFF0000
0007FFF80000
00007F800000
00001C000000
00001C000000
00001C000000
00001C000000
00001C000000
00001C000000
ENDCHAR
STARTCHAR 0025
ENCODING 37
SWIDTH 797 0
DWIDTH 62 0
BBX 56 56 3 -1
BITMAP
03FE0000000000
0FFF800007FC00
1FFFC00007FC00
3FFFE0000FF800
3FFFE0000FF800
7FFFF0001FF000
7F87F0001FE000
FF07F0003FE000
FF03F8007FC000
FE03F8007FC000
FE03F800FF8000
FE03F800FF8000
FE03F801FF0000
FF03F801FF0000
7F07F003FE0000
7F87F003FE0000
7FFFF007FC0000
3FFFE007FC0000
3FFFE00FF80000
1FFFC00FF80000
0FFF801FF00000
03FE001FF00000
0000003FE00000
0000003FE00000
0000007FC00000
0000007FC00000
000000FF800000
000000FF800000
000001FF000000
000001FF000000
000003FE000000
000003FE000000
000007FC000000
000007FC001F00
00000FF800FFE0
00000FF801FFF8
00001FF003FFF8
00001FF007FFFC
00003FE007FFFE
00003FC00FF9FE
00007FC00FF0FE
0000FF801FE07F
0000FF801FE07F
0001FF001FE07F
0001FF001FE07F
0003FE001FE07F
0003FE001FE07F
0007FC001FE07F
0007FC000FF0FE
000FF8000FF9FE
000FF80007FFFE
001FF00007FFFC
001FF00003FFF8
003FE00001FFF8
003FE00000FFE0
00000000001F00
ENDCHAR
STARTCHAR 0026
ENCODING 38
SWIDTH 655 0
DWIDTH 51 0
BBX 49 56 3 -1
BITMAP
0000FFF8000000
0003FFFF000000
000FFFFF800000
001FFFFFE00000
007FFFFFF00000
007FFFFFF80000
00FFFFFFF80000
01FFFFFFFC0000
01FFFFFFFE0000
01FFE03FFE0000
03FFC01FFE0000
03FF800FFE0000
03FF800FFF0000
03FF800FFF0000
03FF8007FF0000
03FF8007FF0000
03FF8000000000
01FF8000000000
01FFC000000000
01FFE000000000
00FFE000000000
00FFF000000000
007FF800000000
003FFC00000000
003FFE007FF000
001FFF007FE000
000FFF00FFE000
007FFF80FFC000
01FFFFC1FF8000
03FFFFE1FF8000
07FFFFF3FF0000
0FFFFFFBFF0000
1FFF7FFFFE0000
3FFC3FFFFC0000
7FF81FFFFC0000
7FF00FFFF80000
7FE007FFF80000
FFE003FFF00000
FFC001FFE00000
FFC000FFF00000
FFC000FFF80000
FFC000FFFC0000
FFE000FFFC0000
FFE001FFFE0000
FFF003FFFF0000
FFF807FFFF8000
7FFFFFFFFFC000
7FFFFFFDFFE000
3FFFFFF9FFF000
3FFFFFF0FFF800
1FFFFFE07FF800
0FFFFFC03FFC00
07FFFF801FFE00
01FFFF000FFF00
007FFC0007FF80
00038000000000
ENDCHAR
STARTCHAR 0027
ENCODING 39
SWIDTH 295 0
DWIDTH 23 0
BBX 13 23 6 41
BITMAP
3FC0
7FE0
FFF0
FFF0
FFF0
FFF8
FFF8
FFF8
7FF8
3FF8
03F8
01F8
00F0
00F0
01F0
01F0
01E0
03E0
0FC0
3F80
3F00
3C00
2000
ENDCHAR
STARTCHAR 0028
ENCODING 40
SWIDTH 488 0
DWIDTH 38 0
BBX 23 80 8 -17
BITMAP
000008
00003C
00007E
0001FE
0003FC
0007F8
000FF0
001FE0
001FE0
003FC0
007FC0
00FF80
00FF80
01FF00
01FF00
03FE00
03FE00
07FC00
07FC00
0FFC00
0FF800
1FF800
1FF800
1FF800
3FF000
3FF000
3FF000
3FF000
7FF000
7FE000
7FE000
7FE000
7FE000
7FE000
FFE000
FFE000
FFE000
FFC000
FFC000
FFC000
FFC000
FFC000
FFC000
FFE000
FFE000
FFE000
7FE000
7FE000
7FE000
7FE000
7FE000
7FF000
3FF000
3FF000
3FF000
3FF000
1FF800
1FF800
1FF800
0FF800
0FFC00
07FC00
07FC00
03FE00
03FE00
01FF00
01FF00
00FF00
00FF80
007F80
003FC0
001FE0
001FE0
000FF0
0007F8
0003F8
0001FC
00007E
00003C
000008
ENDCHAR
STARTCHAR 0029
ENCODING 41
SWIDTH 540 0
DWIDTH 42 0
BBX 23 80 12 -17
BITMAP
200000
780000
FC0000
FE0000
7F8000
3FC000
1FE000
0FE000
0FF000
07F800
07FC00
03FC00
03FE00
01FF00
01FF00
00FF80
00FF80
00FFC0
007FC0
007FE0
007FE0
003FE0
003FF0
003FF0
003FF0
001FF8
001FF8
001FF8
001FF8
001FFC
000FFC
000FFC
000FFC
000FFC
000FFC
000FFC
000FFC
000FFE
000FFE
000FFE
000FFE
000FFE
000FFE
000FFE
000FFC
000FFC
000FFC
000FFC
000FFC
000FFC
001FFC
001FF8
001FF8
001FF8
001FF8
003FF0
003FF0
003FF0
003FE0
007FE0
007FE0
007FC0
00FFC0
00FF80
00FF80
01FF00
01FF00
03FE00
03FC00
07FC00
07F800
0FF000
0FE000
1FE000
3FC000
7F8000
FE0000
FC0000
780000
200000
ENDCHAR
STARTCHAR 002A
ENCODING 42
SWIDTH 514 0
DWIDTH 40 0
BBX 27 28 7 31
BITMAP
003F0000
003F0000
003F0000
003F0000
203F0000
303F0380
7C3F0780
FE3F1FC0
FFBF3FC0
FFFFFFC0
3FFFFF00
0FFFFC00
07FFF800
01FFE000
01FFF000
07FFF800
1FFFFE00
7FFFFF80
FFFFFFE0
FF3F3FC0
7E3F0F80
783F0780
203F0100
003F0000
003F0000
003F0000
003F0000
003F0000
ENDCHAR
STARTCHAR 002B
ENCODING 43
SWIDTH 578 0
DWIDTH 45 0
BBX 33 33 6 8
BITMAP
000FF80000
000FF80000
000FF80000
000FF80000
000FF80000
000FF80000
000FF80000
000FF80000
000FF80000
000FF80000
000FF80000
000FF80000
FFFFFFFF80
FFFFFFFF80
FFFFFFFF80
FFFFFFFF80
FFFFFFFF80
FFFFFFFF80
FFFFFFFF80
FFFFFFFF80
FFFFFFFF80
000FF80000
000FF80000
000FF80000
000FF80000
000FF80000
000FF80000
000FF80000
000FF80000
000FF80000
000FF80000
000FF80000
000FF80000
ENDCHAR
STARTCHAR 002C
ENCODING 44
SWIDTH 308 0
DWIDTH 24 0
BBX 14 24 5 -14
BITMAP
1FE0
3FF0
7FF8
7FF8
7FFC
FFFC
FFFC
7FFC
7FFC
3FFC
1FFC
00FC
007C
007C
007C
0078
00F8
00F8
01F0
03E0
0FE0
1F80
1F00
1C00
ENDCHAR
STARTCHAR 002D
ENCODING 45
SWIDTH 591 0
DWIDTH 46 0
BBX 28 9 9 20
BITMAP
FFFFFFF0
FFFFFFF0
FFFFFFF0
FFFFFFF0
FFFFFFF0
FFFFFFF0
FFFFFFF0
FFFFFFF0
FFFFFFF0
ENDCHAR
STARTCHAR 002E
ENCODING 46
SWIDTH 308 0
DWIDTH 24 0
BBX 13 13 6 -1
BITMAP
0300
1FC0
3FE0
7FF0
7FF0
FFF8
FFF8
FFF8
7FF0
7FF0
3FE0
1FC0
0200
ENDCHAR
STARTCHAR 002F
ENCODING 47
SWIDTH 527 0
DWIDTH 41 0
BBX 36 76 3 -15
BITMAP
0000003FF0
0000003FF0
0000007FF0
0000007FE0
0000007FE0
000000FFE0
000000FFC0
000000FFC0
000001FF80
000001FF80
000001FF80
000003FF00
000003FF00
000003FF00
000007FE00
000007FE00
000007FE00
00000FFC00
00000FFC00
00001FFC00
00001FF800
00001FF800
00003FF800
00003FF000
00003FF000
00007FE000
00007FE000
00007FE000
0000FFC000
0000FFC000
0000FFC000
0001FF8000
0001FF8000
0003FF8000
0003FF0000
0003FF0000
0007FF0000
0007FE0000
0007FE0000
000FFC0000
000FFC0000
000FFC0000
001FF80000
001FF80000
001FF80000
003FF00000
003FF00000
003FF00000
007FE00000
007FE00000
00FFE00000
00FFC00000
00FFC00000
01FFC00000
01FF800000
01FF800000
03FF000000
03FF000000
03FF000000
07FE000000
07FE000000
07FE000000
0FFC000000
0FFC000000
1FFC000000
1FF8000000
1FF8000000
3FF8000000
3FF0000000
3FF0000000
7FE0000000
7FE0000000
7FE0000000
FFC0000000
FFC0000000
FFC0000000
ENDCHAR
STARTCHAR 0030
ENCODING 48
SWIDTH 617 0
DWIDTH 48 0
BBX 42 56 3 0
BITMAP
0003FFF00000
001FFFFE0000
007FFFFF8000
00FFFFFFC000
01FFFFFFE000
03FFFFFFF000
07FFFFFFF800
0FFFFFFFFC00
0FFFFFFFFC00
1FFFC0FFFE00
1FFF003FFE00
3FFE001FFF00
3FFC000FFF00
3FFC000FFF00
7FF80007FF80
7FF80007FF80
7FF80007FF80
7FF80007FF80
FFF80003FFC0
FFF00003FFC0
FFF00003FFC0
FFF00003FFC0
FFF00003FFC0
FFF00003FFC0
FFF00003FFC0
FFF00003FFC0
FFF00003FFC0
FFF00003FFC0
FFF00003FFC0
FFF00003FFC0
FFF00003FFC0
FFF00003FFC0
FFF00003FFC0
FFF00003FFC0
FFF00003FFC0
FFF00003FFC0
FFF00003FFC0
7FF80007FFC0
7FF80007FF80
7FF80007FF80
7FF80007FF80
7FFC000FFF80
3FFC000FFF00
3FFE001FFF00
1FFE001FFF00
1FFF807FFE00
0FFFE1FFFE00
0FFFFFFFFC00
07FFFFFFF800
03FFFFFFF800
03FFFFFFF000
01FFFFFFE000
007FFFFF8000
003FFFFF0000
000FFFFC0000
0001FFE00000
ENDCHAR
STARTCHAR 0031
ENCODING 49
SWIDTH 514 0
DWIDTH 40 0
BBX 32 54 6 0
BITMAP
003FFC00
007FFC00
00FFFC00
01FFFC00
03FFFC00
07FFFC00
0FFFFC00
1FFFFC00
7FFFFC00
FFFFFC00
FFFFFC00
FFFFFC00
FFEFFC00
FFCFFC00
FF8FFC00
FF0FFC00
FE0FFC00
FC0FFC00
F80FFC00
E00FFC00
C00FFC00
800FFC00
000FFC00
000FFC00
000FFC00
000FFC00
000FFC00
000FFC00
000FFC00
000FFC00
000FFC00
000FFC00
000FFC00
000FFC00
000FFC00
000FFC00
000FFC00
000FFC00
000FFC00
000FFC00
000FFC00
000FFC00
000FFC00
000FFC00
000FFC00
FFFFFFFF
FFFFFFFF
FFFFFFFF
FFFFFFFF
FFFFFFFF
FFFFFFFF
FFFFFFFF
FFFFFFFF
FFFFFFFF
ENDCHAR
STARTCHAR 0032
ENCODING 50
SWIDTH 591 0
DWIDTH 46 0
BBX 38 56 4 0
BITMAP
00007C0000
000FFFE000
003FFFF800
00FFFFFE00
01FFFFFF00
03FFFFFF80
07FFFFFFC0
0FFFFFFFE0
1FFFFFFFE0
1FFFFFFFF0
3FFE01FFF0
3FF8007FF8
7FF8003FF8
7FF0003FF8
7FF0001FF8
7FE0001FFC
7FE0001FFC
FFE0001FFC
FFE0001FFC
FFE0001FF8
0000001FF8
0000001FF8
0000003FF8
0000003FF8
0000007FF0
000000FFF0
000000FFE0
000001FFC0
000003FFC0
000007FF80
00000FFF00
00001FFE00
00007FFC00
0000FFF800
0001FFF000
0003FFE000
0007FFC000
001FFF8000
003FFF0000
007FFE0000
00FFF80000
01FFF00000
03FFE00000
0FFFC00000
1FFF800000
3FFF000000
7FFE000000
7FFFFFFFFC
7FFFFFFFFC
7FFFFFFFFC
7FFFFFFFFC
7FFFFFFFFC
7FFFFFFFFC
7FFFFFFFFC
7FFFFFFFFC
7FFFFFFFFC
ENDCHAR
STARTCHAR 0033
ENCODING 51
SWIDTH 591 0
DWIDTH 46 0
BBX 40 57 3 -1
BITMAP
0000FF8000
000FFFF800
003FFFFE00
00FFFFFF80
01FFFFFFC0
03FFFFFFE0
07FFFFFFF0
0FFFFFFFF8
0FFFFFFFF8
1FFF81FFFC
1FFE007FFC
3FFC001FFC
3FF8001FFE
7FF0000FFE
7FF0000FFE
7FF0000FFE
0000000FFE
0000000FFE
0000000FFE
0000000FFE
0000001FFC
0000003FFC
0000007FF8
0001FFFFF0
0001FFFFF0
0001FFFFE0
0001FFFF80
0001FFFE00
0001FFFF00
0001FFFFC0
0001FFFFF0
0001FFFFF8
0000007FF8
0000001FFC
0000000FFE
0000000FFE
00000007FE
00000007FE
00000007FF
00000007FF
FFE00007FF
FFE00007FF
FFF00007FF
7FF0000FFE
7FF8001FFE
7FFC003FFE
3FFF00FFFE
3FFFFFFFFC
1FFFFFFFFC
0FFFFFFFF8
0FFFFFFFF0
07FFFFFFE0
03FFFFFFC0
00FFFFFF80
007FFFFE00
000FFFF800
00007F0000
ENDCHAR
STARTCHAR 0034
ENCODING 52
SWIDTH 604 0
DWIDTH 47 0
BBX 41 54 3 0
BITMAP
00000FFFC000
00000FFFC000
00001FFFC000
00003FFFC000
00003FFFC000
00007FFFC000
0000FFFFC000
0000FFFFC000
0001FFFFC000
0001FFFFC000
0003FFFFC000
0007FFFFC000
0007FFFFC000
000FFEFFC000
001FFCFFC000
001FFCFFC000
003FF8FFC000
007FF0FFC000
007FF0FFC000
00FFE0FFC000
00FFE0FFC000
01FFC0FFC000
03FF80FFC000
03FF80FFC000
07FF00FFC000
0FFE00FFC000
0FFE00FFC000
1FFC00FFC000
1FF800FFC000
3FF800FFC000
7FF000FFC000
7FE000FFC000
FFE000FFC000
FFFFFFFFFF80
FFFFFFFFFF80
FFFFFFFFFF80
FFFFFFFFFF80
FFFFFFFFFF80
FFFFFFFFFF80
FFFFFFFFFF80
FFFFFFFFFF80
000000FFC000
000000FFC000
000000FFC000
000000FFC000
000000FFC000
000000FFC000
000000FFC000
000000FFC000
000000FFC000
000000FFC000
000000FFC000
000000FFC000
000000FFC000
ENDCHAR
STARTCHAR 0035
ENCODING 53
SWIDTH 591 0
DWIDTH 46 0
BBX 39 55 4 -1
BITMAP
3FFFFFFFF0
3FFFFFFFF0
3FFFFFFFF0
3FFFFFFFF0
3FFFFFFFF0
3FFFFFFFF0
3FFFFFFFF0
3FFFFFFFF0
3FFFFFFFF0
3FE0000000
3FE0000000
7FE0000000
7FE0000000
7FE0000000
7FE0000000
7FE0000000
7FE0000000
7FC0000000
7FC0FFF000
7FC3FFFE00
7FC7FFFF00
7FCFFFFFC0
7FDFFFFFE0
7FFFFFFFF0
7FFFFFFFF0
7FFF83FFF8
7FFE00FFF8
7FF8003FFC
7FF0003FFC
7FF0001FFC
0060000FFE
0000000FFE
0000000FFE
0000000FFE
0000000FFE
0000000FFE
0000000FFE
0000000FFE
FFE0000FFE
FFE0000FFE
FFF0001FFC
7FF0001FFC
7FF8003FFC
7FFC007FF8
3FFF01FFF8
3FFFFFFFF0
1FFFFFFFF0
0FFFFFFFE0
07FFFFFFC0
03FFFFFF80
01FFFFFF00
00FFFFFE00
003FFFF800
000FFFE000
0000140000
ENDCHAR
STARTCHAR 0036
ENCODING 54
SWIDTH 578 0
DWIDTH 45 0
BBX 40 55 3 -1
BITMAP
00007FE000
0000FFE000
0001FFC000
0001FF8000
0003FF8000
0007FF0000
0007FE0000
000FFE0000
000FFC0000
001FF80000
003FF80000
003FF00000
007FE00000
00FFE00000
00FFC00000
01FF800000
03FF800000
03FF000000
07FE07C000
07FE7FFC00
0FFCFFFF00
0FFBFFFF80
1FFFFFFFC0
1FFFFFFFE0
3FFFFFFFF0
3FFFFFFFF8
7FFF81FFF8
7FFE007FFC
7FF8003FFC
7FF8001FFE
7FF0000FFE
FFF0000FFE
FFE00007FE
FFE00007FF
FFE00007FF
FFE00007FF
FFE00007FF
FFE00007FF
FFE00007FF
7FE00007FF
7FE0000FFE
7FF0000FFE
7FF8001FFE
3FF8003FFE
3FFE007FFC
1FFF01FFFC
1FFFFFFFF8
0FFFFFFFF0
07FFFFFFE0
03FFFFFFE0
01FFFFFF80
00FFFFFF00
003FFFFC00
0007FFF000
00007E0000
ENDCHAR
STARTCHAR 0037
ENCODING 55
SWIDTH 514 0
DWIDTH 40 0
BBX 37 54 2 0
BITMAP
FFFFFFFFF8
FFFFFFFFF8
FFFFFFFFF8
FFFFFFFFF8
FFFFFFFFF8
FFFFFFFFF8
FFFFFFFFF8
FFFFFFFFF8
FFFFFFFFF8
0000003FF8
0000003FF8
0000003FF0
0000007FF0
0000007FE0
000000FFE0
000000FFC0
000001FFC0
000001FF80
000003FF80
000003FF80
000007FF00
000007FF00
00000FFE00
00000FFE00
00001FFC00
00001FFC00
00003FF800
00003FF800
00007FF000
00007FF000
0000FFF000
0000FFE000
0001FFE000
0001FFC000
0003FFC000
0003FF8000
0007FF8000
0007FF0000
0007FF0000
000FFE0000
000FFE0000
001FFE0000
001FFC0000
003FFC0000
003FF80000
007FF80000
007FF00000
00FFF00000
00FFE00000
01FFE00000
01FFC00000
03FFC00000
03FFC00000
07FF800000
ENDCHAR
STARTCHAR 0038
ENCODING 56
SWIDTH 604 0
DWIDTH 47 0
BBX 40 56 4 -1
BITMAP
0007FFE000
003FFFFC00
00FFFFFF00
01FFFFFF80
03FFFFFFC0
07FFFFFFE0
0FFFFFFFF0
1FFFFFFFF8
1FFFC3FFF8
3FFE007FFC
3FFC003FFC
3FF8001FFC
3FF0000FFC
7FF0000FFE
7FF0000FFE
7FF0000FFE
7FF0000FFE
3FF0000FFC
3FF0000FFC
3FF0000FFC
1FF8001FFC
1FFC003FF8
0FFE007FF0
0FFFC3FFF0
07FFFFFFE0
03FFFFFFC0
00FFFFFF00
00FFFFFF00
03FFFFFFC0
07FFFFFFE0
0FFF81FFF8
1FFE003FF8
3FF8001FFC
7FF0000FFE
7FF0000FFE
7FE00007FF
FFE00007FF
FFE00007FF
FFE00007FF
FFE00007FF
FFE00007FF
FFE00007FF
FFE00007FF
FFF0000FFF
7FF8001FFF
7FFC003FFE
7FFE007FFE
3FFFFFFFFC
3FFFFFFFFC
1FFFFFFFF8
0FFFFFFFF0
07FFFFFFE0
03FFFFFFC0
00FFFFFF00
003FFFFC00
0007FFE000
ENDCHAR
STARTCHAR 0039
ENCODING 57
SWIDTH 578 0
DWIDTH 45 0
BBX 40 56 3 0
BITMAP
0000180000
0007FFE000
003FFFF800
00FFFFFE00
01FFFFFF80
03FFFFFFC0
07FFFFFFE0
0FFFFFFFF0
1FFFFFFFF0
1FFF81FFF8
3FFE007FFC
3FFC003FFC
7FF8001FFE
7FF0000FFE
7FF0000FFE
FFE00007FE
FFE00007FF
FFE00007FF
FFE00007FF
FFE00007FF
FFE00007FF
FFE00007FF
FFE00007FF
7FF00007FF
7FF0000FFE
7FF8000FFE
3FF8001FFE
3FFE003FFE
3FFF00FFFE
1FFFFFFFFC
0FFFFFFFFC
0FFFFFFFF8
07FFFFEFF8
03FFFFDFF0
00FFFFBFF0
003FFE3FE0
0007F07FE0
000000FFC0
000001FFC0
000001FF80
000003FF80
000007FF00
000007FE00
00000FFE00
00001FFC00
00003FF800
00003FF800
00007FF000
0000FFE000
0000FFE000
0001FFC000
0003FF8000
0007FF8000
0007FF0000
000FFF0000
001FFE0000
ENDCHAR
STARTCHAR 003A
ENCODING 58
SWIDTH 321 0
DWIDTH 25 0
BBX 12 42 6 -1
BITMAP
0F80
3FC0
7FE0
7FF0
FFF0
FFF0
FFF0
FFF0
7FF0
7FE0
3FE0
1F80
0000
0000
0000
0000
0000
0000
0000
0000
0000
0000
0000
0000
0000
0000
0000
0000
0000
0000
1FC0
3FE0
7FF0
FFF0
FFF0
FFF0
FFF0
FFF0
7FF0
7FE0
3FC0
0E00
ENDCHAR
STARTCHAR 003B
ENCODING 59
SWIDTH 347 0
DWIDTH 27 0
BBX 14 55 7 -14
BITMAP
0F80
1FE0
3FF0
7FF0
7FF8
7FF8
7FF8
7FF8
7FF8
3FF0
1FE0
0FC0
0000
0000
0000
0000
0000
0000
0000
0000
0000
0000
0000
0000
0000
0000
0000
0000
0000
0000
0000
1FE0
3FF0
7FF8
7FF8
7FFC
FFFC
FFFC
7FFC
7FFC
3FFC
0FFC
00FC
007C
007C
007C
0078
00F8
00F8
01F0
03E0
0FC0
1F80
1F00
1C00
ENDCHAR
STARTCHAR 003C
ENCODING 60
SWIDTH 565 0
DWIDTH 44 0
BBX 29 37 8 7
BITMAP
00000008
00000038
000000F8
000003F8
00000FF8
00003FF8
0000FFF8
0003FFF8
000FFFF8
003FFFF8
00FFFFE0
01FFFF80
07FFFE00
1FFFF800
7FFFE000
FFFF8000
FFFE0000
FFF80000
FFE00000
FFF00000
FFFC0000
FFFF0000
FFFFC000
3FFFF000
0FFFFC00
03FFFF00
01FFFFC0
007FFFF0
001FFFF8
0007FFF8
0001FFF8
00007FF8
00001FF8
000007F8
000001F8
00000078
00000018
ENDCHAR
STARTCHAR 003D
ENCODING 61
SWIDTH 707 0
DWIDTH 55 0
BBX 37 26 9 11
BITMAP
FFFFFFFFF8
FFFFFFFFF8
FFFFFFFFF8
FFFFFFFFF8
FFFFFFFFF8
FFFFFFFFF8
FFFFFFFFF8
FFFFFFFFF8
FFFFFFFFF8
0000000000
0000000000
0000000000
0000000000
0000000000
0000000000
0000000000
0000000000
0000000000
FFFFFFFFF8
FFFFFFFFF8
FFFFFFFFF8
FFFFFFFFF8
FFFFFFFFF8
FFFFFFFFF8
FFFFFFFFF8
FFFFFFFFF8
ENDCHAR
STARTCHAR 003E
ENCODING 62
SWIDTH 565 0
DWIDTH 44 0
BBX 29 37 8 7
BITMAP
80000000
E0000000
F8000000
FE000000
FF800000
FFE00000
FFF80000
FFFE0000
FFFF8000
FFFFE000
3FFFF000
0FFFFC00
03FFFF00
00FFFFC0
003FFFF0
000FFFF8
0003FFF8
0000FFF8
00003FF8
00007FF8
0001FFF8
0007FFF8
001FFFF8
007FFFE0
01FFFF80
07FFFE00
1FFFF800
7FFFF000
FFFFC000
FFFF0000
FFFC0000
FFF00000
FFC00000
FF000000
FC000000
F0000000
C0000000
ENDCHAR
STARTCHAR 003F
ENCODING 63
SWIDTH 565 0
DWIDTH 44 0
BBX 38 57 4 -1
BITMAP
0000300000
000FFFC000
003FFFF800
00FFFFFC00
03FFFFFF00
07FFFFFF80
0FFFFFFFC0
1FFFFFFFE0
1FFFFFFFE0
3FFFFFFFF0
3FFF8FFFF0
7FFC00FFF8
7FF8007FF8
7FF0003FF8
FFF0003FF8
FFE0003FF8
FFE0001FFC
FFE0001FF8
FFE0003FF8
FFE0003FF8
0000003FF8
0000007FF8
0000007FF0
000000FFF0
000001FFE0
000003FFE0
000007FFC0
00000FFF80
00001FFF00
00003FFE00
00007FFC00
0000FFF800
0001FFF000
0001FFE000
0003FFC000
0003FF8000
0007FF0000
0007FF0000
0007FF0000
0007FF0000
0007FF0000
0000000000
0000000000
0000000000
0000000000
0000F00000
0003FC0000
0003FE0000
0007FF0000
0007FF0000
000FFF0000
000FFF0000
0007FF0000
0007FF0000
0003FE0000
0001FC0000
0000700000
ENDCHAR
STARTCHAR 0040
ENCODING 64
SWIDTH 1002 0
DWIDTH 78 0
BBX 68 68 5 -13
BITMAP
0000003FFFE0000000
000001FFFFFE000000
00000FFFFFFF800000
00003FFFFFFFE00000
0000FFFFFFFFF80000
0003FFFFFFFFFE0000
0007FFFFFFFFFF0000
000FFFFF07FFFF8000
001FFFC0001FFFE000
007FFE000003FFF000
007FF8000000FFF000
00FFE00000003FF800
01FF800000000FFC00
03FF0000000007FE00
03FE0000000003FE00
07FC0000000001FF00
0FF80000000000FF80
0FF80002000000FF80
1FF0007FF0FF807FC0
1FF000FFFCFF803FC0
1FE001FFFEFF803FC0
3FE003FFFFFF801FE0
3FC007FFFFFF801FE0
3FC00FFFFFFF801FE0
7FC00FFF1FFF800FE0
7F801FF807FF800FF0
7F801FF803FF800FF0
7F803FF001FF800FF0
7F803FE001FF800FF0
7F803FE000FF800FF0
7F803FE000FF800FF0
FF803FE000FF800FF0
FF803FC000FF800FF0
FF803FC000FF800FF0
FF803FC000FF800FF0
FF803FE000FF800FF0
7F803FE000FF800FF0
7F803FE000FF800FF0
7F803FE000FF800FE0
7F803FF001FF801FE0
7F801FF001FF801FE0
7FC01FF803FFC03FC0
7FC01FFE0FFFC07F80
3FC00FFFFFBFF1FF80
3FC007FFFF9FFFFF00
3FE007FFFF1FFFFE00
3FE003FFFF0FFFFC00
1FF001FFFE03FFF800
1FF0007FF801FFE000
0FF8000FC0001E0000
0FFC00000000000000
07FE00000000000000
07FE00000000000000
03FF80000000000000
01FFC0000000000000
01FFE0000000000000
00FFF8000000000000
007FFE000000000000
003FFF800000000000
001FFFFC0000000000
000FFFFFFFFFF00000
0003FFFFFFFFF00000
0001FFFFFFFFF00000
00007FFFFFFFF00000
00001FFFFFFFF00000
000007FFFFFFF00000
000000FFFFFFF00000
00000003FFFFF00000
ENDCHAR
STARTCHAR 0041
ENCODING 65
SWIDTH 668 0
DWIDTH 52 0
BBX 49 54 2 0
BITMAP
00001FFC000000
00001FFC000000
00003FFE000000
00003FFE000000
00003FFE000000
00007FFF000000
00007FFF000000
00007FFF000000
0000FFFF800000
0000FFFF800000
0001FFFF800000
0001FFFFC00000
0001FFFFC00000
0003FF7FE00000
0003FF7FE00000
0003FE7FE00000
0007FE3FF00000
0007FE3FF00000
0007FC3FF00000
000FFC1FF80000
000FFC1FF80000
001FF81FF80000
001FF80FFC0000
001FF80FFC0000
003FF00FFC0000
003FF007FE0000
003FF007FE0000
007FE007FF0000
007FE003FF0000
007FE003FF0000
00FFC003FF8000
00FFC001FF8000
00FFFFFFFF8000
01FFFFFFFFC000
01FFFFFFFFC000
03FFFFFFFFC000
03FFFFFFFFE000
03FFFFFFFFE000
07FFFFFFFFE000
07FFFFFFFFF000
07FFFFFFFFF000
0FFE00003FF800
0FFC00003FF800
0FFC00001FF800
1FFC00001FFC00
1FF800001FFC00
3FF800000FFC00
3FF800000FFE00
3FF000000FFE00
7FF0000007FE00
7FF0000007FF00
7FF0000007FF00
FFE0000003FF00
FFE0000003FF80
ENDCHAR
STARTCHAR 0042
ENCODING 66
SWIDTH 617 0
DWIDTH 48 0
BBX 42 54 4 0
BITMAP
FFFFFFFC0000
FFFFFFFF0000
FFFFFFFFC000
FFFFFFFFE000
FFFFFFFFF000
FFFFFFFFF800
FFFFFFFFF800
FFFFFFFFFC00
FFE001FFFC00
FFE0003FFC00
FFE0001FFE00
FFE0000FFE00
FFE0000FFE00
FFE00007FE00
FFE00007FE00
FFE00007FE00
FFE00007FE00
FFE0000FFC00
FFE0000FFC00
FFE0001FF800
FFE0003FF800
FFE000FFF000
FFFFFFFFE000
FFFFFFFFC000
FFFFFFFF0000
FFFFFFFF0000
FFFFFFFFE000
FFFFFFFFF000
FFFFFFFFFC00
FFFFFFFFFE00
FFE0003FFE00
FFE00007FF00
FFE00003FF80
FFE00001FF80
FFE00001FF80
FFE00001FFC0
FFE00000FFC0
FFE00000FFC0
FFE00000FFC0
FFE00001FFC0
FFE00001FFC0
FFE00001FFC0
FFE00003FF80
FFE00007FF80
FFE0001FFF80
FFFFFFFFFF00
FFFFFFFFFF00
FFFFFFFFFE00
FFFFFFFFFC00
FFFFFFFFF800
FFFFFFFFF000
FFFFFFFFE000
FFFFFFFF8000
FFFFFFFC0000
ENDCHAR
STARTCHAR 0043
ENCODING 67
SWIDTH 694 0
DWIDTH 54 0
BBX 48 57 3 -1
BITMAP
000000600000
00003FFF8000
0001FFFFE000
0007FFFFF800
001FFFFFFE00
003FFFFFFF00
007FFFFFFF80
00FFFFFFFFC0
01FFFFFFFFE0
03FFFFFFFFF0
07FFF807FFF8
07FFE000FFF8
0FFF80007FFC
0FFF00003FFC
1FFE00001FFE
1FFE00000FFE
3FFC000007FF
3FFC000007FF
3FF8000003FF
7FF8000003FF
7FF000000000
7FF000000000
7FF000000000
7FF000000000
FFF000000000
FFF000000000
FFF000000000
FFE000000000
FFE000000000
FFE000000000
FFF000000000
FFF000000000
FFF000000000
7FF000000000
7FF000000000
7FF000000000
7FF000000000
7FF800000000
3FF8000007FF
3FFC000007FF
3FFC000007FE
1FFE00000FFE
1FFE00001FFE
0FFF00003FFC
0FFF80007FFC
07FFE000FFF8
07FFF803FFF8
03FFFFFFFFF0
01FFFFFFFFE0
00FFFFFFFFC0
007FFFFFFF80
003FFFFFFF00
001FFFFFFE00
0007FFFFF800
0001FFFFE000
00007FFF8000
000001E00000
ENDCHAR
STARTCHAR 0044
ENCODING 68
SWIDTH 668 0
DWIDTH 52 0
BBX 46 55 4 0
BITMAP
FFFFFC000000
FFFFFFF80000
FFFFFFFF0000
FFFFFFFFC000
FFFFFFFFF000
FFFFFFFFF800
FFFFFFFFFC00
FFFFFFFFFE00
FFFFFFFFFF00
FFFFFFFFFF80
FFE000FFFF80
FFE0001FFFC0
FFE0000FFFE0
FFE00003FFE0
FFE00001FFF0
FFE00000FFF0
FFE00000FFF0
FFE000007FF8
FFE000007FF8
FFE000007FF8
FFE000003FF8
FFE000003FFC
FFE000003FFC
FFE000003FFC
FFE000003FFC
FFE000003FFC
FFE000003FFC
FFE000003FFC
FFE000003FFC
FFE000003FFC
FFE000003FFC
FFE000003FFC
FFE000003FFC
FFE000003FFC
FFE000003FF8
FFE000003FF8
FFE000007FF8
FFE000007FF8
FFE00000FFF0
FFE00000FFF0
FFE00001FFF0
FFE00003FFE0
FFE00007FFE0
FFE0001FFFC0
FFE0007FFFC0
FFFFFFFFFF80
FFFFFFFFFF00
FFFFFFFFFE00
FFFFFFFFFE00
FFFFFFFFF800
FFFFFFFFF000
FFFFFFFFE000
FFFFFFFF8000
FFFFFFFC0000
FFFFFFE00000
ENDCHAR
STARTCHAR 0045
ENCODING 69
SWIDTH 565 0
DWIDTH 44 0
BBX 36 54 5 0
BITMAP
FFFFFFFFF0
FFFFFFFFF0
FFFFFFFFF0
FFFFFFFFF0
FFFFFFFFF0
FFFFFFFFF0
FFFFFFFFF0
FFFFFFFFF0
FFFFFFFFF0
FFC0000000
FFC0000000
FFC0000000
FFC0000000
FFC0000000
FFC0000000
FFC0000000
FFC0000000
FFC0000000
FFC0000000
FFC0000000
FFC0000000
FFC0000000
FFFFFFFF00
FFFFFFFF00
FFFFFFFF00
FFFFFFFF00
FFFFFFFF00
FFFFFFFF00
FFFFFFFF00
FFFFFFFF00
FFFFFFFF00
FFC0000000
FFC0000000
FFC0000000
FFC0000000
FFC0000000
FFC0000000
FFC0000000
FFC0000000
FFC0000000
FFC0000000
FFC0000000
FFC0000000
FFC0000000
FFC0000000
FFFFFFFFF0
FFFFFFFFF0
FFFFFFFFF0
FFFFFFFFF0
FFFFFFFFF0
FFFFFFFFF0
FFFFFFFFF0
FFFFFFFFF0
FFFFFFFFF0
ENDCHAR
STARTCHAR 0046
ENCODING 70
SWIDTH 501 0
DWIDTH 39 0
BBX 34 54 5 0
BITMAP
FFFFFFFFC0
FFFFFFFFC0
FFFFFFFFC0
FFFFFFFFC0
FFFFFFFFC0
FFFFFFFFC0
FFFFFFFFC0
FFFFFFFFC0
FFFFFFFFC0
FFC0000000
FFC0000000
FFC0000000
FFC0000000
FFC0000000
FFC0000000
FFC0000000
FFC0000000
FFC0000000
FFC0000000
FFC0000000
FFC0000000
FFC0000000
FFFFFFFE00
FFFFFFFE00
FFFFFFFE00
FFFFFFFE00
FFFFFFFE00
FFFFFFFE00
FFFFFFFE00
FFFFFFFE00
FFFFFFFE00
FFC0000000
FFC0000000
FFC0000000
FFC0000000
FFC0000000
FFC0000000
FFC0000000
FFC0000000
FFC0000000
FFC0000000
FFC0000000
FFC0000000
FFC0000000
FFC0000000
FFC0000000
FFC0000000
FFC0000000
FFC0000000
FFC0000000
FFC0000000
FFC0000000
FFC0000000
FFC0000000
ENDCHAR
STARTCHAR 0047
ENCODING 71
SWIDTH 707 0
DWIDTH 55 0
BBX 49 57 3 -1
BITMAP
00000040000000
00007FFF800000
0001FFFFE00000
0007FFFFF80000
001FFFFFFE0000
003FFFFFFF0000
007FFFFFFF8000
00FFFFFFFFC000
01FFFFFFFFE000
03FFFFFFFFF000
03FFF807FFF800
07FFE000FFF800
0FFF80007FFC00
0FFF00003FFC00
1FFE00001FFE00
1FFE00000FFE00
3FFC00000FFF00
3FFC000007FF00
3FF8000007FF00
3FF80000000000
7FF00000000000
7FF00000000000
7FF00000000000
7FF00000000000
7FF00000000000
7FE00000000000
FFE00000000000
FFE0001FFFFF80
FFE0001FFFFF80
FFE0001FFFFF80
FFE0001FFFFF80
7FE0001FFFFF80
7FE0001FFFFF80
7FF0001FFFFF80
7FF0000003FF80
7FF0000003FF80
7FF0000003FF80
7FF0000003FF80
3FF8000003FF80
3FF8000007FF80
3FFC000007FF80
1FFC000007FF80
1FFE00000FFF80
0FFE00001FFF80
0FFF00001FFF80
07FFC0003FFF80
07FFE000FFFF80
03FFFC03FFFF80
01FFFFFFFF7F80
01FFFFFFFE7F80
00FFFFFFFC7F80
003FFFFFF87F80
001FFFFFF87F80
000FFFFFE07F80
0003FFFF807F80
0000FFFE007F80
00000380000000
ENDCHAR
STARTCHAR 0048
ENCODING 72
SWIDTH 668 0
DWIDTH 52 0
BBX 44 54 4 0
BITMAP
FFE000003FF0
FFE000003FF0
FFE000003FF0
FFE000003FF0
FFE000003FF0
FFE000003FF0
FFE000003FF0
FFE000003FF0
FFE000003FF0
FFE000003FF0
FFE000003FF0
FFE000003FF0
FFE000003FF0
FFE000003FF0
FFE000003FF0
FFE000003FF0
FFE000003FF0
FFE000003FF0
FFE000003FF0
FFE000003FF0
FFE000003FF0
FFE000003FF0
FFFFFFFFFFF0
FFFFFFFFFFF0
FFFFFFFFFFF0
FFFFFFFFFFF0
FFFFFFFFFFF0
FFFFFFFFFFF0
FFFFFFFFFFF0
FFFFFFFFFFF0
FFFFFFFFFFF0
FFE000003FF0
FFE000003FF0
FFE000003FF0
FFE000003FF0
FFE000003FF0
FFE000003FF0
FFE000003FF0
FFE000003FF0
FFE000003FF0
FFE000003FF0
FFE000003FF0
FFE000003FF0
FFE000003FF0
FFE000003FF0
FFE000003FF0
FFE000003FF0
FFE000003FF0
FFE000003FF0
FFE000003FF0
FFE000003FF0
FFE000003FF0
FFE000003FF0
FFE000003FF0
ENDCHAR
STARTCHAR 0049
ENCODING 73
SWIDTH 257 0
DWIDTH 20 0
BBX 11 54 5 0
BITMAP
FFE0
FFE0
FFE0
FFE0
FFE0
FFE0
FFE0
FFE0
FFE0
FFE0
FFE0
FFE0
FFE0
FFE0
FFE0
FFE0
FFE0
FFE0
FFE0
FFE0
FFE0
FFE0
FFE0
FFE0
FFE0
FFE0
FFE0
FFE0
FFE0
FFE0
FFE0
FFE0
FFE0
FFE0
FFE0
FFE0
FFE0
FFE0
FFE0
FFE0
FFE0
FFE0
FFE0
FFE0
FFE0
FFE0
FFE0
FFE0
FFE0
FFE0
FFE0
FFE0
FFE0
FFE0
ENDCHAR
STARTCHAR 004A
ENCODING 74
SWIDTH 360 0
DWIDTH 28 0
BBX 20 54 3 0
BITMAP
003FF0
003FF0
003FF0
003FF0
003FF0
003FF0
003FF0
003FF0
003FF0
003FF0
003FF0
003FF0
003FF0
003FF0
003FF0
003FF0
003FF0
003FF0
003FF0
003FF0
003FF0
003FF0
003FF0
003FF0
003FF0
003FF0
003FF0
003FF0
003FF0
003FF0
003FF0
003FF0
003FF0
003FF0
003FF0
003FF0
003FF0
003FF0
003FF0
007FF0
007FF0
007FF0
007FF0
007FF0
00FFF0
01FFF0
FFFFF0
FFFFE0
FFFFE0
FFFFC0
FFFFC0
FFFF00
FFFE00
FFF800
ENDCHAR
STARTCHAR 004B
ENCODING 75
SWIDTH 642 0
DWIDTH 50 0
BBX 43 54 4 0
BITMAP
FFE00003FFC0
FFE00007FF80
FFE0000FFF00
FFE0001FFE00
FFE0003FFE00
FFE0007FFC00
FFE000FFF800
FFE000FFF000
FFE001FFE000
FFE003FFC000
FFE007FF8000
FFE00FFF8000
FFE01FFF0000
FFE03FFE0000
FFE03FFC0000
FFE07FF80000
FFE0FFF00000
FFE1FFE00000
FFE3FFE00000
FFE7FFC00000
FFEFFF800000
FFEFFF000000
FFFFFE000000
FFFFFE000000
FFFFFF000000
FFFFFF800000
FFFFFF800000
FFFFFFC00000
FFFFFFE00000
FFFFFFE00000
FFFFFFF00000
FFFE7FF80000
FFFC3FF80000
FFF83FFC0000
FFF01FFE0000
FFE00FFE0000
FFE00FFF0000
FFE007FF8000
FFE007FF8000
FFE003FFC000
FFE001FFC000
FFE001FFE000
FFE000FFF000
FFE0007FF000
FFE0007FF800
FFE0003FFC00
FFE0003FFC00
FFE0001FFE00
FFE0000FFF00
FFE0000FFF00
FFE00007FF80
FFE00003FFC0
FFE00003FFC0
FFE00001FFE0
ENDCHAR
STARTCHAR 004C
ENCODING 76
SWIDTH 527 0
DWIDTH 41 0
BBX 35 54 4 0
BITMAP
FFE0000000
FFE0000000
FFE0000000
FFE0000000
FFE0000000
FFE0000000
FFE0000000
FFE0000000
FFE0000000
FFE0000000
FFE0000000
FFE0000000
FFE0000000
FFE0000000
FFE0000000
FFE0000000
FFE0000000
FFE0000000
FFE0000000
FFE0000000
FFE0000000
FFE0000000
FFE0000000
FFE0000000
FFE0000000
FFE0000000
FFE0000000
FFE0000000
FFE0000000
FFE0000000
FFE0000000
FFE0000000
FFE0000000
FFE0000000
FFE0000000
FFE0000000
FFE0000000
FFE0000000
FFE0000000
FFE0000000
FFE0000000
FFE0000000
FFE0000000
7FE0000000
7FE0000000
7FFFFFFFE0
7FFFFFFFE0
7FFFFFFFE0
7FFFFFFFE0
7FFFFFFFE0
7FFFFFFFE0
7FFFFFFFE0
7FFFFFFFE0
7FFFFFFFE0
ENDCHAR
STARTCHAR 004D
ENCODING 77
SWIDTH 835 0
DWIDTH 65 0
BBX 57 54 4 0
BITMAP
FFFF800000FFFF80
FFFF800000FFFF80
FFFFC00000FFFF80
FFFFC00001FFFF80
FFFFC00001FFFF80
FFFFE00001FFFF80
FFFFE00003FFFF80
FFFFE00003FFFF80
FFFFF00003FFFF80
FFFFF00007FFFF80
FFFFF00007FFFF80
FFFFF8000FFFFF80
FFFFF8000FFFFF80
FFFFF8000FFFFF80
FFFFFC001FFFFF80
FFEFFC001FFFFF80
FFEFFE001FFBFF80
FFEFFE003FFBFF80
FFE7FE003FFBFF80
FFE7FF003FF3FF80
FFE7FF007FF3FF80
FFE3FF007FF3FF80
FFE3FF807FE3FF80
FFE3FF80FFE3FF80
FFE1FF80FFE3FF80
FFE1FFC1FFC3FF80
FFE1FFC1FFC3FF80
FFE0FFE1FF83FF80
FFE0FFE3FF83FF80
FFE07FE3FF83FF80
FFE07FF3FF03FF80
FFE07FF7FF03FF80
FFE03FF7FF03FF80
FFE03FFFFE03FF80
FFE03FFFFE03FF80
FFE01FFFFE03FF80
FFE01FFFFC03FF80
FFE01FFFFC03FF80
FFE00FFFFC03FF80
FFE00FFFF803FF80
FFE00FFFF803FF80
FFE007FFF803FF80
FFE007FFF003FF80
FFE007FFF003FF80
FFE003FFF003FF80
FFE003FFE003FF80
FFE001FFE003FF80
FFE001FFC003FF80
FFE001FFC003FF80
FFE000FFC003FF80
FFE000FF8003FF80
FFE000FF8003FF80
FFE0007F8003FF80
FFE0007F0003FF80
ENDCHAR
STARTCHAR 004E
ENCODING 78
SWIDTH 694 0
DWIDTH 54 0
BBX 46 54 4 0
BITMAP
FFFC00001FFC
FFFC00001FFC
FFFE00001FFC
FFFE00001FFC
FFFF00001FFC
FFFF00001FFC
FFFF80001FFC
FFFFC0001FFC
FFFFC0001FFC
FFFFE0001FFC
FFFFE0001FFC
FFFFF0001FFC
FFFFF8001FFC
FFFFF8001FFC
FFFFFC001FFC
FFFFFC001FFC
FFFFFE001FFC
FFFFFF001FFC
FFEFFF001FFC
FFE7FF801FFC
FFE7FF801FFC
FFE3FFC01FFC
FFE1FFC01FFC
FFE1FFE01FFC
FFE0FFF01FFC
FFE0FFF01FFC
FFE07FF81FFC
FFE07FF81FFC
FFE03FFC1FFC
FFE01FFE1FFC
FFE01FFE1FFC
FFE00FFF1FFC
FFE007FF1FFC
FFE007FF9FFC
FFE003FFDFFC
FFE003FFDFFC
FFE001FFFFFC
FFE000FFFFFC
FFE000FFFFFC
FFE0007FFFFC
FFE0007FFFFC
FFE0003FFFFC
FFE0001FFFFC
FFE0001FFFFC
FFE0000FFFFC
FFE0000FFFFC
FFE00007FFFC
FFE00003FFFC
FFE00003FFFC
FFE00001FFFC
FFE00001FFFC
FFE00000FFFC
FFE000007FFC
FFE000007FFC
ENDCHAR
STARTCHAR 004F
ENCODING 79
SWIDTH 720 0
DWIDTH 56 0
BBX 50 57 3 -1
BITMAP
00000060000000
00003FFF800000
0001FFFFF00000
0007FFFFF80000
001FFFFFFE0000
003FFFFFFF0000
007FFFFFFFC000
00FFFFFFFFE000
01FFFFFFFFE000
03FFFFFFFFF000
07FFFC0FFFF800
07FFF001FFFC00
0FFFC000FFFC00
0FFF80007FFE00
1FFF00003FFE00
1FFE00001FFF00
3FFE00000FFF00
3FFC00000FFF00
3FFC000007FF80
7FF8000007FF80
7FF8000007FF80
7FF8000003FF80
7FF0000003FFC0
7FF0000003FFC0
FFF0000003FFC0
FFF0000003FFC0
FFF0000003FFC0
FFF0000003FFC0
FFF0000001FFC0
FFF0000001FFC0
FFF0000003FFC0
FFF0000003FFC0
FFF0000003FFC0
FFF0000003FFC0
7FF0000003FFC0
7FF0000003FF80
7FF8000007FF80
7FF8000007FF80
7FF8000007FF80
3FFC00000FFF80
3FFC00000FFF00
3FFE00001FFF00
1FFF00001FFE00
1FFF80003FFE00
0FFFC0007FFC00
0FFFE001FFFC00
07FFFC07FFF800
03FFFFFFFFF800
03FFFFFFFFF000
01FFFFFFFFE000
00FFFFFFFFC000
007FFFFFFF8000
001FFFFFFE0000
000FFFFFFC0000
0003FFFFF00000
00007FFF800000
000001E0000000
ENDCHAR
STARTCHAR 0050
ENCODING 80
SWIDTH 578 0
DWIDTH 45 0
BBX 40 54 4 0
BITMAP
FFFFFFF000
FFFFFFFC00
FFFFFFFF00
FFFFFFFF80
FFFFFFFFE0
FFFFFFFFF0
FFFFFFFFF0
FFFFFFFFF8
FFFFFFFFFC
FFE001FFFC
FFE0003FFE
FFE0001FFE
FFE0000FFE
FFE00007FF
FFE00007FF
FFE00007FF
FFE00003FF
FFE00003FF
FFE00003FF
FFE00003FF
FFE00003FF
FFE00007FF
FFE00007FF
FFE00007FF
FFE0000FFE
FFE0001FFE
FFE0007FFE
FFE003FFFC
FFFFFFFFF8
FFFFFFFFF8
FFFFFFFFF0
FFFFFFFFE0
FFFFFFFFC0
FFFFFFFF80
FFFFFFFE00
FFFFFFF000
FFFFFE0000
FFE0000000
FFE0000000
FFE0000000
FFE0000000
FFE0000000
FFE0000000
FFE0000000
FFE0000000
FFE0000000
FFE0000000
FFE0000000
FFE0000000
FFE0000000
FFE0000000
FFE0000000
FFE0000000
FFE0000000
ENDCHAR
STARTCHAR 0051
ENCODING 81
SWIDTH 720 0
DWIDTH 56 0
BBX 50 59 3 -3
BITMAP
00000060000000
00003FFF800000
0001FFFFF00000
0007FFFFF80000
001FFFFFFE0000
003FFFFFFF0000
007FFFFFFFC000
00FFFFFFFFE000
01FFFFFFFFE000
03FFFFFFFFF000
07FFFC0FFFF800
07FFF001FFFC00
0FFFC000FFFC00
0FFF80007FFE00
1FFF00003FFE00
1FFE00001FFF00
3FFE00000FFF00
3FFC00000FFF00
3FFC000007FF80
7FF8000007FF80
7FF8000007FF80
7FF8000003FF80
7FF0000003FFC0
7FF0000003FFC0
FFF0000003FFC0
FFF0000003FFC0
FFF0000003FFC0
FFF0000003FFC0
FFF0000001FFC0
FFF0000001FFC0
FFF0000003FFC0
FFF0000003FFC0
FFF0000003FFC0
FFF0000003FFC0
7FF0000003FFC0
7FF007FC03FF80
7FF803FE07FF80
7FF803FF07FF80
7FF801FF87FF80
3FFC00FF8FFF00
3FFC007FCFFF00
3FFE007FFFFF00
1FFF003FFFFE00
1FFF801FFFFE00
0FFFC00FFFFC00
0FFFE00FFFFC00
07FFFC07FFF800
03FFFFFFFFF800
03FFFFFFFFF000
01FFFFFFFFE000
00FFFFFFFFC000
007FFFFFFFE000
001FFFFFFFE000
000FFFFFFFF000
0003FFFFFFF800
00007FFF8FFC00
000001F007FC00
0000000003FE00
0000000003FF00
ENDCHAR
STARTCHAR 0052
ENCODING 82
SWIDTH 604 0
DWIDTH 47 0
BBX 41 54 4 0
BITMAP
FFFFFFF00000
FFFFFFFC0000
FFFFFFFF0000
FFFFFFFFC000
FFFFFFFFE000
FFFFFFFFF000
FFFFFFFFF800
FFFFFFFFF800
FFFFFFFFFC00
FFE001FFFE00
FFE0003FFE00
FFE0000FFE00
FFE0000FFF00
FFE00007FF00
FFE00007FF00
FFE00003FF00
FFE00003FF00
FFE00003FF00
FFE00003FF00
FFE00007FF00
FFE00007FF00
FFE00007FF00
FFE0000FFE00
FFE0001FFE00
FFE0007FFE00
FFFFFFFFFC00
FFFFFFFFFC00
FFFFFFFFF800
FFFFFFFFF000
FFFFFFFFE000
FFFFFFFFC000
FFFFFFFF0000
FFFFFFFC0000
FFFFFFF80000
FFE03FFC0000
FFE01FFC0000
FFE00FFE0000
FFE00FFF0000
FFE007FF0000
FFE007FF8000
FFE003FF8000
FFE001FFC000
FFE001FFC000
FFE000FFE000
FFE000FFF000
FFE0007FF000
FFE0007FF800
FFE0003FF800
FFE0001FFC00
FFE0001FFE00
FFE0000FFE00
FFE0000FFF00
FFE00007FF00
FFE00003FF80
ENDCHAR
STARTCHAR 0053
ENCODING 83
SWIDTH 591 0
DWIDTH 46 0
BBX 41 57 3 -1
BITMAP
000018000000
0007FFF00000
001FFFFE0000
007FFFFF0000
01FFFFFFC000
03FFFFFFE000
07FFFFFFF000
0FFFFFFFF800
0FFFFFFFFC00
1FFFFFFFFC00
1FFF007FFE00
3FFE003FFE00
3FFC001FFF00
3FF8001FFF00
3FF8000FFF00
3FF8000FFF00
3FF8000FFF00
3FF8000FFF00
3FF800000000
3FF800000000
3FFC00000000
3FFF00000000
1FFFC0000000
1FFFFC000000
0FFFFFE00000
0FFFFFFC0000
07FFFFFF0000
03FFFFFFC000
00FFFFFFF000
003FFFFFF800
000FFFFFFC00
0003FFFFFE00
00001FFFFE00
000001FFFF00
0000003FFF00
0000000FFF80
00000007FF80
00000007FF80
FFF00003FF80
FFF00003FF80
FFF00003FF80
7FF80003FF80
7FF80007FF80
7FFC0007FF80
7FFC000FFF00
3FFF001FFF00
3FFF807FFF00
1FFFFFFFFE00
1FFFFFFFFE00
0FFFFFFFFC00
07FFFFFFF800
03FFFFFFF000
01FFFFFFE000
007FFFFFC000
001FFFFF0000
0007FFF80000
00003F000000
ENDCHAR
STARTCHAR 0054
ENCODING 84
SWIDTH 591 0
DWIDTH 46 0
BBX 40 54 3 0
BITMAP
FFFFFFFFFF
FFFFFFFFFF
FFFFFFFFFF
FFFFFFFFFF
FFFFFFFFFF
FFFFFFFFFF
FFFFFFFFFF
FFFFFFFFFF
FFFFFFFFFF
0001FF8000
0001FF8000
0001FF8000
0001FF8000
0001FF8000
0001FF8000
0001FF8000
0001FF8000
0001FF8000
0001FF8000
0001FF8000
0001FF8000
0001FF8000
0001FF8000
0001FF8000
0001FF8000
0001FF8000
0001FF8000
0001FF8000
0001FF8000
0001FF8000
0001FF8000
0001FF8000
0001FF8000
0001FF8000
0001FF8000
0001FF8000
0001FF8000
0001FF8000
0001FF8000
0001FF8000
0001FF8000
0001FF8000
0001FF8000
0001FF8000
0001FF8000
0001FF8000
0001FF8000
0001FF8000
0001FF8000
0001FF8000
0001FF8000
0001FF8000
0001FF8000
0001FF8000
ENDCHAR
STARTCHAR 0055
ENCODING 85
SWIDTH 681 0
DWIDTH 53 0
BBX 45 55 4 -1
BITMAP
FFE000003FF8
FFE000003FF8
FFE000003FF8
FFE000003FF8
FFE000003FF8
FFE000003FF8
FFE000003FF8
FFE000003FF8
FFE000003FF8
FFE000003FF8
FFE000003FF8
FFE000003FF8
FFE000003FF8
FFE000003FF8
FFE000003FF8
FFE000003FF8
FFE000003FF8
FFE000003FF8
FFE000003FF8
FFE000003FF8
FFE000003FF8
FFE000003FF8
FFE000003FF8
FFE000003FF8
FFE000003FF8
FFE000003FF8
FFE000003FF8
FFE000003FF8
FFE000003FF8
FFE000003FF8
FFE000003FF8
FFE000003FF8
FFE000003FF8
FFE000003FF8
FFE000003FF8
7FF000003FF8
7FF000007FF0
7FF000007FF0
7FF800007FF0
7FF80000FFF0
3FFC0000FFF0
3FFE0001FFE0
3FFF0003FFE0
1FFF800FFFC0
1FFFFFFFFFC0
0FFFFFFFFF80
0FFFFFFFFF80
07FFFFFFFF00
03FFFFFFFE00
01FFFFFFFC00
00FFFFFFF800
003FFFFFE000
000FFFFFC000
0003FFFE0000
00001FC00000
ENDCHAR
STARTCHAR 0056
ENCODING 86
SWIDTH 655 0
DWIDTH 51 0
BBX 49 54 1 0
BITMAP
FFE0000003FF80
FFE0000003FF80
7FF0000003FF00
7FF0000007FF00
7FF0000007FF00
3FF8000007FE00
3FF800000FFE00
3FF800000FFE00
1FF800000FFC00
1FFC00001FFC00
1FFC00001FFC00
0FFC00001FF800
0FFE00003FF800
0FFE00003FF800
07FE00003FF000
07FF00007FF000
07FF00007FF000
03FF00007FE000
03FF8000FFE000
03FF8000FFE000
01FF8000FFC000
01FFC000FFC000
01FFC001FFC000
00FFC001FFC000
00FFE001FF8000
00FFE003FF8000
007FE003FF8000
007FF003FF0000
007FF007FF0000
003FF007FF0000
003FF807FE0000
003FF80FFE0000
001FF80FFE0000
001FF80FFC0000
001FFC1FFC0000
000FFC1FFC0000
000FFC1FF80000
000FFE3FF80000
0007FE3FF80000
0007FE3FF00000
0007FF7FF00000
0007FF7FF00000
0003FF7FE00000
0003FFFFE00000
0003FFFFE00000
0001FFFFC00000
0001FFFFC00000
0001FFFFC00000
0000FFFF800000
0000FFFF800000
0000FFFF800000
00007FFF000000
00007FFF000000
00007FFF000000
ENDCHAR
STARTCHAR 0057
ENCODING 87
SWIDTH 990 0
DWIDTH 77 0
BBX 75 54 1 0
BITMAP
FFE000007FE000007FE0
FFE00000FFE00000FFE0
7FE00000FFE00000FFE0
7FF00000FFF00000FFE0
7FF00001FFF00000FFC0
7FF00001FFF00001FFC0
3FF00001FFF80001FFC0
3FF80001FFF80001FFC0
3FF80003FFF80001FF80
3FF80003FFF80003FF80
1FF80003FFFC0003FF80
1FF80007FFFC0003FF80
1FFC0007FFFC0003FF00
1FFC0007FFFE0007FF00
0FFC000FFFFE0007FF00
0FFC000FFFFE0007FF00
0FFE000FFFFF0007FE00
0FFE001FFFFF0007FE00
07FE001FFFFF000FFE00
07FE001FFBFF800FFC00
07FF001FFBFF800FFC00
03FF003FF9FF800FFC00
03FF003FF1FF801FFC00
03FF003FF1FFC01FF800
03FF007FF0FFC01FF800
01FF807FE0FFC01FF800
01FF807FE0FFE03FF800
01FF80FFE07FE03FF000
01FF80FFE07FE03FF000
00FFC0FFC07FF03FF000
00FFC1FFC07FF03FF000
00FFC1FFC03FF07FE000
00FFC1FF803FF87FE000
007FE1FF803FF87FE000
007FE3FF801FF87FE000
007FE3FF001FF8FFC000
007FE3FF001FFCFFC000
003FF7FF000FFCFFC000
003FF7FF000FFCFFC000
003FF7FE000FFFFF8000
003FFFFE0007FFFF8000
001FFFFE0007FFFF8000
001FFFFC0007FFFF8000
001FFFFC0007FFFF0000
001FFFFC0003FFFF0000
000FFFF80003FFFF0000
000FFFF80003FFFF0000
000FFFF80001FFFE0000
000FFFF80001FFFE0000
0007FFF00001FFFE0000
0007FFF00000FFFE0000
0007FFF00000FFFC0000
0007FFE00000FFFC0000
0003FFE00000FFFC0000
ENDCHAR
STARTCHAR 0058
ENCODING 88
SWIDTH 668 0
DWIDTH 52 0
BBX 48 54 2 0
BITMAP
7FF800000FFF
7FF800000FFE
3FFC00001FFE
1FFC00003FFC
1FFE00003FF8
0FFF00007FF8
07FF0000FFF0
07FF8000FFE0
03FF8001FFE0
01FFC001FFC0
01FFE003FF80
00FFE007FF80
007FF007FF00
007FF80FFF00
003FF80FFE00
001FFC1FFC00
001FFC3FFC00
000FFE3FF800
000FFF7FF000
0007FFFFF000
0003FFFFE000
0003FFFFC000
0001FFFFC000
0000FFFF8000
0000FFFF0000
00007FFF0000
00003FFE0000
00007FFE0000
00007FFF0000
0000FFFF8000
0001FFFF8000
0001FFFFC000
0003FFFFE000
0007FFFFE000
0007FF7FF000
000FFE7FF800
001FFE3FF800
001FFC1FFC00
003FFC1FFE00
003FF80FFE00
007FF00FFF00
00FFF007FF00
00FFE003FF80
01FFC003FFC0
03FFC001FFC0
03FF8000FFE0
07FF8000FFF0
0FFF00007FF0
0FFE00007FF8
1FFE00003FFC
3FFC00001FFC
3FF800001FFE
7FF800000FFF
FFF000000FFF
ENDCHAR
STARTCHAR 0059
ENCODING 89
SWIDTH 642 0
DWIDTH 50 0
BBX 46 54 2 0
BITMAP
FFF000001FFC
7FF000003FF8
7FF800003FF8
3FF800007FF0
3FFC00007FF0
1FFC0000FFE0
1FFE0000FFE0
0FFE0001FFC0
0FFF0001FFC0
07FF0003FF80
07FF0003FF80
03FF8007FF00
03FF8007FF00
01FFC00FFE00
01FFC00FFE00
00FFE01FFC00
00FFE01FFC00
007FF01FF800
007FF03FF800
003FF83FF000
003FF87FF000
001FFC7FE000
001FFCFFE000
000FFEFFC000
000FFFFFC000
0007FFFF8000
0007FFFF8000
0003FFFF0000
0001FFFF0000
0001FFFE0000
0000FFFE0000
0000FFFC0000
00007FFC0000
00007FF80000
00003FF80000
00003FF00000
00003FF00000
00003FF00000
00003FF00000
00003FF00000
00003FF00000
00003FF00000
00003FF00000
00003FF00000
00003FF00000
00003FF00000
00003FF00000
00003FF00000
00003FF00000
00003FF00000
00003FF00000
00003FF00000
00003FF00000
00003FF00000
ENDCHAR
STARTCHAR 005A
ENCODING 90
SWIDTH 617 0
DWIDTH 48 0
BBX 40 54 4 0
BITMAP
FFFFFFFFFF
FFFFFFFFFF
FFFFFFFFFF
FFFFFFFFFF
FFFFFFFFFF
FFFFFFFFFF
FFFFFFFFFF
FFFFFFFFFF
FFFFFFFFFF
0000001FFF
0000001FFE
0000003FFC
0000007FFC
000000FFF8
000001FFF0
000001FFE0
000003FFC0
000007FFC0
00000FFF80
00001FFF00
00001FFE00
00003FFC00
00007FFC00
0000FFF800
0001FFF000
0001FFE000
0003FFC000
0007FFC000
000FFF8000
001FFF0000
001FFE0000
003FFC0000
007FFC0000
00FFF80000
01FFF00000
01FFE00000
03FFC00000
07FFC00000
0FFF800000
1FFF000000
1FFE000000
3FFC000000
7FFC000000
FFF8000000
FFFFFFFFFF
FFFFFFFFFF
FFFFFFFFFF
FFFFFFFFFF
FFFFFFFFFF
FFFFFFFFFF
FFFFFFFFFF
FFFFFFFFFF
FFFFFFFFFF
FFFFFFFFFF
ENDCHAR
STARTCHAR 005B
ENCODING 91
SWIDTH 462 0
DWIDTH 36 0
BBX 25 79 6 -15
BITMAP
FFFFFF80
FFFFFF80
FFFFFF80
FFFFFF80
FFFFFF80
FFFFFF80
FFFFFF80
FFFFFF80
FF800000
FF800000
FF800000
FF800000
FF800000
FF800000
FF800000
FF800000
FF800000
FF800000
FF800000
FF800000
FF800000
FF800000
FF800000
FF800000
FF800000
FF800000
FF800000
FF800000
FF800000
FF800000
FF800000
FF800000
FF800000
FF800000
FF800000
FF800000
FF800000
FF800000
FF800000
FF800000
FF800000
FF800000
FF800000
FF800000
FF800000
FF800000
FF800000
FF800000
FF800000
FF800000
FF800000
FF800000
FF800000
FF800000
FF800000
FF800000
FF800000
FF800000
FF800000
FF800000
FF800000
FF800000
FF800000
FF800000
FF800000
FF800000
FF800000
FF800000
FF800000
FF800000
FF800000
FFFFFF80
FFFFFF80
FFFFFF80
FFFFFF80
FFFFFF80
FFFFFF80
FFFFFF80
FFFFFF80
ENDCHAR
STARTCHAR 005C
ENCODING 92
SWIDTH 527 0
DWIDTH 41 0
BBX 37 76 2 -15
BITMAP
FFE0000000
7FE0000000
7FE0000000
7FF0000000
3FF0000000
3FF0000000
3FF8000000
1FF8000000
1FF8000000
0FFC000000
0FFC000000
0FFC000000
07FE000000
07FE000000
07FE000000
03FF000000
03FF000000
03FF800000
01FF800000
01FF800000
01FFC00000
00FFC00000
00FFC00000
007FE00000
007FE00000
007FE00000
003FF00000
003FF00000
003FF00000
001FF80000
001FF80000
001FF80000
000FFC0000
000FFC0000
000FFE0000
0007FE0000
0007FE0000
0007FF0000
0003FF0000
0003FF0000
0001FF8000
0001FF8000
0001FF8000
0000FFC000
0000FFC000
0000FFC000
00007FE000
00007FE000
00007FF000
00003FF000
00003FF000
00003FF800
00001FF800
00001FF800
00001FFC00
00000FFC00
00000FFC00
000007FE00
000007FE00
000007FE00
000003FF00
000003FF00
000003FF00
000001FF80
000001FF80
000001FFC0
000000FFC0
000000FFC0
000000FFE0
0000007FE0
0000007FE0
0000007FF0
0000003FF0
0000003FF0
0000001FF8
0000001FF8
ENDCHAR
STARTCHAR 005D
ENCODING 93
SWIDTH 462 0
DWIDTH 36 0
BBX 25 79 5 -15
BITMAP
FFFFFF80
FFFFFF80
FFFFFF80
FFFFFF80
FFFFFF80
FFFFFF80
FFFFFF80
FFFFFF80
0000FF80
0000FF80
0000FF80
0000FF80
0000FF80
0000FF80
0000FF80
0000FF80
0000FF80
0000FF80
0000FF80
0000FF80
0000FF80
0000FF80
0000FF80
0000FF80
0000FF80
0000FF80
0000FF80
0000FF80
0000FF80
0000FF80
0000FF80
0000FF80
0000FF80
0000FF80
0000FF80
0000FF80
0000FF80
0000FF80
0000FF80
0000FF80
0000FF80
0000FF80
0000FF80
0000FF80
0000FF80
0000FF80
0000FF80
0000FF80
0000FF80
0000FF80
0000FF80
0000FF80
0000FF80
0000FF80
0000FF80
0000FF80
0000FF80
0000FF80
0000FF80
0000FF80
0000FF80
0000FF80
0000FF80
0000FF80
0000FF80
0000FF80
0000FF80
0000FF80
0000FF80
0000FF80
0000FF80
FFFFFF80
FFFFFF80
FFFFFF80
FFFFFF80
FFFFFF80
FFFFFF80
FFFFFF80
FFFFFF80
ENDCHAR
STARTCHAR 005E
ENCODING 94
SWIDTH 411 0
DWIDTH 32 0
BBX 30 15 1 44
BITMAP
00FFFC00
01FFFE00
01FFFE00
03FFFF00
03FFFF80
07FFFF80
07FCFFC0
0FFCFFC0
1FF87FE0
1FF87FE0
3FF03FF0
3FF01FF8
7FE01FF8
FFC00FFC
FFC00FFC
ENDCHAR
STARTCHAR 005F
ENCODING 95
SWIDTH 694 0
DWIDTH 54 0
BBX 38 8 8 0
BITMAP
FFFFFFFFFC
FFFFFFFFFC
FFFFFFFFFC
FFFFFFFFFC
FFFFFFFFFC
FFFFFFFFFC
FFFFFFFFFC
FFFFFFFFFC
ENDCHAR
STARTCHAR 0060
ENCODING 96
SWIDTH 295 0
DWIDTH 23 0
BBX 18 15 3 48
BITMAP
FFC000
FFE000
7FE000
3FF000
3FF000
1FF800
0FF800
0FFC00
07FC00
03FE00
03FE00
01FF00
00FF80
00FF80
007FC0
ENDCHAR
STARTCHAR 0061
ENCODING 97
SWIDTH 604 0
DWIDTH 47 0
BBX 40 43 3 -1
BITMAP
000FF80000
007FFE07FF
01FFFF87FF
03FFFFC7FF
07FFFFE7FF
0FFFFFE7FF
0FFFFFF7FF
1FFFFFFFFF
3FFFFFFFFF
3FFF00FFFF
3FFE007FFF
7FFC003FFF
7FF8001FFF
7FF0000FFF
FFF0000FFF
FFF0000FFF
FFE00007FF
FFE00007FF
FFE00007FF
FFE00007FF
FFE00007FF
FFE00007FF
FFE00007FF
FFE00007FF
FFE00007FF
FFE00007FF
FFE0000FFF
FFF0000FFF
FFF0000FFF
7FF8001FFF
7FF8001FFF
7FFC003FFF
3FFE007FFF
3FFF81FFFF
1FFFFFFFFF
1FFFFFF7FF
0FFFFFF7FF
07FFFFE7FF
07FFFFC7FF
01FFFF87FF
00FFFF07FF
003FFC07FF
0001C00000
ENDCHAR
STARTCHAR 0062
ENCODING 98
SWIDTH 604 0
DWIDTH 47 0
BBX 41 59 4 -1
BITMAP
FFE000000000
FFE000000000
FFE000000000
FFE000000000
FFE000000000
FFE000000000
FFE000000000
FFE000000000
FFE000000000
FFE000000000
FFE000000000
FFE000000000
FFE000000000
FFE000000000
FFE000000000
FFE000000000
FFE00FF80000
FFE07FFF0000
FFE0FFFF8000
FFE1FFFFC000
FFE3FFFFE000
FFE7FFFFF000
FFEFFFFFF800
FFFFFFFFFC00
FFFFFFFFFC00
FFFF80FFFE00
FFFE003FFE00
FFFC001FFE00
FFFC001FFF00
FFF8000FFF00
FFF8000FFF00
FFF00007FF00
FFF00007FF00
FFF00007FF00
FFE00003FF80
FFE00003FF80
FFE00003FF80
FFE00003FF80
FFE00003FF80
FFE00003FF80
FFE00007FF80
FFF00007FF00
FFF00007FF00
FFF00007FF00
FFF8000FFF00
FFF8000FFF00
FFFC001FFE00
FFFC001FFE00
FFFF003FFE00
FFFF80FFFC00
FFFFFFFFFC00
FFEFFFFFF800
FFE7FFFFF800
FFE7FFFFF000
FFE3FFFFE000
FFE1FFFFC000
FFE07FFF0000
FFE03FFC0000
000003C00000
ENDCHAR
STARTCHAR 0063
ENCODING 99
SWIDTH 565 0
DWIDTH 44 0
BBX 39 43 3 -1
BITMAP
0001FF8000
000FFFF000
003FFFFC00
00FFFFFF00
01FFFFFF80
03FFFFFFC0
07FFFFFFE0
0FFFFFFFE0
0FFFFFFFF0
1FFF00FFF8
3FFE007FF8
3FFC003FF8
3FF8001FFC
7FF0001FFC
7FF0000FFC
7FF0000FFE
7FE0000000
FFE0000000
FFE0000000
FFE0000000
FFE0000000
FFE0000000
FFE0000000
FFE0000000
FFE0000000
7FE0000000
7FE0000FFE
7FF0000FFC
7FF0000FFC
7FF8001FFC
3FF8001FFC
3FFC003FF8
1FFE007FF8
1FFF81FFF0
0FFFFFFFF0
0FFFFFFFE0
07FFFFFFC0
03FFFFFF80
01FFFFFF00
007FFFFE00
003FFFF800
000FFFE000
00007E0000
ENDCHAR
STARTCHAR 0064
ENCODING 100
SWIDTH 604 0
DWIDTH 47 0
BBX 40 59 3 -1
BITMAP
00000003FF
00000003FF
00000003FF
00000003FF
00000003FF
00000003FF
00000003FF
00000003FF
00000003FF
00000003FF
00000003FF
00000003FF
00000003FF
00000003FF
00000003FF
00000003FF
000FF803FF
007FFE03FF
00FFFF83FF
03FFFFC3FF
07FFFFE3FF
07FFFFF3FF
0FFFFFF3FF
1FFFFFFFFF
1FFFFFFFFF
3FFF80FFFF
3FFE007FFF
7FFC003FFF
7FF8001FFF
7FF8000FFF
7FF0000FFF
7FF00007FF
FFF00007FF
FFE00007FF
FFE00007FF
FFE00007FF
FFE00007FF
FFE00007FF
FFE00007FF
FFE00007FF
FFE00007FF
FFE00007FF
FFF00007FF
7FF00007FF
7FF0000FFF
7FF8000FFF
7FF8001FFF
3FFC003FFF
3FFE007FFF
3FFF81FFFF
1FFFFFFFFF
1FFFFFFBFF
0FFFFFF3FF
07FFFFE3FF
03FFFFC3FF
01FFFF83FF
00FFFF03FF
003FFE03FF
0001C00000
ENDCHAR
STARTCHAR 0065
ENCODING 101
SWIDTH 565 0
DWIDTH 44 0
BBX 39 43 3 -1
BITMAP
0001FF8000
000FFFF000
003FFFFC00
00FFFFFE00
01FFFFFF80
03FFFFFFC0
07FFFFFFC0
0FFFFFFFE0
0FFF01FFF0
1FFC007FF0
3FF8003FF8
3FF0001FF8
3FF0001FF8
7FF0000FFC
7FE0000FFC
7FE0000FFC
7FE0000FFC
FFFFFFFFFC
FFFFFFFFFE
FFFFFFFFFE
FFFFFFFFFE
FFFFFFFFFE
FFFFFFFFFE
FFFFFFFFFE
FFE0000000
FFE0000000
7FE0000000
7FE0000000
7FE0000000
7FF0001FFC
3FF0001FFC
3FF8003FF8
1FFC007FF8
1FFF01FFF0
0FFFFFFFF0
0FFFFFFFE0
07FFFFFFC0
03FFFFFF80
01FFFFFF00
007FFFFE00
003FFFF800
0007FFE000
00003C0000
ENDCHAR
STARTCHAR 0066
ENCODING 102
SWIDTH 385 0
DWIDTH 30 0
BBX 25 57 3 0
BITMAP
000FFF80
003FFF80
00FFFF80
00FFFF80
01FFFF80
03FFFF80
03FFFF80
03FFE000
07FF8000
07FF0000
07FF0000
07FF0000
07FF0000
07FF0000
07FF0000
07FF0000
FFFFFF80
FFFFFF80
FFFFFF80
FFFFFF80
FFFFFF80
FFFFFF80
FFFFFF80
FFFFFF80
07FF0000
07FF0000
07FF0000
07FF0000
07FF0000
07FF0000
07FF0000
07FF0000
07FF0000
07FF0000
07FF0000
07FF0000
07FF0000
07FF0000
07FF0000
07FF0000
07FF0000
07FF0000
07FF0000
07FF0000
07FF0000
07FF0000
07FF0000
07FF0000
07FF0000
07FF0000
07FF0000
07FF0000
07FF0000
07FF0000
07FF0000
07FF0000
07FF0000
ENDCHAR
STARTCHAR 0067
ENCODING 103
SWIDTH 604 0
DWIDTH 47 0
BBX 40 59 3 -17
BITMAP
000FF80000
007FFE03FF
00FFFF83FF
01FFFFC3FF
07FFFFE3FF
07FFFFF3FF
0FFFFFF3FF
1FFFFFFBFF
1FFFFFFFFF
3FFF00FFFF
3FFE003FFF
7FFC001FFF
7FF8001FFF
7FF8000FFF
7FF0000FFF
7FF00007FF
FFF00007FF
FFE00007FF
FFE00007FF
FFE00003FF
FFE00003FF
FFE00003FF
FFE00007FF
FFE00007FF
FFF00007FF
FFF00007FF
7FF00007FF
7FF8000FFF
7FF8000FFF
7FFC001FFF
3FFC003FFF
3FFF007FFF
3FFFC1FFFF
1FFFFFFFFF
0FFFFFFBFF
0FFFFFF3FF
07FFFFE3FF
03FFFFC3FF
01FFFFC3FF
00FFFF03FF
003FFC03FF
0001C007FF
00000007FF
00000007FF
00000007FF
0000000FFF
0000000FFE
0000001FFE
0000003FFE
000000FFFC
0003FFFFFC
0003FFFFF8
0003FFFFF8
0003FFFFF0
0003FFFFE0
0003FFFFC0
0003FFFF00
0003FFFC00
0001FFF000
ENDCHAR
STARTCHAR 0068
ENCODING 104
SWIDTH 591 0
DWIDTH 46 0
BBX 39 58 4 0
BITMAP
FFE0000000
FFE0000000
FFE0000000
FFE0000000
FFE0000000
FFE0000000
FFE0000000
FFE0000000
FFE0000000
FFE0000000
FFE0000000
FFE0000000
FFE0000000
FFE0000000
FFE0000000
FFE0000000
FFE00FF800
FFE07FFE00
FFE0FFFF80
FFE1FFFFC0
FFE3FFFFE0
FFE7FFFFF0
FFEFFFFFF0
FFFFFFFFF8
FFFFFFFFF8
FFFF01FFF8
FFFC007FFC
FFFC003FFC
FFF8003FFC
FFF0001FFC
FFF0001FFC
FFF0000FFE
FFE0000FFE
FFE0000FFE
FFE0000FFE
FFE0000FFE
FFE0000FFE
FFE0000FFE
FFE0000FFE
FFE0000FFE
FFE0000FFE
FFE0000FFE
FFE0000FFE
FFE0000FFE
FFE0000FFE
FFE0000FFE
FFE0000FFE
FFE0000FFE
FFE0000FFE
FFE0000FFE
FFE0000FFE
FFE0000FFE
FFE0000FFE
FFE0000FFE
FFE0000FFE
FFE0000FFE
FFE0000FFE
FFE0000FFE
ENDCHAR
STARTCHAR 0069
ENCODING 105
SWIDTH 282 0
DWIDTH 22 0
BBX 12 60 5 0
BITMAP
1F80
3FC0
7FE0
FFE0
FFF0
FFF0
FFF0
FFF0
7FE0
7FE0
3FC0
0F00
0000
0000
0000
0000
0000
0000
0000
7FE0
7FE0
7FE0
7FE0
7FE0
7FE0
7FE0
7FE0
7FE0
7FE0
7FE0
7FE0
7FE0
7FE0
7FE0
7FE0
7FE0
7FE0
7FE0
7FE0
7FE0
7FE0
7FE0
7FE0
7FE0
7FE0
7FE0
7FE0
7FE0
7FE0
7FE0
7FE0
7FE0
7FE0
7FE0
7FE0
7FE0
7FE0
7FE0
7FE0
7FE0
ENDCHAR
STARTCHAR 006A
ENCODING 106
SWIDTH 282 0
DWIDTH 22 0
BBX 21 78 -3 -18
BITMAP
000F80
003FE0
003FF0
007FF0
007FF8
007FF8
007FF8
007FF0
007FF0
003FE0
001FE0
000780
000000
000000
000000
000000
000000
000000
007FE0
007FE0
007FE0
007FE0
007FE0
007FE0
007FE0
007FE0
007FE0
007FE0
007FE0
007FE0
007FE0
007FE0
007FE0
007FE0
007FE0
007FE0
007FE0
007FE0
007FE0
007FE0
007FE0
007FE0
007FE0
007FE0
007FE0
007FE0
007FE0
007FE0
007FE0
007FE0
007FE0
007FE0
007FE0
007FE0
007FE0
007FE0
007FE0
007FE0
007FE0
007FE0
007FE0
007FE0
007FE0
007FE0
007FE0
007FE0
00FFE0
00FFE0
01FFE0
8FFFE0
FFFFE0
FFFFC0
FFFFC0
FFFF80
FFFF00
FFFE00
FFFC00
0FC000
ENDCHAR
STARTCHAR 006B
ENCODING 107
SWIDTH 552 0
DWIDTH 43 0
BBX 36 58 5 0
BITMAP
FFE0000000
FFE0000000
FFE0000000
FFE0000000
FFE0000000
FFE0000000
FFE0000000
FFE0000000
FFE0000000
FFE0000000
FFE0000000
FFE0000000
FFE0000000
FFE0000000
FFE0000000
FFE0000000
FFE0000000
FFE001FFE0
FFE003FFC0
FFE003FFC0
FFE007FF80
FFE00FFF00
FFE01FFE00
FFE03FFC00
FFE07FFC00
FFE07FF800
FFE0FFF000
FFE1FFE000
FFE3FFC000
FFE7FFC000
FFE7FF8000
FFEFFF0000
FFFFFE0000
FFFFFC0000
FFFFFC0000
FFFFF80000
FFFFF80000
FFFFFC0000
FFFFFE0000
FFEFFE0000
FFE7FF0000
FFE7FF8000
FFE3FF8000
FFE1FFC000
FFE1FFE000
FFE0FFE000
FFE07FF000
FFE07FF800
FFE03FFC00
FFE01FFC00
FFE01FFE00
FFE00FFF00
FFE00FFF00
FFE007FF80
FFE003FFC0
FFE003FFC0
FFE001FFE0
FFE000FFF0
ENDCHAR
STARTCHAR 006C
ENCODING 108
SWIDTH 334 0
DWIDTH 26 0
BBX 19 58 5 0
BITMAP
FFE000
FFE000
FFE000
FFE000
FFE000
FFE000
FFE000
FFE000
FFE000
FFE000
FFE000
FFE000
FFE000
FFE000
FFE000
FFE000
FFE000
FFE000
FFE000
FFE000
FFE000
FFE000
FFE000
FFE000
FFE000
FFE000
FFE000
FFE000
FFE000
FFE000
FFE000
FFE000
FFE000
FFE000
FFE000
FFE000
FFE000
FFE000
FFE000
FFE000
FFE000
FFE000
FFE000
FFE000
FFE000
FFE000
FFE000
FFE000
FFE000
FFF000
FFFF60
FFFFE0
7FFFE0
7FFFE0
3FFFE0
1FFFE0
0FFFE0
03FFE0
ENDCHAR
STARTCHAR 006D
ENCODING 109
SWIDTH 912 0
DWIDTH 71 0
BBX 63 42 4 0
BITMAP
00001FE00007FC00
FFE07FFC003FFF00
FFE1FFFE007FFF80
FFE1FFFF00FFFFC0
FFE3FFFF81FFFFE0
FFE7FFFFC3FFFFF0
FFEFFFFFE7FFFFF8
FFEFFFFFE7FFFFF8
FFFFFFFFFFFFFFFC
FFFF87FFFFE1FFFC
FFFE01FFFF807FFC
FFFC00FFFF003FFE
FFF8007FFE001FFE
FFF0003FFC000FFE
FFF0003FFC000FFE
FFE0003FFC000FFE
FFE0003FF8000FFE
FFE0003FF80007FE
FFE0003FF80007FE
FFE0003FF80007FE
FFE0003FF80007FE
FFE0003FF80007FE
FFE0003FF80007FE
FFE0003FF80007FE
FFE0003FF80007FE
FFE0003FF80007FE
FFE0003FF80007FE
FFE0003FF80007FE
FFE0003FF80007FE
FFE0003FF80007FE
FFE0003FF80007FE
FFE0003FF80007FE
FFE0003FF80007FE
FFE0003FF80007FE
FFE0003FF80007FE
FFE0003FF80007FE
FFE0003FF80007FE
FFE0003FF80007FE
FFE0003FF80007FE
FFE0003FF80007FE
FFE0003FF80007FE
FFE0003FF80007FE
ENDCHAR
STARTCHAR 006E
ENCODING 110
SWIDTH 591 0
DWIDTH 46 0
BBX 39 42 4 0
BITMAP
00000FF800
FFE07FFE00
FFE0FFFF80
FFE1FFFFC0
FFE3FFFFE0
FFE7FFFFF0
FFEFFFFFF0
FFFFFFFFF8
FFFFFFFFF8
FFFF01FFF8
FFFC007FFC
FFF8003FFC
FFF8003FFC
FFF0001FFC
FFF0001FFC
FFF0000FFE
FFE0000FFE
FFE0000FFE
FFE0000FFE
FFE0000FFE
FFE0000FFE
FFE0000FFE
FFE0000FFE
FFE0000FFE
FFE0000FFE
FFE0000FFE
FFE0000FFE
FFE0000FFE
FFE0000FFE
FFE0000FFE
FFE0000FFE
FFE0000FFE
FFE0000FFE
FFE0000FFE
FFE0000FFE
FFE0000FFE
FFE0000FFE
FFE0000FFE
FFE0000FFE
FFE0000FFE
FFE0000FFE
FFE0000FFE
ENDCHAR
STARTCHAR 006F
ENCODING 111
SWIDTH 578 0
DWIDTH 45 0
BBX 39 43 3 -1
BITMAP
0001FF8000
000FFFF000
003FFFFC00
00FFFFFF00
01FFFFFF80
03FFFFFFC0
07FFFFFFE0
0FFFFFFFE0
1FFFFFFFF0
1FFF00FFF8
3FFC007FF8
3FFC003FFC
3FF8001FFC
7FF0001FFC
7FF0000FFE
7FF0000FFE
7FE0000FFE
FFE00007FE
FFE00007FE
FFE00007FE
FFE00007FE
FFE00007FE
FFE00007FE
FFE00007FE
FFE00007FE
FFE0000FFE
7FE0000FFE
7FF0000FFE
7FF0000FFC
7FF8001FFC
3FF8003FFC
3FFC003FF8
1FFE007FF8
1FFF81FFF0
0FFFFFFFF0
0FFFFFFFE0
07FFFFFFC0
03FFFFFF80
01FFFFFF00
007FFFFE00
003FFFF800
0007FFE000
00003E0000
ENDCHAR
STARTCHAR 0070
ENCODING 112
SWIDTH 617 0
DWIDTH 48 0
BBX 41 58 4 -16
BITMAP
00000FF80000
FFE07FFF0000
FFE0FFFF8000
FFE1FFFFC000
FFE3FFFFE000
FFE7FFFFF000
FFEFFFFFF800
FFFFFFFFFC00
FFFFFFFFFC00
FFFF80FFFE00
FFFE003FFE00
FFFC001FFE00
FFFC001FFF00
FFF8000FFF00
FFF8000FFF00
FFF00007FF00
FFF00007FF00
FFF00007FF00
FFE00003FF80
FFE00003FF80
FFE00003FF80
FFE00003FF80
FFE00003FF80
FFE00003FF80
FFE00007FF80
FFF00007FF00
FFF00007FF00
FFF00007FF00
FFF8000FFF00
FFF8000FFF00
FFFC001FFE00
FFFC001FFE00
FFFF003FFE00
FFFF80FFFC00
FFFFFFFFFC00
FFEFFFFFF800
FFE7FFFFF800
FFE7FFFFF000
FFE3FFFFE000
FFE1FFFFC000
FFE07FFF0000
FFE03FFC0000
FFE003C00000
FFE000000000
FFE000000000
FFE000000000
FFE000000000
FFE000000000
FFE000000000
FFE000000000
FFE000000000
FFE000000000
FFE000000000
FFE000000000
FFE000000000
FFE000000000
FFE000000000
FFE000000000
ENDCHAR
STARTCHAR 0071
ENCODING 113
SWIDTH 617 0
DWIDTH 48 0
BBX 40 58 4 -16
BITMAP
001FF80000
007FFE07FF
01FFFF07FF
03FFFFC7FF
07FFFFC7FF
0FFFFFE7FF
1FFFFFF7FF
1FFFFFFFFF
3FFFFFFFFF
3FFF01FFFF
7FFC007FFF
7FFC003FFF
7FF8001FFF
FFF0001FFF
FFF0000FFF
FFE0000FFF
FFE0000FFF
FFE00007FF
FFE00007FF
FFE00007FF
FFE00007FF
FFE00007FF
FFE00007FF
FFE00007FF
FFE00007FF
FFE00007FF
FFE0000FFF
FFE0000FFF
FFF0000FFF
FFF0001FFF
7FF8001FFF
7FFC003FFF
7FFE007FFF
3FFF01FFFF
3FFFFFFFFF
1FFFFFF7FF
0FFFFFE7FF
0FFFFFE7FF
07FFFFC7FF
03FFFF87FF
00FFFF07FF
003FFC07FF
0005C007FF
00000007FF
00000007FF
00000007FF
00000007FF
00000007FF
00000007FF
00000007FF
00000007FF
00000007FF
00000007FF
00000007FF
00000007FF
00000007FF
00000007FF
00000007FF
ENDCHAR
STARTCHAR 0072
ENCODING 114
SWIDTH 385 0
DWIDTH 30 0
BBX 24 41 5 0
BITMAP
FFC03F
FFC1FF
FFC3FF
FFC7FF
FFCFFF
FFDFFF
FFFFFF
FFFFFF
FFFFFF
FFFFFF
FFFE00
FFF800
FFF000
FFF000
FFE000
FFE000
FFE000
FFE000
FFC000
FFC000
FFC000
FFC000
FFC000
FFC000
FFC000
FFC000
FFC000
FFC000
FFC000
FFC000
FFC000
FFC000
FFC000
FFC000
FFC000
FFC000
FFC000
FFC000
FFC000
FFC000
FFC000
ENDCHAR
STARTCHAR 0073
ENCODING 115
SWIDTH 488 0
DWIDTH 38 0
BBX 33 43 3 -1
BITMAP
001FF80000
00FFFF0000
03FFFFC000
07FFFFF000
0FFFFFF800
1FFFFFFC00
3FFFFFFC00
3FFFFFFE00
3FF81FFE00
7FE00FFF00
7FE007FF00
7FE007FF00
7FE003FF00
7FE0000000
7FE0000000
7FF8000000
3FFE000000
3FFFF00000
1FFFFF0000
1FFFFFC000
0FFFFFF000
03FFFFF800
01FFFFFC00
007FFFFE00
0007FFFF00
00003FFF00
000007FF00
000003FF80
FFE003FF80
FFE001FF80
FFE001FF80
FFE003FF80
7FF003FF00
7FF80FFF00
7FFFFFFF00
3FFFFFFE00
1FFFFFFE00
1FFFFFFC00
0FFFFFF800
03FFFFF000
01FFFFC000
003FFF0000
0001C00000
ENDCHAR
STARTCHAR 0074
ENCODING 116
SWIDTH 411 0
DWIDTH 32 0
BBX 27 54 2 0
BITMAP
01FFC000
01FFC000
01FFC000
01FFC000
01FFC000
01FFC000
01FFC000
01FFC000
01FFC000
01FFC000
01FFC000
01FFC000
01FFC000
FFFFFFE0
FFFFFFE0
FFFFFFE0
FFFFFFE0
FFFFFFE0
FFFFFFE0
FFFFFFE0
FFFFFFE0
01FFC000
01FFC000
01FFC000
01FFC000
01FFC000
01FFC000
01FFC000
01FFC000
01FFC000
01FFC000
01FFC000
01FFC000
01FFC000
01FFC000
01FFC000
01FFC000
01FFC000
01FFC000
01FFC000
01FFC000
01FFC000
01FFC000
01FFC000
01FFC000
01FFE000
01FFFEE0
01FFFFE0
00FFFFE0
00FFFFE0
007FFFE0
003FFFE0
001FFFE0
0007FFE0
ENDCHAR
STARTCHAR 0075
ENCODING 117
SWIDTH 578 0
DWIDTH 45 0
BBX 38 42 4 -1
BITMAP
FFE0001FFC
FFE0001FFC
FFE0001FFC
FFE0001FFC
FFE0001FFC
FFE0001FFC
FFE0001FFC
FFE0001FFC
FFE0001FFC
FFE0001FFC
FFE0001FFC
FFE0001FFC
FFE0001FFC
FFE0001FFC
FFE0001FFC
FFE0001FFC
FFE0001FFC
FFE0001FFC
FFE0001FFC
FFE0001FFC
FFE0001FFC
FFE0001FFC
FFE0001FFC
FFE0001FFC
FFE0001FFC
FFE0001FFC
FFF0001FFC
7FF0003FFC
7FF0003FFC
7FF8007FFC
7FF8007FFC
7FFE00FFFC
3FFF83FFFC
3FFFFFFFFC
3FFFFFDFFC
1FFFFFDFFC
0FFFFF9FFC
0FFFFF1FFC
07FFFE1FFC
03FFFC1FFC
00FFF81FFC
001F800000
ENDCHAR
STARTCHAR 0076
ENCODING 118
SWIDTH 552 0
DWIDTH 43 0
BBX 40 41 2 0
BITMAP
FFC00007FF
FFC00007FE
FFE00007FE
7FE0000FFE
7FE0000FFC
7FE0000FFC
3FF0001FFC
3FF0001FF8
3FF0001FF8
1FF8003FF8
1FF8003FF0
1FF8003FF0
0FFC003FF0
0FFC007FE0
0FFC007FE0
07FE007FE0
07FE00FFC0
07FE00FFC0
03FF00FFC0
03FF01FF80
03FF01FF80
01FF81FF80
01FF83FF00
01FF83FF00
00FFC3FF00
00FFC7FE00
00FFC7FE00
007FE7FE00
007FEFFC00
007FEFFC00
003FFFFC00
003FFFF800
003FFFF800
001FFFF800
001FFFF000
001FFFF000
000FFFF000
000FFFE000
000FFFE000
0007FFE000
0007FFC000
ENDCHAR
STARTCHAR 0077
ENCODING 119
SWIDTH 822 0
DWIDTH 64 0
BBX 60 41 2 0
BITMAP
FFC0007FE0003FF0
FFC0007FE0003FF0
FFC0007FE0003FF0
FFC000FFF0003FF0
7FE000FFF0007FE0
7FE000FFF0007FE0
7FE001FFF8007FE0
3FE001FFF8007FE0
3FF001FFF800FFC0
3FF001FFFC00FFC0
3FF003FFFC00FFC0
1FF003FFFC00FFC0
1FF803FFFC00FF80
1FF807FFFE01FF80
1FF807FFFE01FF80
0FF807FFFE01FF00
0FFC07FFFF01FF00
0FFC0FFDFF03FF00
0FFC0FF9FF03FF00
07FC0FF9FF03FE00
07FC1FF9FF83FE00
07FE1FF0FF87FE00
07FE1FF0FF87FE00
03FE1FF0FFC7FC00
03FE3FF07FC7FC00
03FF3FE07FC7FC00
01FF3FE07FCFFC00
01FF7FE07FEFF800
01FF7FE03FEFF800
01FFFFC03FFFF800
00FFFFC03FFFF800
00FFFFC03FFFF000
00FFFFC01FFFF000
00FFFF801FFFF000
007FFF801FFFF000
007FFF801FFFE000
007FFF000FFFE000
007FFF000FFFE000
003FFF000FFFE000
003FFF0007FFC000
003FFE0007FFC000
ENDCHAR
STARTCHAR 0078
ENCODING 120
SWIDTH 565 0
DWIDTH 44 0
BBX 39 41 2 0
BITMAP
FFF0001FFE
7FF8001FFE
3FF8003FFC
3FFC003FF8
1FFC007FF8
1FFE007FF0
0FFE00FFE0
07FF00FFE0
07FF81FFC0
03FF83FFC0
03FFC3FF80
01FFC7FF00
00FFE7FF00
00FFEFFE00
007FFFFC00
003FFFFC00
003FFFF800
001FFFF800
001FFFF000
000FFFE000
0007FFE000
000FFFE000
001FFFF000
001FFFF800
003FFFF800
007FFFFC00
007FFFFE00
00FFEFFE00
00FFE7FF00
01FFC7FF00
03FFC3FF80
03FF83FFC0
07FF81FFC0
07FF00FFE0
0FFE00FFE0
1FFE007FF0
1FFC007FF8
3FFC003FF8
3FF8003FFC
7FF8001FFE
FFF0001FFE
ENDCHAR
STARTCHAR 0079
ENCODING 121
SWIDTH 540 0
DWIDTH 42 0
BBX 40 58 2 -17
BITMAP
FFE00007FF
FFE00007FE
7FE0000FFE
7FF0000FFE
7FF0000FFC
3FF0001FFC
3FF8001FFC
3FF8001FF8
1FF8003FF8
1FFC003FF0
0FFC003FF0
0FFC007FF0
0FFC007FE0
07FE007FE0
07FE00FFC0
07FE00FFC0
03FF00FFC0
03FF01FF80
03FF01FF80
01FF81FF80
01FF83FF00
00FF83FF00
00FFC3FE00
00FFC7FE00
007FC7FE00
007FE7FC00
007FEFFC00
003FEFF800
003FFFF800
001FFFF800
001FFFF000
001FFFF000
000FFFF000
000FFFE000
000FFFE000
0007FFC000
0007FFC000
0007FFC000
0003FF8000
0003FF8000
0003FF0000
0003FF0000
0007FF0000
0007FE0000
0007FE0000
000FFC0000
000FFC0000
001FFC0000
003FF80000
007FF80000
7FFFF00000
7FFFF00000
7FFFE00000
7FFFC00000
7FFF800000
7FFF000000
7FFE000000
7FF8000000
ENDCHAR
STARTCHAR 007A
ENCODING 122
SWIDTH 488 0
DWIDTH 38 0
BBX 31 41 4 0
BITMAP
7FFFFFFE
7FFFFFFE
7FFFFFFE
7FFFFFFE
7FFFFFFE
7FFFFFFE
7FFFFFFE
7FFFFFFE
00000FFE
00001FFC
00003FF8
00007FF8
00007FF0
0000FFE0
0001FFC0
0003FF80
0007FF80
000FFF00
000FFE00
001FFC00
003FF800
007FF000
00FFF000
01FFE000
01FFC000
03FF8000
07FF0000
0FFE0000
1FFE0000
3FFC0000
3FF80000
7FF00000
FFE00000
FFFFFFFE
FFFFFFFE
FFFFFFFE
FFFFFFFE
FFFFFFFE
FFFFFFFE
FFFFFFFE
FFFFFFFE
ENDCHAR
STARTCHAR 007B
ENCODING 123
SWIDTH 437 0
DWIDTH 34 0
BBX 24 85 6 -19
BITMAP
0001FF
000FFF
003FFF
007FFF
00FFFF
00FFFF
01FFFF
01FFFF
01FF80
03FF00
03FF00
03FF00
03FE00
03FE00
03FE00
03FE00
03FE00
03FE00
03FE00
03FE00
03FE00
03FE00
03FE00
03FE00
03FE00
03FE00
03FE00
03FE00
03FE00
03FE00
03FE00
03FE00
03FE00
03FE00
03FE00
03FE00
03FE00
03FE00
07FC00
0FFC00
FFF800
FFF000
FFC000
FFE000
FFF800
1FFC00
07FC00
03FE00
03FE00
03FE00
03FE00
03FE00
03FE00
03FE00
03FE00
03FE00
03FE00
03FE00
03FE00
03FE00
03FE00
03FE00
03FE00
03FE00
03FE00
03FE00
03FE00
03FE00
03FE00
03FE00
03FE00
03FE00
03FE00
03FF00
03FF00
03FF00
01FF80
01FFE0
01FFFF
00FFFF
00FFFF
007FFF
003FFF
000FFF
0003FF
ENDCHAR
STARTCHAR 007C
ENCODING 124
SWIDTH 295 0
DWIDTH 23 0
BBX 9 94 7 -20
BITMAP
FF80
FF80
FF80
FF80
FF80
FF80
FF80
FF80
FF80
FF80
FF80
FF80
FF80
FF80
FF80
FF80
FF80
FF80
FF80
FF80
FF80
FF80
FF80
FF80
FF80
FF80
FF80
FF80
FF80
FF80
FF80
FF80
FF80
FF80
FF80
FF80
FF80
FF80
FF80
FF80
FF80
FF80
FF80
FF80
FF80
FF80
FF80
FF80
FF80
FF80
FF80
FF80
FF80
FF80
FF80
FF80
FF80
FF80
FF80
FF80
FF80
FF80
FF80
FF80
FF80
FF80
FF80
FF80
FF80
FF80
FF80
FF80
FF80
FF80
FF80
FF80
FF80
FF80
FF80
FF80
FF80
FF80
FF80
FF80
FF80
FF80
FF80
FF80
FF80
FF80
FF80
FF80
FF80
FF80
ENDCHAR
STARTCHAR 007D
ENCODING 125
SWIDTH 450 0
DWIDTH 35 0
BBX 24 85 7 -19
BITMAP
FF8000
FFF000
FFFC00
FFFE00
FFFF00
FFFF00
FFFF80
FFFF80
01FF80
00FFC0
00FFC0
007FC0
007FC0
007FC0
007FC0
007FC0
007FC0
007FC0
007FC0
007FC0
007FC0
007FC0
007FC0
007FC0
007FC0
007FC0
007FC0
007FC0
007FC0
007FC0
007FC0
007FC0
007FC0
007FC0
007FC0
007FC0
007FC0
007FC0
003FE0
003FF0
001FFF
000FFF
0003FF
0007FF
001FFF
003FFC
003FE0
003FC0
007FC0
007FC0
007FC0
007FC0
007FC0
007FC0
007FC0
007FC0
007FC0
007FC0
007FC0
007FC0
007FC0
007FC0
007FC0
007FC0
007FC0
007FC0
007FC0
007FC0
007FC0
007FC0
007FC0
007FC0
007FC0
007FC0
00FFC0
00FFC0
00FF80
07FF80
FFFF80
FFFF00
FFFF00
FFFE00
FFFC00
FFF000
FFC000
ENDCHAR
STARTCHAR 007E
ENCODING 126
SWIDTH 591 0
DWIDTH 46 0
BBX 31 11 8 24
BITMAP
0040007E
07FE007E
1FFF80FE
3FFFFBFC
3FFFFFFC
7FFFFFFC
7FFFFFF8
7F1FFFF0
FE03FFF0
FC00FFC0
FC000000
ENDCHAR
STARTCHAR 00A0
ENCODING 160
SWIDTH 218 0
DWIDTH 17 0
BBX 0 0 0 0
BITMAP
ENDCHAR
STARTCHAR 00A1
ENCODING 161
SWIDTH 270 0
DWIDTH 21 0
BBX 12 57 5 -19
BITMAP
1F80
3FC0
7FE0
FFE0
FFF0
FFF0
FFF0
FFE0
7FE0
3FC0
1F80
0000
0000
0000
0000
0000
0000
0000
3FC0
3FC0
3FC0
3FC0
3FC0
3FC0
3FC0
3FC0
7FC0
7FC0
7FC0
7FC0
7FC0
7FC0
7FC0
7FC0
7FC0
7FC0
7FE0
7FE0
7FE0
7FE0
7FE0
7FE0
7FE0
7FE0
7FE0
7FE0
7FE0
7FE0
FFE0
FFE0
FFE0
FFE0
FFE0
FFE0
FFE0
FFE0
FFE0
ENDCHAR
STARTCHAR 00A2
ENCODING 162
SWIDTH 591 0
DWIDTH 46 0
BBX 39 52 3 -5
BITMAP
0000380000
0000380000
0000380000
0000380000
0000380000
0001FF8000
000FFFF000
003FFFFC00
00FFFFFF00
01FFFFFF80
03FFFFFFC0
07FFFFFFE0
0FFFFFFFE0
0FFFFFFFF0
1FFF38FFF8
3FFE387FF8
3FFC383FF8
3FF8381FFC
7FF0381FFC
7FF0380FFC
7FF0380FFE
7FE0380000
FFE0380000
FFE0380000
FFE0380000
FFE0380000
FFE0380000
FFE0380000
FFE0380000
FFE0380000
FFE0380000
7FE0380FFE
7FF0380FFC
7FF0380FFC
7FF8381FFC
3FF8381FFC
3FFC383FF8
1FFE387FF8
1FFFB9FFF0
0FFFFFFFF0
07FFFFFFE0
07FFFFFFC0
03FFFFFF80
01FFFFFF00
007FFFFE00
003FFFFC00
000FFFE000
0000FE0000
0000380000
0000380000
0000380000
0000380000
ENDCHAR
STARTCHAR 00A3
ENCODING 163
SWIDTH 617 0
DWIDTH 48 0
BBX 42 56 3 0
BITMAP
00001E000000
0007FFF80000
003FFFFF0000
007FFFFFC000
01FFFFFFE000
03FFFFFFF000
07FFFFFFF800
0FFFFFFFFC00
0FFFFFFFFE00
1FFFE0FFFE00
1FFF803FFF00
1FFE001FFF00
3FFE000FFF00
3FFC000FFF00
3FFC0007FF80
3FFC0007FF80
3FFC0007FF80
3FFC0007FF80
3FFC00000000
3FFE00000000
1FFE00000000
1FFF00000000
1FFF80000000
0FFF80000000
0FFFC0000000
07FFE0000000
03FFE0000000
03FFF0000000
01FFF0000000
00FFF8000000
7FFFFFFE0000
7FFFFFFE0000
7FFFFFFE0000
7FFFFFFE0000
7FFFFFFE0000
7FFFFFFE0000
001FFC000000
001FFC000000
001FF8000000
001FF8000000
001FF8000000
001FF0000000
003FF0000000
003FE0000000
007FC0000000
01FF00000000
07FC00000000
FFFFFFFFFFC0
FFFFFFFFFFC0
FFFFFFFFFFC0
FFFFFFFFFFC0
FFFFFFFFFFC0
FFFFFFFFFFC0
FFFFFFFFFFC0
FFFFFFFFFFC0
FFFFFFFFFFC0
ENDCHAR
STARTCHAR 00A4
ENCODING 164
SWIDTH 617 0
DWIDTH 48 0
BBX 41 45 4 5
BITMAP
040000001000
0E0000003800
1E0000007C00
3F001C00FE00
7F83FFE1FF00
FFCFFFF9FF80
7FFFFFFFFF00
3FFFFFFFFE00
1FFFFFFFFC00
0FFFFFFFF800
0FFFFFFFF000
07FFF7FFF000
0FFF007FF800
0FFC001FF800
1FF8000FFC00
1FF00007FC00
3FE00003FE00
3FC00003FE00
3FC00001FE00
3FC00001FE00
7F800001FF00
7F800001FF00
7F800000FF00
7F800001FF00
7F800001FF00
3FC00001FE00
3FC00001FE00
3FC00003FE00
3FE00003FE00
1FF00007FC00
1FF8000FFC00
1FFC001FF800
0FFE007FF800
07FFE3FFF000
0FFFFFFFF800
1FFFFFFFFC00
3FFFFFFFFE00
7FFFFFFFFE00
FFFFFFFFFF00
FFCFFFF9FF80
7F83FFE0FF00
3F003E007E00
1E0000003C00
0C0000001800
000000001000
ENDCHAR
STARTCHAR 00A5
ENCODING 165
SWIDTH 642 0
DWIDTH 50 0
BBX 46 54 2 0
BITMAP
FFF000001FFC
7FF000003FF8
7FF800003FF8
3FF800007FF0
3FFC00007FF0
1FFC0000FFE0
1FFE0000FFE0
0FFE0001FFC0
0FFF0001FFC0
07FF0003FF80
07FF0003FF80
03FF8007FF00
03FF8007FF00
01FFC00FFE00
01FFC00FFE00
00FFE01FFC00
00FFE01FFC00
007FF01FF800
007FF03FF800
003FF83FF000
003FF87FF000
001FFC7FE000
001FFCFFE000
000FFEFFC000
000FFFFFC000
0007FFFF8000
0003FFFF8000
0003FFFF0000
0001FFFF0000
0001FFFE0000
0000FFFE0000
0000FFFC0000
00FFFFFFFC00
00FFFFFFFC00
00FFFFFFFC00
00FFFFFFFC00
00FFFFFFFC00
00003FF00000
00003FF00000
00003FF00000
00003FF00000
00FFFFFFFC00
00FFFFFFFC00
00FFFFFFFC00
00FFFFFFFC00
00FFFFFFFC00
00003FF00000
00003FF00000
00003FF00000
00003FF00000
00003FF00000
00003FF00000
00003FF00000
00003FF00000
ENDCHAR
STARTCHAR 00A6
ENCODING 166
SWIDTH 295 0
DWIDTH 23 0
BBX 9 94 7 -20
BITMAP
FF80
FF80
FF80
FF80
FF80
FF80
FF80
FF80
FF80
FF80
FF80
FF80
FF80
FF80
FF80
FF80
FF80
FF80
FF80
FF80
FF80
FF80
FF80
FF80
FF80
FF80
FF80
FF80
FF80
FF80
FF80
FF80
FF80
FF80
FF80
FF80
FF80
FF80
FF80
FF80
FF80
FF80
0000
0000
0000
0000
0000
0000
0000
0000
0000
0000
0000
0000
0000
FF80
FF80
FF80
FF80
FF80
FF80
FF80
FF80
FF80
FF80
FF80
FF80
FF80
FF80
FF80
FF80
FF80
FF80
FF80
FF80
FF80
FF80
FF80
FF80
FF80
FF80
FF80
FF80
FF80
FF80
FF80
FF80
FF80
FF80
FF80
FF80
FF80
FF80
FF80
ENDCHAR
STARTCHAR 00A7
ENCODING 167
SWIDTH 552 0
DWIDTH 43 0
BBX 37 57 3 -1
BITMAP
0000300000
001FFF8000
007FFFF000
01FFFFF800
03FFFFFE00
07FFFFFF00
0FFFFFFF00
0FFFFFFF80
1FFF0FFFC0
1FFC03FFC0
1FF801FFE0
1FF800FFE0
1FF800FFE0
1FF8000000
1FFC000000
1FFF000000
0FFFF00000
07FFFF8000
03FFFFF000
07FFFFFC00
1FFFFFFF00
3FFFFFFFC0
3FFFFFFFE0
7FFFFFFFF0
7FE03FFFF0
FFE001FFF8
FFC0007FF8
FFC0003FF8
7FE0001FF8
7FE0001FF8
7FF8001FF8
7FFF003FF8
3FFFF83FF8
1FFFFFFFF8
0FFFFFFFF0
07FFFFFFE0
03FFFFFFC0
00FFFFFF80
001FFFFF80
0003FFFF80
00003FFFC0
000003FFC0
000000FFE0
7FF000FFE0
7FF000FFE0
7FF800FFE0
3FF800FFE0
3FFE01FFE0
1FFFFFFFC0
1FFFFFFFC0
0FFFFFFF80
07FFFFFF80
03FFFFFF00
01FFFFFC00
007FFFF800
001FFFE000
0000FE0000
ENDCHAR
STARTCHAR 00A8
ENCODING 168
SWIDTH 462 0
DWIDTH 36 0
BBX 32 12 3 48
BITMAP
1F8001F0
3FC007FC
7FE007FE
FFE00FFE
FFF00FFE
FFF00FFF
FFF00FFF
FFF00FFE
FFE00FFE
7FE007FC
3FC003FC
0F0000F0
ENDCHAR
STARTCHAR 00A9
ENCODING 169
SWIDTH 797 0
DWIDTH 62 0
BBX 56 56 3 -1
BITMAP
000003FFF00000
00003FFFFE0000
0000FFFFFFC000
0003FFFFFFF000
000FFFFFFFF800
001FFFFFFFFC00
003FFF80FFFF00
00FFF8000FFF80
01FFC00001FFC0
01FF8000007FC0
03FE0000003FE0
07FC0000001FF0
0FF80018000FF0
0FF001FFE007F8
1FE007FFF803F8
1FC01FFFFC01FC
1FC03FFFFE01FC
3F807FFFFF00FE
3F80FFE3FF80FE
7F00FF007FC0FE
7F01FE001FC07F
7F01FC000FE07F
7E03F8000FE07F
7E03F80007E03F
FE03F00000003F
FE07F00000003F
FE07F00000003F
FE07F00000003F
FE07F00000003F
FE07F00000003F
FE07F00000003F
FE03F00004003F
7E03F80007E03F
7E03F8000FE07F
7F01FC000FE07F
7F01FE001FC07E
3F00FF007FC0FE
3F80FFF7FF80FE
3F807FFFFF01FE
1FC03FFFFE01FC
1FE01FFFFC03FC
1FE007FFF803F8
0FF001FFE007F8
07F80000000FF0
07FC0000001FF0
03FE0000003FE0
01FF800000FFC0
00FFE00001FF80
007FF8000FFF00
003FFFF3FFFE00
001FFFFFFFFC00
000FFFFFFFF800
0003FFFFFFE000
0000FFFFFF8000
00003FFFFE0000
000003FFE00000
ENDCHAR
STARTCHAR 00AA
ENCODING 170
SWIDTH 167 0
DWIDTH 13 0
BBX 11 11 1 30
BITMAP
7DE0
7FE0
FFE0
F1E0
F1E0
F1E0
F1E0
F1E0
FFE0
FFE0
7DE0
ENDCHAR
STARTCHAR 00AB
ENCODING 171
SWIDTH 694 0
DWIDTH 54 0
BBX 49 34 3 7
BITMAP
0001FF8003FF00
0003FF0007FE00
0007FE000FFC00
000FFC001FFC00
001FF8003FF800
003FF8007FF000
007FF000FFE000
00FFE000FFC000
01FFC001FF8000
01FF8003FF0000
03FF0007FE0000
07FE000FFE0000
0FFC001FFC0000
1FFC003FF80000
3FF8007FF00000
7FF000FFE00000
FFE001FFC00000
7FE000FFC00000
7FF0007FE00000
3FF8003FF00000
1FFC003FF80000
0FFE001FFC0000
07FF000FFE0000
03FF0007FF0000
01FF8003FF8000
00FFC001FF8000
007FE000FFC000
003FF0007FE000
001FF8003FF000
001FFC001FF800
000FFE001FFC00
0007FE000FFE00
0003FF0007FF00
0001FF8003FF80
ENDCHAR
STARTCHAR 00AC
ENCODING 172
SWIDTH 642 0
DWIDTH 50 0
BBX 39 21 6 20
BITMAP
FFFFFFFFFE
FFFFFFFFFE
FFFFFFFFFE
FFFFFFFFFE
FFFFFFFFFE
FFFFFFFFFE
FFFFFFFFFE
FFFFFFFFFE
00000003FE
00000003FE
00000003FE
00000003FE
00000003FE
00000003FE
00000003FE
00000003FE
00000003FE
00000003FE
00000003FE
00000003FE
00000003FE
ENDCHAR
STARTCHAR 00AD
ENCODING 173
SWIDTH 591 0
DWIDTH 46 0
BBX 28 9 9 20
BITMAP
FFFFFFF0
FFFFFFF0
FFFFFFF0
FFFFFFF0
FFFFFFF0
FFFFFFF0
FFFFFFF0
FFFFFFF0
FFFFFFF0
ENDCHAR
STARTCHAR 00AE
ENCODING 174
SWIDTH 334 0
DWIDTH 26 0
BBX 20 19 3 35
BITMAP
03FE00
0FFF00
1F0F80
3C01C0
3800E0
71F8E0
719C70
618C70
619C70
E1F870
61B870
719870
719C60
798CE0
3801E0
1E03C0
1FFF80
07FF00
01FC00
ENDCHAR
STARTCHAR 00AF
ENCODING 175
SWIDTH 372 0
DWIDTH 29 0
BBX 25 5 2 50
BITMAP
FFFFFF80
FFFFFF80
FFFFFF80
FFFFFF80
FFFFFF80
ENDCHAR
STARTCHAR 00B0
ENCODING 176
SWIDTH 321 0
DWIDTH 25 0
BBX 17 17 4 51
BITMAP
07F800
1FFC00
3FFE00
3FFF00
7FFF00
7C1F80
FC0F80
F80F80
F80F80
F80F80
7C1F80
7F3F80
7FFF00
3FFE00
1FFC00
07F800
00C000
ENDCHAR
STARTCHAR 00B1
ENCODING 177
SWIDTH 591 0
DWIDTH 46 0
BBX 33 46 7 0
BITMAP
000FF80000
000FF80000
000FF80000
000FF80000
000FF80000
000FF80000
000FF80000
000FF80000
000FF80000
000FF80000
000FF80000
FFFFFFFF80
FFFFFFFF80
FFFFFFFF80
FFFFFFFF80
FFFFFFFF80
FFFFFFFF80
FFFFFFFF80
FFFFFFFF80
FFFFFFFF80
FFFFFFFF80
000FF80000
000FF80000
000FF80000
000FF80000
000FF80000
000FF80000
000FF80000
000FF80000
000FF80000
000FF80000
000FF80000
0000000000
0000000000
0000000000
0000000000
0000000000
0000000000
0000000000
FFFFFFFF80
FFFFFFFF80
FFFFFFFF80
FFFFFFFF80
FFFFFFFF80
FFFFFFFF80
FFFFFFFF80
ENDCHAR
STARTCHAR 00B2
ENCODING 178
SWIDTH 295 0
DWIDTH 23 0
BBX 20 29 2 31
BITMAP
07FE00
0FFF80
3FFFC0
3FFFC0
7FFFE0
7F0FE0
FE07F0
FC03F0
FC03F0
FC03F0
0007F0
0007E0
000FE0
001FE0
003FC0
007F80
00FF00
01FE00
03FC00
0FF800
1FF000
3FC000
7F8000
FF0000
FFFFF0
FFFFF0
FFFFF0
FFFFF0
FFFFF0
ENDCHAR
STARTCHAR 00B3
ENCODING 179
SWIDTH 321 0
DWIDTH 25 0
BBX 22 31 2 29
BITMAP
007800
07FF80
0FFFC0
1FFFE0
3FFFF0
7FFFF0
7F07F8
7E03F8
FE01F8
0001F8
0001F8
0003F8
001FF0
00FFF0
00FFC0
00FFC0
00FFE0
00FFF0
0003F8
0001F8
0001FC
FE01FC
FE01FC
FF03F8
FFCFF8
7FFFF8
7FFFF0
3FFFE0
1FFFC0
07FF00
007000
ENDCHAR
STARTCHAR 00B4
ENCODING 180
SWIDTH 295 0
DWIDTH 23 0
BBX 17 15 3 48
BITMAP
01FF80
03FF80
03FF00
07FE00
07FE00
0FFC00
0FF800
1FF800
1FF000
3FF000
3FE000
7FC000
7FC000
FF8000
FF0000
ENDCHAR
STARTCHAR 00B5
ENCODING 181
SWIDTH 655 0
DWIDTH 51 0
BBX 44 58 4 -17
BITMAP
FFE0007FF000
FFE0007FF000
FFE0007FF000
FFE0007FF000
FFE0007FF000
FFE0007FF000
FFE0007FF000
FFE0007FF000
FFE0007FF000
FFE0007FF000
FFE0007FF000
FFE0007FF000
FFE0007FF000
FFE0007FF000
FFE0007FF000
FFE0007FF000
FFE0007FF000
FFE0007FF000
FFE0007FF000
FFE0007FF000
FFE0007FF000
FFE0007FF000
FFE0007FF000
FFE0007FF000
FFE0007FF000
FFE0007FF000
FFE0007FF000
FFE000FFF000
FFF000FFF000
FFF001FFF000
FFF001FFF000
FFF803FFF800
FFFE0FFFFC00
FFFFFFFFFFF0
FFFFFFBFFFF0
FFFFFFBFFFF0
FFFFFF1FFFF0
FFFFFE1FFFF0
FFFFFC0FFFF0
FFFFF803FFF0
FFDFF000FFF0
FFC000000000
FFC000000000
FFE000000000
FFE000000000
FFE000000000
FFE000000000
FFE000000000
FFE000000000
FFE000000000
FFE000000000
FFE000000000
FFE000000000
FFE000000000
FFE000000000
FFE000000000
FFE000000000
FFE000000000
ENDCHAR
STARTCHAR 00B6
ENCODING 182
SWIDTH 565 0
DWIDTH 44 0
BBX 39 54 1 0
BITMAP
003FFFFFFE
01FFFFFFFE
03FFFFFFFE
07FFFFFFFE
0FFFFFFFFE
1FFFFFFFFE
3FFFFFFFFE
3FFFFFFFFE
7FFFFFFFFE
7FFFFFE07E
7FFFFFE07E
FFFFFFE07E
FFFFFFE07E
FFFFFFE07E
FFFFFFE07E
FFFFFFE07E
FFFFFFE07E
FFFFFFE07E
7FFFFFE07E
7FFFFFE07E
7FFFFFE07E
3FFFFFE07E
3FFFFFE07E
1FFFFFE07E
0FFFFFE07E
07FFFFE07E
03FFFFE07E
01FFFFE07E
003FFFE07E
000007E07E
000007E07E
000007E07E
000007E07E
000007E07E
000007E07E
000007E07E
000007E07E
000007E07E
000007E07E
000007E07E
000007E07E
000007E07E
000007E07E
000007E07E
000007E07E
000007E07E
000007E07E
000007E07E
000007E07E
000007E07E
000007E07E
000007E07E
000007E07E
000007E07E
ENDCHAR
STARTCHAR 00B7
ENCODING 183
SWIDTH 308 0
DWIDTH 24 0
BBX 12 12 6 22
BITMAP
1F80
3FC0
7FE0
FFF0
FFF0
FFF0
FFF0
FFF0
7FF0
7FE0
3FC0
0F00
ENDCHAR
STARTCHAR 00B8
ENCODING 184
SWIDTH 257 0
DWIDTH 20 0
BBX 16 19 2 -19
BITMAP
3F00
3E00
3E00
7F80
7FF0
7FFC
7FFE
FFFE
007E
003F
001F
001F
003F
70FE
7FFE
7FFC
7FFC
7FF8
7FE0
ENDCHAR
STARTCHAR 00B9
ENCODING 185
SWIDTH 270 0
DWIDTH 21 0
BBX 18 30 2 30
BITMAP
03F000
07F000
0FF000
1FF000
3FF000
7FF000
FFF000
FFF000
FFF000
FBF000
F3F000
C3F000
83F000
03F000
03F000
03F000
03F000
03F000
03F000
03F000
03F000
03F000
03F000
03F000
FFFFC0
FFFFC0
FFFFC0
FFFFC0
FFFFC0
FFFFC0
ENDCHAR
STARTCHAR 00BA
ENCODING 186
SWIDTH 167 0
DWIDTH 13 0
BBX 11 12 1 30
BITMAP
0600
3F80
7FC0
FBE0
F1E0
F1E0
F0E0
F1E0
F1E0
7FE0
7FC0
3F80
ENDCHAR
STARTCHAR 00BB
ENCODING 187
SWIDTH 694 0
DWIDTH 54 0
BBX 48 34 3 7
BITMAP
FFE000FFC000
7FF000FFE000
3FF0007FF000
1FF8003FF800
0FFC001FF800
07FE000FFC00
03FF0007FE00
03FF8003FF00
01FFC001FF80
00FFE001FFC0
007FF000FFE0
003FF8007FF0
001FFC003FF8
000FFC001FFC
0007FE000FFE
0003FF0007FE
0003FF8003FF
0003FF8007FF
0007FF000FFE
000FFE000FFC
000FFC001FF8
001FF8003FF0
003FF0007FF0
007FE000FFE0
00FFE001FFC0
01FFC003FF80
03FF8007FF00
07FF0007FE00
0FFE000FFC00
0FFC001FF800
1FF8003FF000
3FF0007FE000
7FE000FFC000
FFC001FFC000
ENDCHAR
STARTCHAR 00BC
ENCODING 188
SWIDTH 835 0
DWIDTH 65 0
BBX 60 54 3 0
BITMAP
07F80000003FF000
0FF80000003FE000
3FF80000007FE000
7FF80000007FC000
FFF8000000FFC000
FFF8000001FF8000
FFF8000001FF0000
FFF8000003FF0000
FBF8000003FE0000
F3F8000007FE0000
E3F800000FFC0000
C3F800000FF80000
83F800001FF80000
03F800001FF00000
03F800003FF00000
03F800003FE00000
03F800007FC00000
03F80000FFC00000
03F80000FF800000
03F80001FF800000
FFFFC001FF000000
FFFFC003FE000000
FFFFC007FE000000
FFFFC007FC000000
FFFFC00FFC000000
FFFFC00FF8000000
FFFFC01FF0000000
0000003FF001FF80
0000003FE001FF80
0000007FE003FF80
0000007FC007FF80
000000FF8007FF80
000001FF800FFF80
000001FF000FBF80
000003FF001FBF80
000003FE003F3F80
000007FE003E3F80
00000FFC007E3F80
00000FF800FC3F80
00001FF800F83F80
00001FF001F83F80
00003FF001F03F80
00007FE003FFFFF0
00007FC003FFFFF0
0000FFC003FFFFF0
0000FF8003FFFFF0
0001FF8003FFFFF0
0003FF0003FFFFF0
0003FE0000003F80
0007FE0000003F80
0007FC0000003F80
000FFC0000003F80
001FF80000003F80
001FF00000003F80
ENDCHAR
STARTCHAR 00BD
ENCODING 189
SWIDTH 874 0
DWIDTH 68 0
BBX 63 54 3 0
BITMAP
07F800000007FC00
0FF80000000FFC00
3FF80000001FF800
7FF80000001FF000
FFF80000003FF000
FFF80000003FE000
FFF80000007FE000
FFF8000000FFC000
FBF8000000FF8000
F3F8000001FF8000
E3F8000001FF0000
C3F8000003FF0000
83F8000007FE0000
03F8000007FC0000
03F800000FFC0000
03F800000FF80000
03F800001FF80000
03F800003FF00000
03F800003FE00000
03F800007FE00000
FFFFC0007FC00000
FFFFC000FFC00000
FFFFC001FF800000
FFFFC001FF800000
FFFFC003FF000000
FFFFC003FE000000
FFFFC007FE001F80
00000007FC00FFE0
0000000FFC01FFF0
0000001FF803FFF8
0000001FF007FFFC
0000003FF007FFFC
0000003FE00FFBFE
0000007FE00FE0FE
000000FFC00FE0FE
000000FF800FC0FE
000001FF800000FE
000001FF000000FE
000003FF000001FC
000007FE000003FC
000007FC000007F8
00000FFC00000FF0
00000FF800001FE0
00001FF800003FC0
00003FF00000FF80
00003FE00001FF00
00007FE00007FC00
00007FC0000FF800
0000FFC0000FFFFE
0001FF80000FFFFE
0001FF00000FFFFE
0003FF00000FFFFE
0003FE00000FFFFE
0007FE00000FFFFE
ENDCHAR
STARTCHAR 00BE
ENCODING 190
SWIDTH 848 0
DWIDTH 66 0
BBX 60 55 3 0
BITMAP
01FC000000000000
07FF8000001FF800
1FFFC000001FF000
3FFFE000003FF000
3FFFF000007FE000
7FFFF000007FC000
7F8FF00000FFC000
FF07F80000FF8000
FE03F80001FF8000
0007F80003FF0000
0007F00003FE0000
00FFF00007FE0000
00FFE00007FC0000
00FFC0000FFC0000
00FF80001FF80000
00FFE0001FF00000
00FFF0003FF00000
0007F0003FE00000
0003F8007FE00000
0003F800FFC00000
FE03F800FF800000
FF07F801FF800000
FFFFF801FF000000
7FFFF003FF000000
7FFFF003FE000000
3FFFE007FE000000
1FFFC00FFC000000
07FF000FF8000000
00F8001FF800FFC0
0000001FF001FFC0
0000003FF001FFC0
0000007FE003FFC0
0000007FC007FFC0
000000FFC007FFC0
000000FF800FFFC0
000001FF800FBFC0
000003FF001FBFC0
000003FE003F3FC0
000007FE003E3FC0
000007FC007E3FC0
00000FFC007C3FC0
00001FF800FC3FC0
00001FF001F83FC0
00003FF001FFFFF0
00003FE001FFFFF0
00007FE001FFFFF0
0000FFC001FFFFF0
0000FF8001FFFFF0
0001FF8001FFFFF0
0001FF0000003FC0
0003FF0000003FC0
0007FE0000003FC0
0007FC0000003FC0
000FFC0000003FC0
000FF80000003FC0
ENDCHAR
STARTCHAR 00BF
ENCODING 191
SWIDTH 565 0
DWIDTH 44 0
BBX 38 56 4 -19
BITMAP
0000FC0000
0001FE0000
0003FF0000
0003FF8000
0007FF8000
0007FF8000
0007FF8000
0003FF8000
0003FF0000
0001FF0000
0000FC0000
0000000000
0000000000
0000000000
0000000000
0000000000
0003FF8000
0003FF8000
0003FF8000
0007FF0000
0007FF0000
000FFF0000
001FFE0000
003FFE0000
007FFC0000
00FFF80000
01FFF00000
03FFE00000
07FFC00000
0FFF800000
1FFF000000
1FFE000000
3FFC000000
7FF8000000
7FF0000000
7FF0000000
FFE0000000
FFE0001FFC
FFE0001FFC
FFE0003FF8
FFE0003FF8
FFE0003FF8
FFE0007FF8
FFF0007FF8
FFF800FFF0
7FFE03FFF0
7FFFFFFFF0
3FFFFFFFE0
3FFFFFFFC0
1FFFFFFFC0
0FFFFFFF80
07FFFFFF00
03FFFFFE00
00FFFFF800
003FFFE000
0007FF0000
ENDCHAR
STARTCHAR 00C0
ENCODING 192
SWIDTH 668 0
DWIDTH 52 0
BBX 49 76 2 0
BITMAP
003FF800000000
003FF800000000
001FFC00000000
000FFC00000000
000FFE00000000
0007FE00000000
0003FF00000000
0003FF00000000
0001FF80000000
0000FF80000000
0000FFC0000000
00007FC0000000
00003FE0000000
00003FE0000000
00001FF0000000
00000FF0000000
00000000000000
00000000000000
00000000000000
00000000000000
00000000000000
00000000000000
00001FFC000000
00001FFC000000
00003FFE000000
00003FFE000000
00003FFE000000
00007FFF000000
00007FFF000000
00007FFF000000
0000FFFF800000
0000FFFF800000
0001FFFF800000
0001FFFFC00000
0001FFFFC00000
0003FF7FE00000
0003FF7FE00000
0003FE7FE00000
0007FE3FF00000
0007FE3FF00000
0007FC3FF00000
000FFC1FF80000
000FFC1FF80000
001FF81FF80000
001FF80FFC0000
001FF80FFC0000
003FF00FFC0000
003FF007FE0000
003FF007FE0000
007FE007FF0000
007FE003FF0000
007FE003FF0000
00FFC003FF8000
00FFC001FF8000
00FFFFFFFF8000
01FFFFFFFFC000
01FFFFFFFFC000
03FFFFFFFFC000
03FFFFFFFFE000
03FFFFFFFFE000
07FFFFFFFFE000
07FFFFFFFFF000
07FFFFFFFFF000
0FFE00003FF800
0FFC00003FF800
0FFC00001FF800
1FFC00001FFC00
1FF800001FFC00
3FF800000FFC00
3FF800000FFE00
3FF000000FFE00
7FF0000007FE00
7FF0000007FF00
7FF0000007FF00
FFE0000003FF00
FFE0000003FF80
ENDCHAR
STARTCHAR 00C1
ENCODING 193
SWIDTH 668 0
DWIDTH 52 0
BBX 49 76 2 0
BITMAP
0000000FFE0000
0000001FFC0000
0000001FF80000
0000003FF80000
0000003FF00000
0000007FE00000
0000007FE00000
000000FFC00000
000000FF800000
000001FF800000
000001FF000000
000003FE000000
000003FE000000
000007FC000000
000007F8000000
00000FF8000000
00000000000000
00000000000000
00000000000000
00000000000000
00000000000000
00000000000000
00001FFC000000
00001FFC000000
00003FFE000000
00003FFE000000
00003FFE000000
00007FFF000000
00007FFF000000
00007FFF000000
0000FFFF800000
0000FFFF800000
0001FFFF800000
0001FFFFC00000
0001FFFFC00000
0003FF7FE00000
0003FF7FE00000
0003FE7FE00000
0007FE3FF00000
0007FE3FF00000
0007FC3FF00000
000FFC1FF80000
000FFC1FF80000
001FF81FF80000
001FF80FFC0000
001FF80FFC0000
003FF00FFC0000
003FF007FE0000
003FF007FE0000
007FE007FF0000
007FE003FF0000
007FE003FF0000
00FFC003FF8000
00FFC001FF8000
00FFFFFFFF8000
01FFFFFFFFC000
01FFFFFFFFC000
03FFFFFFFFC000
03FFFFFFFFE000
03FFFFFFFFE000
07FFFFFFFFE000
07FFFFFFFFF000
07FFFFFFFFF000
0FFE00003FF800
0FFC00003FF800
0FFC00001FF800
1FFC00001FFC00
1FF800001FFC00
3FF800000FFC00
3FF800000FFE00
3FF000000FFE00
7FF0000007FE00
7FF0000007FF00
7FF0000007FF00
FFE0000003FF00
FFE0000003FF80
ENDCHAR
STARTCHAR 00C2
ENCODING 194
SWIDTH 668 0
DWIDTH 52 0
BBX 49 72 2 0
BITMAP
00000FF8000000
00001FF8000000
00003FFC000000
00007FFE000000
00007FFF000000
0000FFFF800000
0001FFFFC00000
0003FF7FE00000
0007FE3FF00000
000FFC1FF80000
001FF80FFC0000
003FF007FE0000
007FE003FE0000
00000000000000
00000000000000
00000000000000
00000000000000
00000000000000
00001FFC000000
00001FFC000000
00003FFE000000
00003FFE000000
00003FFE000000
00007FFF000000
00007FFF000000
00007FFF000000
0000FFFF800000
0000FFFF800000
0001FFFF800000
0001FFFFC00000
0001FFFFC00000
0003FF7FE00000
0003FF7FE00000
0003FE7FE00000
0007FE3FF00000
0007FE3FF00000
0007FC3FF00000
000FFC1FF80000
000FFC1FF80000
001FF81FF80000
001FF80FFC0000
001FF80FFC0000
003FF00FFC0000
003FF007FE0000
003FF007FE0000
007FE007FF0000
007FE003FF0000
007FE003FF0000
00FFC003FF8000
00FFC001FF8000
00FFFFFFFF8000
01FFFFFFFFC000
01FFFFFFFFC000
03FFFFFFFFC000
03FFFFFFFFE000
03FFFFFFFFE000
07FFFFFFFFE000
07FFFFFFFFF000
07FFFFFFFFF000
0FFE00003FF800
0FFC00003FF800
0FFC00001FF800
1FFC00001FFC00
1FF800001FFC00
3FF800000FFC00
3FF800000FFE00
3FF000000FFE00
7FF0000007FE00
7FF0000007FF00
7FF0000007FF00
FFE0000003FF00
FFE0000003FF80
ENDCHAR
STARTCHAR 00C3
ENCODING 195
SWIDTH 668 0
DWIDTH 52 0
BBX 49 71 2 0
BITMAP
0001FE01F80000
0003FF81F80000
0007FFF3F80000
0007FFFFF00000
000FFFFFF00000
000FFFFFF00000
000FEFFFE00000
000FC1FFE00000
000F807FC00000
000F801E000000
00000000000000
00000000000000
00000000000000
00000000000000
00000000000000
00000000000000
00000000000000
00001FFC000000
00001FFC000000
00003FFE000000
00003FFE000000
00003FFE000000
00007FFF000000
00007FFF000000
00007FFF000000
0000FFFF800000
0000FFFF800000
0001FFFF800000
0001FFFFC00000
0001FFFFC00000
0003FF7FE00000
0003FF7FE00000
0003FE7FE00000
0007FE3FF00000
0007FE3FF00000
0007FC3FF00000
000FFC1FF80000
000FFC1FF80000
001FF81FF80000
001FF80FFC0000
001FF80FFC0000
003FF00FFC0000
003FF007FE0000
003FF007FE0000
007FE007FF0000
007FE003FF0000
007FE003FF0000
00FFC003FF8000
00FFC001FF8000
00FFFFFFFF8000
01FFFFFFFFC000
01FFFFFFFFC000
03FFFFFFFFC000
03FFFFFFFFE000
03FFFFFFFFE000
07FFFFFFFFE000
07FFFFFFFFF000
07FFFFFFFFF000
0FFE00003FF800
0FFC00003FF800
0FFC00001FF800
1FFC00001FFC00
1FF800001FFC00
3FF800000FFC00
3FF800000FFE00
3FF000000FFE00
7FF0000007FE00
7FF0000007FF00
7FF0000007FF00
FFE0000003FF00
FFE0000003FF80
ENDCHAR
STARTCHAR 00C4
ENCODING 196
SWIDTH 668 0
DWIDTH 52 0
BBX 49 73 2 1
BITMAP
001FC001FC0000
003FE003FE0000
003FF007FF0000
007FF807FF0000
007FF807FF8000
007FF807FF8000
007FF807FF8000
007FF807FF0000
003FF007FF0000
003FE003FE0000
000FC001FC0000
00000000000000
00000000000000
00000000000000
00000000000000
00000000000000
00000000000000
00000000000000
00000000000000
00001FFC000000
00001FFC000000
00003FFE000000
00003FFE000000
00003FFE000000
00007FFF000000
00007FFF000000
00007FFF000000
0000FFFF800000
0000FFFF800000
0001FFFF800000
0001FFFFC00000
0001FFFFC00000
0003FF7FE00000
0003FF7FE00000
0003FE7FE00000
0007FE3FF00000
0007FE3FF00000
0007FC3FF00000
000FFC1FF80000
000FFC1FF80000
001FF81FF80000
001FF80FFC0000
001FF80FFC0000
003FF00FFC0000
003FF007FE0000
003FF007FE0000
007FE007FF0000
007FE003FF0000
007FE003FF0000
00FFC003FF8000
00FFC001FF8000
00FFFFFFFF8000
01FFFFFFFFC000
01FFFFFFFFC000
03FFFFFFFFC000
03FFFFFFFFE000
03FFFFFFFFE000
07FFFFFFFFE000
07FFFFFFFFF000
07FFFFFFFFF000
0FFE00003FF800
0FFC00003FF800
0FFC00001FF800
1FFC00001FFC00
1FF800001FFC00
3FF800000FFC00
3FF800000FFE00
3FF000000FFE00
7FF0000007FE00
7FF0000007FF00
7FF0000007FF00
FFE0000003FF00
FFE0000003FF80
ENDCHAR
STARTCHAR 00C5
ENCODING 197
SWIDTH 668 0
DWIDTH 52 0
BBX 49 75 2 1
BITMAP
00000FF0000000
00001FF8000000
00003FFC000000
00007FFE000000
00007C3E000000
00007C1F000000
0000781F000000
0000F81F000000
0000781F000000
00007C3F000000
00007FFE000000
00003FFE000000
00001FFC000000
00000FF8000000
000003E0000000
00000000000000
00000000000000
00000000000000
00000000000000
00000000000000
00000000000000
00001FFC000000
00001FFC000000
00003FFE000000
00003FFE000000
00003FFE000000
00007FFF000000
00007FFF000000
00007FFF000000
0000FFFF800000
0000FFFF800000
0001FFFF800000
0001FFFFC00000
0001FFFFC00000
0003FF7FE00000
0003FF7FE00000
0003FE7FE00000
0007FE3FF00000
0007FE3FF00000
0007FC3FF00000
000FFC1FF80000
000FFC1FF80000
001FF81FF80000
001FF80FFC0000
001FF80FFC0000
003FF00FFC0000
003FF007FE0000
003FF007FE0000
007FE007FF0000
007FE003FF0000
007FE003FF0000
00FFC003FF8000
00FFC001FF8000
00FFFFFFFF8000
01FFFFFFFFC000
01FFFFFFFFC000
03FFFFFFFFC000
03FFFFFFFFE000
03FFFFFFFFE000
07FFFFFFFFE000
07FFFFFFFFF000
07FFFFFFFFF000
0FFE00003FF800
0FFC00003FF800
0FFC00001FF800
1FFC00001FFC00
1FF800001FFC00
3FF800000FFC00
3FF800000FFE00
3FF000000FFE00
7FF0000007FE00
7FF0000007FF00
7FF0000007FF00
FFE0000003FF00
FFE0000003FF80
ENDCHAR
STARTCHAR 00C6
ENCODING 198
SWIDTH 964 0
DWIDTH 75 0
BBX 71 54 1 0
BITMAP
0000003FFFFFFFFFFE
0000003FFFFFFFFFFE
0000007FFFFFFFFFFE
0000007FFFFFFFFFFE
000000FFFFFFFFFFFE
000000FFFFFFFFFFFE
000001FFFFFFFFFFFE
000001FFFFFFFFFFFE
000003FFFFFFFFFFFE
000003FFFFF8000000
000007FFBFF8000000
000007FFBFF8000000
00000FFF3FF8000000
00000FFF3FF8000000
00001FFE3FF8000000
00001FFE3FF8000000
00003FFC3FF8000000
00003FFC3FF8000000
00007FF83FF8000000
00007FF83FF8000000
0000FFF03FF8000000
0000FFF03FF8000000
0001FFE03FFFFFFFE0
0001FFE03FFFFFFFE0
0003FFC03FFFFFFFE0
0003FFC03FFFFFFFE0
0007FF803FFFFFFFE0
0007FF803FFFFFFFE0
000FFF003FFFFFFFE0
000FFF003FFFFFFFE0
001FFE003FFFFFFFE0
001FFE003FF8000000
003FFFFFFFF8000000
003FFFFFFFF8000000
007FFFFFFFF8000000
007FFFFFFFF8000000
00FFFFFFFFF8000000
00FFFFFFFFF8000000
01FFFFFFFFF8000000
01FFFFFFFFF8000000
03FFFFFFFFF8000000
03FFC0003FF8000000
07FF80003FF8000000
07FF80003FF8000000
0FFF00003FF8000000
0FFF00003FFFFFFFFE
1FFE00003FFFFFFFFE
1FFE00003FFFFFFFFE
3FFC00003FFFFFFFFE
3FFC00003FFFFFFFFE
7FF800003FFFFFFFFE
7FF800003FFFFFFFFE
FFF000003FFFFFFFFE
FFF000003FFFFFFFFE
ENDCHAR
STARTCHAR 00C7
ENCODING 199
SWIDTH 694 0
DWIDTH 54 0
BBX 48 75 3 -19
BITMAP
000000600000
00003FFF8000
0001FFFFE000
0007FFFFF800
001FFFFFFE00
003FFFFFFF00
007FFFFFFF80
00FFFFFFFFC0
01FFFFFFFFE0
03FFFFFFFFF0
07FFF807FFF8
07FFE000FFF8
0FFF80007FFC
0FFF00003FFC
1FFE00001FFE
1FFE00000FFE
3FFC000007FF
3FFC000007FF
3FF8000003FF
7FF8000003FF
7FF000000000
7FF000000000
7FF000000000
7FF000000000
FFF000000000
FFF000000000
FFF000000000
FFE000000000
FFE000000000
FFE000000000
FFF000000000
FFF000000000
FFF000000000
7FF000000000
7FF000000000
7FF000000000
7FF000000000
7FF800000000
3FF8000007FF
3FFC000007FF
3FFC000007FE
1FFE00000FFE
1FFE00001FFE
0FFF00003FFC
0FFF80007FFC
07FFE000FFF8
07FFF803FFF8
03FFFFFFFFF0
01FFFFFFFFE0
00FFFFFFFFC0
007FFFFFFF80
003FFFFFFF00
001FFFFFFE00
0007FFFFF800
0001FFFFF000
00007FFF8000
000003E00000
000007E00000
000007C00000
000007F00000
00000FFF0000
00000FFF8000
00000FFFC000
00000FFFC000
0000000FE000
00000003E000
00000003E000
00000003E000
00000007E000
00000C0FE000
00000FFFC000
00000FFFC000
00000FFF8000
00000FFF0000
00000FFC0000
ENDCHAR
STARTCHAR 00C8
ENCODING 200
SWIDTH 565 0
DWIDTH 44 0
BBX 36 76 5 0
BITMAP
1FFC000000
0FFC000000
0FFE000000
07FE000000
03FF000000
03FF000000
01FF800000
00FF800000
00FFC00000
007FC00000
003FE00000
003FE00000
001FF00000
001FF00000
000FF80000
0007F80000
0000000000
0000000000
0000000000
0000000000
0000000000
0000000000
FFFFFFFFF0
FFFFFFFFF0
FFFFFFFFF0
FFFFFFFFF0
FFFFFFFFF0
FFFFFFFFF0
FFFFFFFFF0
FFFFFFFFF0
FFFFFFFFF0
FFC0000000
FFC0000000
FFC0000000
FFC0000000
FFC0000000
FFC0000000
FFC0000000
FFC0000000
FFC0000000
FFC0000000
FFC0000000
FFC0000000
FFC0000000
FFFFFFFF00
FFFFFFFF00
FFFFFFFF00
FFFFFFFF00
FFFFFFFF00
FFFFFFFF00
FFFFFFFF00
FFFFFFFF00
FFFFFFFF00
FFC0000000
FFC0000000
FFC0000000
FFC0000000
FFC0000000
FFC0000000
FFC0000000
FFC0000000
FFC0000000
FFC0000000
FFC0000000
FFC0000000
FFC0000000
FFC0000000
FFFFFFFFF0
FFFFFFFFF0
FFFFFFFFF0
FFFFFFFFF0
FFFFFFFFF0
FFFFFFFFF0
FFFFFFFFF0
FFFFFFFFF0
FFFFFFFFF0
ENDCHAR
STARTCHAR 00C9
ENCODING 201
SWIDTH 565 0
DWIDTH 44 0
BBX 36 76 5 0
BITMAP
000007FF00
000007FE00
00000FFC00
00001FFC00
00001FF800
00003FF000
00003FF000
00007FE000
00007FC000
0000FFC000
0000FF8000
0001FF8000
0001FF0000
0003FE0000
0003FE0000
0007FC0000
0000000000
0000000000
0000000000
0000000000
0000000000
0000000000
FFFFFFFFF0
FFFFFFFFF0
FFFFFFFFF0
FFFFFFFFF0
FFFFFFFFF0
FFFFFFFFF0
FFFFFFFFF0
FFFFFFFFF0
FFFFFFFFF0
FFC0000000
FFC0000000
FFC0000000
FFC0000000
FFC0000000
FFC0000000
FFC0000000
FFC0000000
FFC0000000
FFC0000000
FFC0000000
FFC0000000
FFC0000000
FFFFFFFF00
FFFFFFFF00
FFFFFFFF00
FFFFFFFF00
FFFFFFFF00
FFFFFFFF00
FFFFFFFF00
FFFFFFFF00
FFFFFFFF00
FFC0000000
FFC0000000
FFC0000000
FFC0000000
FFC0000000
FFC0000000
FFC0000000
FFC0000000
FFC0000000
FFC0000000
FFC0000000
FFC0000000
FFC0000000
FFC0000000
FFFFFFFFF0
FFFFFFFFF0
FFFFFFFFF0
FFFFFFFFF0
FFFFFFFFF0
FFFFFFFFF0
FFFFFFFFF0
FFFFFFFFF0
FFFFFFFFF0
ENDCHAR
STARTCHAR 00CA
ENCODING 202
SWIDTH 565 0
DWIDTH 44 0
BBX 36 72 5 0
BITMAP
0007FC0000
000FFC0000
001FFE0000
001FFF0000
003FFF8000
007FFFC000
00FFFFE000
01FFBFF000
03FF1FF800
07FE0FFC00
0FFC07FE00
1FF803FF00
3FF001FF80
0000000000
0000000000
0000000000
0000000000
0000000000
FFFFFFFFF0
FFFFFFFFF0
FFFFFFFFF0
FFFFFFFFF0
FFFFFFFFF0
FFFFFFFFF0
FFFFFFFFF0
FFFFFFFFF0
FFFFFFFFF0
FFC0000000
FFC0000000
FFC0000000
FFC0000000
FFC0000000
FFC0000000
FFC0000000
FFC0000000
FFC0000000
FFC0000000
FFC0000000
FFC0000000
FFC0000000
FFFFFFFF00
FFFFFFFF00
FFFFFFFF00
FFFFFFFF00
FFFFFFFF00
FFFFFFFF00
FFFFFFFF00
FFFFFFFF00
FFFFFFFF00
FFC0000000
FFC0000000
FFC0000000
FFC0000000
FFC0000000
FFC0000000
FFC0000000
FFC0000000
FFC0000000
FFC0000000
FFC0000000
FFC0000000
FFC0000000
FFC0000000
FFFFFFFFF0
FFFFFFFFF0
FFFFFFFFF0
FFFFFFFFF0
FFFFFFFFF0
FFFFFFFFF0
FFFFFFFFF0
FFFFFFFFF0
FFFFFFFFF0
ENDCHAR
STARTCHAR 00CB
ENCODING 203
SWIDTH 565 0
DWIDTH 44 0
BBX 36 73 5 1
BITMAP
07E000FE00
1FF001FF00
1FF803FF80
3FFC03FF80
3FFC03FFC0
3FFC03FFC0
3FFC03FFC0
3FFC03FF80
1FF801FF80
1FF001FF00
07E000FE00
0000000000
0000000000
0000000000
0000000000
0000000000
0000000000
0000000000
0000000000
FFFFFFFFF0
FFFFFFFFF0
FFFFFFFFF0
FFFFFFFFF0
FFFFFFFFF0
FFFFFFFFF0
FFFFFFFFF0
FFFFFFFFF0
FFFFFFFFF0
FFC0000000
FFC0000000
FFC0000000
FFC0000000
FFC0000000
FFC0000000
FFC0000000
FFC0000000
FFC0000000
FFC0000000
FFC0000000
FFC0000000
FFC0000000
FFFFFFFF00
FFFFFFFF00
FFFFFFFF00
FFFFFFFF00
FFFFFFFF00
FFFFFFFF00
FFFFFFFF00
FFFFFFFF00
FFFFFFFF00
FFC0000000
FFC0000000
FFC0000000
FFC0000000
FFC0000000
FFC0000000
FFC0000000
FFC0000000
FFC0000000
FFC0000000
FFC0000000
FFC0000000
FFC0000000
FFC0000000
FFFFFFFFF0
FFFFFFFFF0
FFFFFFFFF0
FFFFFFFFF0
FFFFFFFFF0
FFFFFFFFF0
FFFFFFFFF0
FFFFFFFFF0
FFFFFFFFF0
ENDCHAR
STARTCHAR 00CC
ENCODING 204
SWIDTH 257 0
DWIDTH 20 0
BBX 20 76 -4 0
BITMAP
FFE000
7FE000
7FF000
3FF000
1FF800
1FF800
0FFC00
07FC00
07FE00
03FE00
01FF00
01FF00
00FF80
007F80
007FC0
003FC0
000000
000000
000000
000000
000000
000000
007FF0
007FF0
007FF0
007FF0
007FF0
007FF0
007FF0
007FF0
007FF0
007FF0
007FF0
007FF0
007FF0
007FF0
007FF0
007FF0
007FF0
007FF0
007FF0
007FF0
007FF0
007FF0
007FF0
007FF0
007FF0
007FF0
007FF0
007FF0
007FF0
007FF0
007FF0
007FF0
007FF0
007FF0
007FF0
007FF0
007FF0
007FF0
007FF0
007FF0
007FF0
007FF0
007FF0
007FF0
007FF0
007FF0
007FF0
007FF0
007FF0
007FF0
007FF0
007FF0
007FF0
007FF0
ENDCHAR
STARTCHAR 00CD
ENCODING 205
SWIDTH 257 0
DWIDTH 20 0
BBX 20 76 5 0
BITMAP
007FF0
007FE0
00FFE0
00FFC0
01FF80
01FF80
03FF00
03FE00
07FE00
0FFC00
0FF800
1FF800
1FF000
3FE000
3FE000
7FC000
000000
000000
000000
000000
000000
000000
FFE000
FFE000
FFE000
FFE000
FFE000
FFE000
FFE000
FFE000
FFE000
FFE000
FFE000
FFE000
FFE000
FFE000
FFE000
FFE000
FFE000
FFE000
FFE000
FFE000
FFE000
FFE000
FFE000
FFE000
FFE000
FFE000
FFE000
FFE000
FFE000
FFE000
FFE000
FFE000
FFE000
FFE000
FFE000
FFE000
FFE000
FFE000
FFE000
FFE000
FFE000
FFE000
FFE000
FFE000
FFE000
FFE000
FFE000
FFE000
FFE000
FFE000
FFE000
FFE000
FFE000
FFE000
ENDCHAR
STARTCHAR 00CE
ENCODING 206
SWIDTH 257 0
DWIDTH 20 0
BBX 31 72 -5 0
BITMAP
001FF000
003FF800
003FF800
007FFC00
00FFFE00
01FFFF00
03FFFF80
07FEFFC0
0FFC7FE0
1FF83FF0
3FF01FF8
7FE00FFC
FFC007FE
00000000
00000000
00000000
00000000
00000000
003FF800
003FF800
003FF800
003FF800
003FF800
003FF800
003FF800
003FF800
003FF800
003FF800
003FF800
003FF800
003FF800
003FF800
003FF800
003FF800
003FF800
003FF800
003FF800
003FF800
003FF800
003FF800
003FF800
003FF800
003FF800
003FF800
003FF800
003FF800
003FF800
003FF800
003FF800
003FF800
003FF800
003FF800
003FF800
003FF800
003FF800
003FF800
003FF800
003FF800
003FF800
003FF800
003FF800
003FF800
003FF800
003FF800
003FF800
003FF800
003FF800
003FF800
003FF800
003FF800
003FF800
003FF800
ENDCHAR
STARTCHAR 00CF
ENCODING 207
SWIDTH 257 0
DWIDTH 20 0
BBX 32 73 -5 1
BITMAP
1F8003F8
3FE007FC
7FE007FE
FFF00FFF
FFF00FFF
FFF00FFF
FFF00FFF
FFF00FFF
7FE007FE
3FE007FC
1F8003F8
00000000
00000000
00000000
00000000
00000000
00000000
00000000
00000000
003FF800
003FF800
003FF800
003FF800
003FF800
003FF800
003FF800
003FF800
003FF800
003FF800
003FF800
003FF800
003FF800
003FF800
003FF800
003FF800
003FF800
003FF800
003FF800
003FF800
003FF800
003FF800
003FF800
003FF800
003FF800
003FF800
003FF800
003FF800
003FF800
003FF800
003FF800
003FF800
003FF800
003FF800
003FF800
003FF800
003FF800
003FF800
003FF800
003FF800
003FF800
003FF800
003FF800
003FF800
003FF800
003FF800
003FF800
003FF800
003FF800
003FF800
003FF800
003FF800
003FF800
003FF800
ENDCHAR
STARTCHAR 00D0
ENCODING 208
SWIDTH 707 0
DWIDTH 55 0
BBX 49 55 3 0
BITMAP
0FFFFF00000000
0FFFFFFF000000
0FFFFFFFE00000
0FFFFFFFF80000
0FFFFFFFFE0000
0FFFFFFFFF0000
0FFFFFFFFF8000
0FFFFFFFFFC000
0FFFFFFFFFE000
0FFFFFFFFFF000
0FFC003FFFF800
0FFC0003FFF800
0FFC0000FFFC00
0FFC00007FFC00
0FFC00003FFE00
0FFC00001FFE00
0FFC00001FFF00
0FFC00000FFF00
0FFC00000FFF00
0FFC000007FF00
0FFC000007FF80
0FFC000007FF80
0FFC000007FF80
0FFC000007FF80
FFFFFC0003FF80
FFFFFC0003FF80
FFFFFC0003FF80
FFFFFC0003FF80
FFFFFC0003FF80
FFFFFC0003FF80
FFFFFC0003FF80
0FFC000003FF80
0FFC000007FF80
0FFC000007FF80
0FFC000007FF80
0FFC000007FF80
0FFC00000FFF00
0FFC00000FFF00
0FFC00000FFF00
0FFC00001FFE00
0FFC00003FFE00
0FFC00007FFE00
0FFC0000FFFC00
0FFC0001FFFC00
0FFC000FFFF800
0FFFFFFFFFF000
0FFFFFFFFFE000
0FFFFFFFFFE000
0FFFFFFFFFC000
0FFFFFFFFF8000
0FFFFFFFFE0000
0FFFFFFFFC0000
0FFFFFFFF00000
0FFFFFFF800000
0FFFFFF8000000
ENDCHAR
STARTCHAR 00D1
ENCODING 209
SWIDTH 694 0
DWIDTH 54 0
BBX 46 71 4 0
BITMAP
0001FC03F000
0007FF03F000
000FFFE7F000
000FFFFFE000
001FFFFFE000
001FFFFFE000
001FDFFFC000
001F83FFC000
001F00FF8000
001F003C0000
000000000000
000000000000
000000000000
000000000000
000000000000
000000000000
000000000000
FFFC00001FFC
FFFC00001FFC
FFFE00001FFC
FFFE00001FFC
FFFF00001FFC
FFFF00001FFC
FFFF80001FFC
FFFFC0001FFC
FFFFC0001FFC
FFFFE0001FFC
FFFFE0001FFC
FFFFF0001FFC
FFFFF8001FFC
FFFFF8001FFC
FFFFFC001FFC
FFFFFC001FFC
FFFFFE001FFC
FFFFFF001FFC
FFEFFF001FFC
FFE7FF801FFC
FFE7FF801FFC
FFE3FFC01FFC
FFE1FFC01FFC
FFE1FFE01FFC
FFE0FFF01FFC
FFE0FFF01FFC
FFE07FF81FFC
FFE07FF81FFC
FFE03FFC1FFC
FFE01FFE1FFC
FFE01FFE1FFC
FFE00FFF1FFC
FFE007FF1FFC
FFE007FF9FFC
FFE003FFDFFC
FFE003FFDFFC
FFE001FFFFFC
FFE000FFFFFC
FFE000FFFFFC
FFE0007FFFFC
FFE0007FFFFC
FFE0003FFFFC
FFE0001FFFFC
FFE0001FFFFC
FFE0000FFFFC
FFE0000FFFFC
FFE00007FFFC
FFE00003FFFC
FFE00003FFFC
FFE00001FFFC
FFE00001FFFC
FFE00000FFFC
FFE000007FFC
FFE000007FFC
ENDCHAR
STARTCHAR 00D2
ENCODING 210
SWIDTH 720 0
DWIDTH 56 0
BBX 50 77 3 -1
BITMAP
001FFC00000000
001FFC00000000
000FFE00000000
0007FE00000000
0007FF00000000
0003FF00000000
0001FF80000000
0001FF80000000
0000FFC0000000
00007FC0000000
00007FE0000000
00003FE0000000
00001FF0000000
00001FF0000000
00000FF8000000
000007F8000000
00000000000000
00000000000000
00000000000000
00000000000000
00000060000000
00003FFF800000
0001FFFFF00000
0007FFFFF80000
001FFFFFFE0000
003FFFFFFF0000
007FFFFFFFC000
00FFFFFFFFE000
01FFFFFFFFE000
03FFFFFFFFF000
07FFFC0FFFF800
07FFF001FFFC00
0FFFC000FFFC00
0FFF80007FFE00
1FFF00003FFE00
1FFE00001FFF00
3FFE00000FFF00
3FFC00000FFF00
3FFC000007FF80
7FF8000007FF80
7FF8000007FF80
7FF8000003FF80
7FF0000003FFC0
7FF0000003FFC0
FFF0000003FFC0
FFF0000003FFC0
FFF0000003FFC0
FFF0000003FFC0
FFF0000001FFC0
FFF0000001FFC0
FFF0000003FFC0
FFF0000003FFC0
FFF0000003FFC0
FFF0000003FFC0
7FF0000003FFC0
7FF0000003FF80
7FF8000007FF80
7FF8000007FF80
7FF8000007FF80
3FFC00000FFF80
3FFC00000FFF00
3FFE00001FFF00
1FFF00001FFE00
1FFF80003FFE00
0FFFC0007FFC00
0FFFE001FFFC00
07FFFC07FFF800
03FFFFFFFFF800
03FFFFFFFFF000
01FFFFFFFFE000
00FFFFFFFFC000
007FFFFFFF8000
001FFFFFFE0000
000FFFFFFC0000
0003FFFFF00000
00007FFF800000
000001E0000000
ENDCHAR
STARTCHAR 00D3
ENCODING 211
SWIDTH 720 0
DWIDTH 56 0
BBX 50 77 3 -1
BITMAP
00000007FF0000
0000000FFE0000
0000000FFC0000
0000001FFC0000
0000001FF80000
0000003FF00000
0000003FF00000
0000007FE00000
0000007FC00000
000000FFC00000
000000FF800000
000001FF000000
000001FF000000
000003FE000000
000003FC000000
000007FC000000
00000000000000
00000000000000
00000000000000
00000000000000
00000060000000
00003FFF800000
0001FFFFF00000
0007FFFFF80000
001FFFFFFE0000
003FFFFFFF0000
007FFFFFFFC000
00FFFFFFFFE000
01FFFFFFFFE000
03FFFFFFFFF000
07FFFC0FFFF800
07FFF001FFFC00
0FFFC000FFFC00
0FFF80007FFE00
1FFF00003FFE00
1FFE00001FFF00
3FFE00000FFF00
3FFC00000FFF00
3FFC000007FF80
7FF8000007FF80
7FF8000007FF80
7FF8000003FF80
7FF0000003FFC0
7FF0000003FFC0
FFF0000003FFC0
FFF0000003FFC0
FFF0000003FFC0
FFF0000003FFC0
FFF0000001FFC0
FFF0000001FFC0
FFF0000003FFC0
FFF0000003FFC0
FFF0000003FFC0
FFF0000003FFC0
7FF0000003FFC0
7FF0000003FF80
7FF8000007FF80
7FF8000007FF80
7FF8000007FF80
3FFC00000FFF80
3FFC00000FFF00
3FFE00001FFF00
1FFF00001FFE00
1FFF80003FFE00
0FFFC0007FFC00
0FFFE001FFFC00
07FFFC07FFF800
03FFFFFFFFF800
03FFFFFFFFF000
01FFFFFFFFE000
00FFFFFFFFC000
007FFFFFFF8000
001FFFFFFE0000
000FFFFFFC0000
0003FFFFF00000
00007FFF800000
000001E0000000
ENDCHAR
STARTCHAR 00D4
ENCODING 212
SWIDTH 720 0
DWIDTH 56 0
BBX 50 73 3 -1
BITMAP
000007F8000000
00000FFC000000
00001FFE000000
00003FFF000000
00007FFF800000
00007FFFC00000
0000FFFFE00000
0001FF3FF00000
0003FF1FF80000
0007FE0FFC0000
000FFC07FE0000
001FF803FE0000
003FF003FF0000
00000000000000
00000000000000
00000000000000
00000060000000
00003FFF800000
0001FFFFF00000
0007FFFFF80000
001FFFFFFE0000
003FFFFFFF0000
007FFFFFFFC000
00FFFFFFFFE000
01FFFFFFFFE000
03FFFFFFFFF000
07FFFC0FFFF800
07FFF001FFFC00
0FFFC000FFFC00
0FFF80007FFE00
1FFF00003FFE00
1FFE00001FFF00
3FFE00000FFF00
3FFC00000FFF00
3FFC000007FF80
7FF8000007FF80
7FF8000007FF80
7FF8000003FF80
7FF0000003FFC0
7FF0000003FFC0
FFF0000003FFC0
FFF0000003FFC0
FFF0000003FFC0
FFF0000003FFC0
FFF0000001FFC0
FFF0000001FFC0
FFF0000003FFC0
FFF0000003FFC0
FFF0000003FFC0
FFF0000003FFC0
7FF0000003FFC0
7FF0000003FF80
7FF8000007FF80
7FF8000007FF80
7FF8000007FF80
3FFC00000FFF80
3FFC00000FFF00
3FFE00001FFF00
1FFF00001FFE00
1FFF80003FFE00
0FFFC0007FFC00
0FFFE001FFFC00
07FFFC07FFF800
03FFFFFFFFF800
03FFFFFFFFF000
01FFFFFFFFE000
00FFFFFFFFC000
007FFFFFFF8000
001FFFFFFE0000
000FFFFFFC0000
0003FFFFF00000
00007FFF800000
000001E0000000
ENDCHAR
STARTCHAR 00D5
ENCODING 213
SWIDTH 720 0
DWIDTH 56 0
BBX 50 72 3 -1
BITMAP
0000FF00FC0000
0001FFC0FC0000
0003FFF1F80000
0003FFFFF80000
0007FFFFF80000
0007FFFFF80000
0007F7FFF00000
0007E1FFF00000
0007C03FC00000
0007C007000000
00000000000000
00000000000000
00000000000000
00000000000000
00000000000000
00000060000000
00003FFF800000
0001FFFFF00000
0007FFFFF80000
001FFFFFFE0000
003FFFFFFF0000
007FFFFFFFC000
00FFFFFFFFE000
01FFFFFFFFE000
03FFFFFFFFF000
07FFFC0FFFF800
07FFF001FFFC00
0FFFC000FFFC00
0FFF80007FFE00
1FFF00003FFE00
1FFE00001FFF00
3FFE00000FFF00
3FFC00000FFF00
3FFC000007FF80
7FF8000007FF80
7FF8000007FF80
7FF8000003FF80
7FF0000003FFC0
7FF0000003FFC0
FFF0000003FFC0
FFF0000003FFC0
FFF0000003FFC0
FFF0000003FFC0
FFF0000001FFC0
FFF0000001FFC0
FFF0000003FFC0
FFF0000003FFC0
FFF0000003FFC0
FFF0000003FFC0
7FF0000003FFC0
7FF0000003FF80
7FF8000007FF80
7FF8000007FF80
7FF8000007FF80
3FFC00000FFF80
3FFC00000FFF00
3FFE00001FFF00
1FFF00001FFE00
1FFF80003FFE00
0FFFC0007FFC00
0FFFE001FFFC00
07FFFC07FFF800
03FFFFFFFFF800
03FFFFFFFFF000
01FFFFFFFFE000
00FFFFFFFFC000
007FFFFFFF8000
001FFFFFFE0000
000FFFFFFC0000
0003FFFFF00000
00007FFF800000
000001E0000000
ENDCHAR
STARTCHAR 00D6
ENCODING 214
SWIDTH 720 0
DWIDTH 56 0
BBX 50 74 3 0
BITMAP
000FE000FE0000
001FF001FF0000
001FF803FF8000
003FF803FF8000
003FFC03FF8000
003FFC03FFC000
003FFC03FF8000
003FF803FF8000
001FF803FF8000
001FF001FF0000
000FE000FE0000
00000000000000
00000000000000
00000000000000
00000000000000
00000000000000
00000000000000
00000060000000
00003FFF800000
0001FFFFF00000
0007FFFFF80000
001FFFFFFE0000
003FFFFFFF0000
007FFFFFFFC000
00FFFFFFFFE000
01FFFFFFFFE000
03FFFFFFFFF000
07FFFC0FFFF800
07FFF001FFFC00
0FFFC000FFFC00
0FFF80007FFE00
1FFF00003FFE00
1FFE00001FFF00
3FFE00000FFF00
3FFC00000FFF00
3FFC000007FF80
7FF8000007FF80
7FF8000007FF80
7FF8000003FF80
7FF0000003FFC0
7FF0000003FFC0
FFF0000003FFC0
FFF0000003FFC0
FFF0000003FFC0
FFF0000003FFC0
FFF0000001FFC0
FFF0000001FFC0
FFF0000003FFC0
FFF0000003FFC0
FFF0000003FFC0
FFF0000003FFC0
7FF0000003FFC0
7FF0000003FF80
7FF8000007FF80
7FF8000007FF80
7FF8000007FF80
3FFC00000FFF80
3FFC00000FFF00
3FFE00001FFF00
1FFF00001FFE00
1FFF80003FFE00
0FFFC0007FFC00
0FFFE001FFFC00
07FFFC07FFF800
03FFFFFFFFF800
03FFFFFFFFF000
01FFFFFFFFE000
00FFFFFFFFC000
007FFFFFFF8000
001FFFFFFE0000
000FFFFFFC0000
0003FFFFF00000
00007FFF800000
000001E0000000
ENDCHAR
STARTCHAR 00D7
ENCODING 215
SWIDTH 578 0
DWIDTH 45 0
BBX 29 29 8 9
BITMAP
02000300
07000780
0F800FC0
1FC01FE0
3FE03FF0
7FF07FF8
FFF8FFF8
7FFDFFF0
3FFFFFE0
1FFFFFC0
0FFFFF80
07FFFF00
03FFFE00
01FFFC00
00FFF800
01FFFC00
03FFFE00
07FFFF00
0FFFFF80
1FFFFFC0
3FFFFFE0
7FFDFFF0
FFF8FFF8
FFF07FF8
7FE03FF0
3FC01FE0
1F800FC0
0F000780
06000300
ENDCHAR
STARTCHAR 00D8
ENCODING 216
SWIDTH 732 0
DWIDTH 57 0
BBX 50 61 4 -3
BITMAP
0000000001FF80
0000000001FF00
0000008003FF00
00007FFF07FE00
0003FFFFE7FE00
000FFFFFFFFC00
001FFFFFFFF800
003FFFFFFFF800
00FFFFFFFFF000
01FFFFFFFFE000
03FFFFFFFFE000
03FFFFFFFFF000
07FFFC0FFFF800
0FFFE003FFF800
0FFFC003FFFC00
1FFF8003FFFC00
1FFF0007FFFE00
3FFE000FFFFE00
3FFC000FFFFF00
3FFC001FFFFF00
7FF8003FFFFF00
7FF8003FF7FF80
7FF0007FE7FF80
FFF0007FC7FF80
FFF000FFC3FF80
FFF001FF83FF80
FFF001FF03FF80
FFE003FF03FFC0
FFE007FE03FFC0
FFE007FC03FFC0
FFE00FFC03FFC0
FFE01FF803FFC0
FFE01FF803FFC0
FFE03FF003FFC0
FFE07FE003FFC0
FFF07FE003FF80
FFF0FFC003FF80
FFF0FF8007FF80
7FF1FF8007FF80
7FFBFF0007FF80
7FFBFE000FFF00
7FFFFE000FFF00
3FFFFC001FFF00
3FFFFC001FFE00
3FFFF8003FFE00
1FFFF0007FFE00
1FFFF000FFFC00
0FFFE001FFF800
07FFF80FFFF800
07FFFFFFFFF000
03FFFFFFFFE000
01FFFFFFFFC000
03FFFFFFFF8000
07FFFFFFFF0000
07FFFFFFFE0000
0FFFFFFFF80000
1FFBFFFFF00000
1FF87FFF800000
3FF003E0000000
7FE00000000000
7FE00000000000
ENDCHAR
STARTCHAR 00D9
ENCODING 217
SWIDTH 681 0
DWIDTH 53 0
BBX 45 77 4 -1
BITMAP
00FFE0000000
007FE0000000
003FF0000000
003FF8000000
001FF8000000
000FFC000000
000FFC000000
0007FE000000
0007FE000000
0003FF000000
0001FF000000
0001FF800000
0000FF800000
00007FC00000
00007FC00000
00003FE00000
000000000000
000000000000
000000000000
000000000000
000000000000
000000000000
FFE000003FF8
FFE000003FF8
FFE000003FF8
FFE000003FF8
FFE000003FF8
FFE000003FF8
FFE000003FF8
FFE000003FF8
FFE000003FF8
FFE000003FF8
FFE000003FF8
FFE000003FF8
FFE000003FF8
FFE000003FF8
FFE000003FF8
FFE000003FF8
FFE000003FF8
FFE000003FF8
FFE000003FF8
FFE000003FF8
FFE000003FF8
FFE000003FF8
FFE000003FF8
FFE000003FF8
FFE000003FF8
FFE000003FF8
FFE000003FF8
FFE000003FF8
FFE000003FF8
FFE000003FF8
FFE000003FF8
FFE000003FF8
FFE000003FF8
FFE000003FF8
FFE000003FF8
7FF000003FF8
7FF000007FF0
7FF000007FF0
7FF800007FF0
7FF80000FFF0
3FFC0000FFF0
3FFE0001FFE0
3FFF0003FFE0
1FFF800FFFC0
1FFFFFFFFFC0
0FFFFFFFFF80
0FFFFFFFFF80
07FFFFFFFF00
03FFFFFFFE00
01FFFFFFFC00
00FFFFFFF800
003FFFFFE000
000FFFFFC000
0003FFFE0000
00001FC00000
ENDCHAR
STARTCHAR 00DA
ENCODING 218
SWIDTH 681 0
DWIDTH 53 0
BBX 45 77 4 -1
BITMAP
0000003FF800
0000003FF000
0000007FF000
0000007FE000
000000FFC000
000000FFC000
000001FF8000
000001FF0000
000003FF0000
000003FE0000
000007FC0000
000007FC0000
00000FF80000
00000FF80000
00001FF00000
00001FE00000
000000000000
000000000000
000000000000
000000000000
000000000000
000000000000
FFE000003FF8
FFE000003FF8
FFE000003FF8
FFE000003FF8
FFE000003FF8
FFE000003FF8
FFE000003FF8
FFE000003FF8
FFE000003FF8
FFE000003FF8
FFE000003FF8
FFE000003FF8
FFE000003FF8
FFE000003FF8
FFE000003FF8
FFE000003FF8
FFE000003FF8
FFE000003FF8
FFE000003FF8
FFE000003FF8
FFE000003FF8
FFE000003FF8
FFE000003FF8
FFE000003FF8
FFE000003FF8
FFE000003FF8
FFE000003FF8
FFE000003FF8
FFE000003FF8
FFE000003FF8
FFE000003FF8
FFE000003FF8
FFE000003FF8
FFE000003FF8
FFE000003FF8
7FF000003FF8
7FF000007FF0
7FF000007FF0
7FF800007FF0
7FF80000FFF0
3FFC0000FFF0
3FFE0001FFE0
3FFF0003FFE0
1FFF800FFFC0
1FFFFFFFFFC0
0FFFFFFFFF80
0FFFFFFFFF80
07FFFFFFFF00
03FFFFFFFE00
01FFFFFFFC00
00FFFFFFF800
003FFFFFE000
000FFFFFC000
0003FFFE0000
00001FC00000
ENDCHAR
STARTCHAR 00DB
ENCODING 219
SWIDTH 681 0
DWIDTH 53 0
BBX 45 73 4 -1
BITMAP
00001FE00000
00003FF00000
00007FF80000
0000FFFC0000
0001FFFC0000
0003FFFE0000
0007FFFF0000
000FFDFF8000
001FF8FFC000
003FF07FE000
007FE03FF000
007FC01FF800
00FF800FFC00
000000000000
000000000000
000000000000
000000000000
000000000000
FFE000003FF8
FFE000003FF8
FFE000003FF8
FFE000003FF8
FFE000003FF8
FFE000003FF8
FFE000003FF8
FFE000003FF8
FFE000003FF8
FFE000003FF8
FFE000003FF8
FFE000003FF8
FFE000003FF8
FFE000003FF8
FFE000003FF8
FFE000003FF8
FFE000003FF8
FFE000003FF8
FFE000003FF8
FFE000003FF8
FFE000003FF8
FFE000003FF8
FFE000003FF8
FFE000003FF8
FFE000003FF8
FFE000003FF8
FFE000003FF8
FFE000003FF8
FFE000003FF8
FFE000003FF8
FFE000003FF8
FFE000003FF8
FFE000003FF8
FFE000003FF8
FFE000003FF8
7FF000003FF8
7FF000007FF0
7FF000007FF0
7FF800007FF0
7FF80000FFF0
3FFC0000FFF0
3FFE0001FFE0
3FFF0003FFE0
1FFF800FFFC0
1FFFFFFFFFC0
0FFFFFFFFF80
0FFFFFFFFF80
07FFFFFFFF00
03FFFFFFFE00
01FFFFFFFC00
00FFFFFFF800
003FFFFFE000
000FFFFFC000
0003FFFE0000
00001FC00000
ENDCHAR
STARTCHAR 00DC
ENCODING 220
SWIDTH 681 0
DWIDTH 53 0
BBX 45 75 4 -1
BITMAP
000400000000
003F8003F000
007FC00FFC00
00FFC00FFC00
00FFE01FFE00
01FFE01FFE00
01FFE01FFE00
01FFE01FFE00
00FFE01FFE00
00FFE00FFC00
007FC007FC00
003F8003F000
000000000000
000000000000
000000000000
000000000000
000000000000
000000000000
000000000000
000000000000
FFE000003FF8
FFE000003FF8
FFE000003FF8
FFE000003FF8
FFE000003FF8
FFE000003FF8
FFE000003FF8
FFE000003FF8
FFE000003FF8
FFE000003FF8
FFE000003FF8
FFE000003FF8
FFE000003FF8
FFE000003FF8
FFE000003FF8
FFE000003FF8
FFE000003FF8
FFE000003FF8
FFE000003FF8
FFE000003FF8
FFE000003FF8
FFE000003FF8
FFE000003FF8
FFE000003FF8
FFE000003FF8
FFE000003FF8
FFE000003FF8
FFE000003FF8
FFE000003FF8
FFE000003FF8
FFE000003FF8
FFE000003FF8
FFE000003FF8
FFE000003FF8
FFE000003FF8
7FF000003FF8
7FF000007FF0
7FF000007FF0
7FF800007FF0
7FF80000FFF0
3FFC0000FFF0
3FFE0001FFE0
3FFF0003FFE0
1FFF800FFFC0
1FFFFFFFFFC0
0FFFFFFFFF80
0FFFFFFFFF80
07FFFFFFFF00
03FFFFFFFE00
01FFFFFFFC00
00FFFFFFF800
003FFFFFE000
000FFFFFC000
0003FFFE0000
00001FC00000
ENDCHAR
STARTCHAR 00DD
ENCODING 221
SWIDTH 642 0
DWIDTH 50 0
BBX 46 76 2 0
BITMAP
0000001FF800
0000003FF800
0000003FF000
0000007FE000
0000007FE000
000000FFC000
000000FFC000
000001FF8000
000001FF0000
000003FF0000
000003FE0000
000007FC0000
000007FC0000
00000FF80000
00000FF00000
00001FF00000
000000000000
000000000000
000000000000
000000000000
000000000000
000000000000
FFF000001FFC
7FF000003FF8
7FF800003FF8
3FF800007FF0
3FFC00007FF0
1FFC0000FFE0
1FFE0000FFE0
0FFE0001FFC0
0FFF0001FFC0
07FF0003FF80
07FF0003FF80
03FF8007FF00
03FF8007FF00
01FFC00FFE00
01FFC00FFE00
00FFE01FFC00
00FFE01FFC00
007FF01FF800
007FF03FF800
003FF83FF000
003FF87FF000
001FFC7FE000
001FFCFFE000
000FFEFFC000
000FFFFFC000
0007FFFF8000
0007FFFF8000
0003FFFF0000
0001FFFF0000
0001FFFE0000
0000FFFE0000
0000FFFC0000
00007FFC0000
00007FF80000
00003FF80000
00003FF00000
00003FF00000
00003FF00000
00003FF00000
00003FF00000
00003FF00000
00003FF00000
00003FF00000
00003FF00000
00003FF00000
00003FF00000
00003FF00000
00003FF00000
00003FF00000
00003FF00000
00003FF00000
00003FF00000
00003FF00000
00003FF00000
ENDCHAR
STARTCHAR 00DE
ENCODING 222
SWIDTH 591 0
DWIDTH 46 0
BBX 40 54 4 0
BITMAP
FFE0000000
FFE0000000
FFE0000000
FFE0000000
FFE0000000
FFE0000000
FFE0000000
FFE0000000
FFFFFF8000
FFFFFFF800
FFFFFFFE00
FFFFFFFF80
FFFFFFFFC0
FFFFFFFFE0
FFFFFFFFF0
FFFFFFFFF8
FFFFFFFFF8
FFFFFFFFFC
FFE000FFFC
FFE0003FFE
FFE0000FFE
FFE0000FFE
FFE00007FF
FFE00007FF
FFE00003FF
FFE00003FF
FFE00003FF
FFE00003FF
FFE00003FF
FFE00007FF
FFE00007FF
FFE00007FF
FFE0000FFE
FFE0000FFE
FFE0003FFE
FFE000FFFC
FFFFFFFFFC
FFFFFFFFF8
FFFFFFFFF8
FFFFFFFFF0
FFFFFFFFE0
FFFFFFFFC0
FFFFFFFF00
FFFFFFFC00
FFFFFFE000
FFE0000000
FFE0000000
FFE0000000
FFE0000000
FFE0000000
FFE0000000
FFE0000000
FFE0000000
FFE0000000
ENDCHAR
STARTCHAR 00DF
ENCODING 223
SWIDTH 591 0
DWIDTH 46 0
BBX 39 57 4 -1
BITMAP
0003FE0000
003FFFE000
00FFFFFC00
01FFFFFE00
07FFFFFF80
0FFFFFFFC0
0FFFFFFFC0
1FFFFFFFE0
1FFFFFFFF0
3FFE01FFF0
3FF8007FF0
7FF8003FF8
7FF0001FF8
7FF0001FF8
7FF0001FF8
7FE0001FF8
FFE0001FF8
FFE0001FF8
FFE0001FF8
FFE0001FF8
FFE0003FF0
FFE0007FF0
FFE007FFE0
FFE1FFFFC0
FFE1FFFF80
FFE1FFFF00
FFE1FFFC00
FFE1FFFC00
FFE1FFFF00
FFE1FFFFC0
FFE1FFFFE0
FFE000FFF0
FFE0003FF0
FFE0001FF8
FFE0000FF8
FFE0000FFC
FFE00007FC
FFE00007FC
FFE00007FC
FFE00007FE
FFE00007FE
FFE00007FE
FFE0000FFC
FFE0000FFC
FFE0001FFC
FFE0003FFC
FFE000FFF8
FFE187FFF8
FFE1FFFFF0
FFE1FFFFF0
FFE1FFFFE0
FFE1FFFFC0
FFE1FFFF80
FFE1FFFF00
FFE1FFFC00
FFE1FFF000
00007F0000
ENDCHAR
STARTCHAR 00E0
ENCODING 224
SWIDTH 604 0
DWIDTH 47 0
BBX 40 63 3 -1
BITMAP
01FFC00000
00FFC00000
00FFE00000
007FE00000
003FF00000
003FF00000
001FF80000
000FF80000
000FFC0000
0007FC0000
0007FE0000
0003FE0000
0001FF0000
0001FF0000
0000FF8000
0000000000
0000000000
0000000000
0000000000
0000000000
000FF80000
007FFE07FF
01FFFF87FF
03FFFFC7FF
07FFFFE7FF
0FFFFFE7FF
0FFFFFF7FF
1FFFFFFFFF
3FFFFFFFFF
3FFF00FFFF
3FFE007FFF
7FFC003FFF
7FF8001FFF
7FF0000FFF
FFF0000FFF
FFF0000FFF
FFE00007FF
FFE00007FF
FFE00007FF
FFE00007FF
FFE00007FF
FFE00007FF
FFE00007FF
FFE00007FF
FFE00007FF
FFE00007FF
FFE0000FFF
FFF0000FFF
FFF0000FFF
7FF8001FFF
7FF8001FFF
7FFC003FFF
3FFE007FFF
3FFF81FFFF
1FFFFFFFFF
1FFFFFF7FF
0FFFFFF7FF
07FFFFE7FF
07FFFFC7FF
01FFFF87FF
00FFFF07FF
003FFC07FF
0001C00000
ENDCHAR
STARTCHAR 00E1
ENCODING 225
SWIDTH 604 0
DWIDTH 47 0
BBX 40 63 3 -1
BITMAP
000000FFE0
000000FFC0
000001FFC0
000001FF80
000003FF00
000003FF00
000007FE00
000007FC00
00000FFC00
00000FF800
00001FF000
00001FF000
00003FE000
00003FC000
00007FC000
0000000000
0000000000
0000000000
0000000000
0000000000
000FF80000
007FFE07FF
01FFFF87FF
03FFFFC7FF
07FFFFE7FF
0FFFFFE7FF
0FFFFFF7FF
1FFFFFFFFF
3FFFFFFFFF
3FFF00FFFF
3FFE007FFF
7FFC003FFF
7FF8001FFF
7FF0000FFF
FFF0000FFF
FFF0000FFF
FFE00007FF
FFE00007FF
FFE00007FF
FFE00007FF
FFE00007FF
FFE00007FF
FFE00007FF
FFE00007FF
FFE00007FF
FFE00007FF
FFE0000FFF
FFF0000FFF
FFF0000FFF
7FF8001FFF
7FF8001FFF
7FFC003FFF
3FFE007FFF
3FFF81FFFF
1FFFFFFFFF
1FFFFFF7FF
0FFFFFF7FF
07FFFFE7FF
07FFFFC7FF
01FFFF87FF
00FFFF07FF
003FFC07FF
0001C00000
ENDCHAR
STARTCHAR 00E2
ENCODING 226
SWIDTH 604 0
DWIDTH 47 0
BBX 40 59 3 -1
BITMAP
0000FFC000
0001FFE000
0003FFF000
0007FFF000
0007FFF800
000FFFFC00
001FFFFE00
003FF3FF00
007FE1FF80
00FFC0FFC0
01FF807FE0
03FF003FF0
0000000000
0000000000
0000000000
0000000000
000FF80000
007FFE07FF
01FFFF87FF
03FFFFC7FF
07FFFFE7FF
0FFFFFE7FF
0FFFFFF7FF
1FFFFFFFFF
3FFFFFFFFF
3FFF00FFFF
3FFE007FFF
7FFC003FFF
7FF8001FFF
7FF0000FFF
FFF0000FFF
FFF0000FFF
FFE00007FF
FFE00007FF
FFE00007FF
FFE00007FF
FFE00007FF
FFE00007FF
FFE00007FF
FFE00007FF
FFE00007FF
FFE00007FF
FFE0000FFF
FFF0000FFF
FFF0000FFF
7FF8001FFF
7FF8001FFF
7FFC003FFF
3FFE007FFF
3FFF81FFFF
1FFFFFFFFF
1FFFFFF7FF
0FFFFFF7FF
07FFFFE7FF
07FFFFC7FF
01FFFF87FF
00FFFF07FF
003FFC07FF
0001C00000
ENDCHAR
STARTCHAR 00E3
ENCODING 227
SWIDTH 604 0
DWIDTH 47 0
BBX 40 59 3 -1
BITMAP
0007E00F80
001FF80F80
003FFE1F80
003FFFFF80
007FFFFF80
007FFFFF80
007FFFFF00
00FC3FFF00
00FC0FFE00
00FC01F800
0000000000
0000000000
0000000000
0000000000
0000000000
0000000000
000FF80000
007FFE07FF
01FFFF87FF
03FFFFC7FF
07FFFFE7FF
0FFFFFE7FF
0FFFFFF7FF
1FFFFFFFFF
3FFFFFFFFF
3FFF00FFFF
3FFE007FFF
7FFC003FFF
7FF8001FFF
7FF0000FFF
FFF0000FFF
FFF0000FFF
FFE00007FF
FFE00007FF
FFE00007FF
FFE00007FF
FFE00007FF
FFE00007FF
FFE00007FF
FFE00007FF
FFE00007FF
FFE00007FF
FFE0000FFF
FFF0000FFF
FFF0000FFF
7FF8001FFF
7FF8001FFF
7FFC003FFF
3FFE007FFF
3FFF81FFFF
1FFFFFFFFF
1FFFFFF7FF
0FFFFFF7FF
07FFFFE7FF
07FFFFC7FF
01FFFF87FF
00FFFF07FF
003FFC07FF
0001C00000
ENDCHAR
STARTCHAR 00E4
ENCODING 228
SWIDTH 604 0
DWIDTH 47 0
BBX 40 61 3 -1
BITMAP
007C0007C0
01FF001FE0
01FF803FF0
03FF803FF8
03FF807FF8
03FFC07FF8
03FFC07FF8
03FF807FF8
03FF803FF8
01FF003FF0
00FE001FE0
0038000780
0000000000
0000000000
0000000000
0000000000
0000000000
0000000000
000FF80000
007FFE07FF
01FFFF87FF
03FFFFC7FF
07FFFFE7FF
0FFFFFE7FF
0FFFFFF7FF
1FFFFFFFFF
3FFFFFFFFF
3FFF00FFFF
3FFE007FFF
7FFC003FFF
7FF8001FFF
7FF0000FFF
FFF0000FFF
FFF0000FFF
FFE00007FF
FFE00007FF
FFE00007FF
FFE00007FF
FFE00007FF
FFE00007FF
FFE00007FF
FFE00007FF
FFE00007FF
FFE00007FF
FFE0000FFF
FFF0000FFF
FFF0000FFF
7FF8001FFF
7FF8001FFF
7FFC003FFF
3FFE007FFF
3FFF81FFFF
1FFFFFFFFF
1FFFFFF7FF
0FFFFFF7FF
07FFFFE7FF
07FFFFC7FF
01FFFF87FF
00FFFF07FF
003FFC07FF
0001C00000
ENDCHAR
STARTCHAR 00E5
ENCODING 229
SWIDTH 604 0
DWIDTH 47 0
BBX 40 63 3 -1
BITMAP
00003F0000
0000FFC000
0001FFE000
0003FFE000
0003F3F000
0007C1F000
0007C0F800
0007C0F800
0007C0F800
0007C1F000
0003F3F000
0003FFE000
0001FFE000
0000FFC000
00007F0000
0000000000
0000000000
0000000000
0000000000
0000000000
000FF80000
007FFE07FF
01FFFF87FF
03FFFFC7FF
07FFFFE7FF
0FFFFFE7FF
0FFFFFF7FF
1FFFFFFFFF
3FFFFFFFFF
3FFF00FFFF
3FFE007FFF
7FFC003FFF
7FF8001FFF
7FF0000FFF
FFF0000FFF
FFF0000FFF
FFE00007FF
FFE00007FF
FFE00007FF
FFE00007FF
FFE00007FF
FFE00007FF
FFE00007FF
FFE00007FF
FFE00007FF
FFE00007FF
FFE0000FFF
FFF0000FFF
FFF0000FFF
7FF8001FFF
7FF8001FFF
7FFC003FFF
3FFE007FFF
3FFF81FFFF
1FFFFFFFFF
1FFFFFF7FF
0FFFFFF7FF
07FFFFE7FF
07FFFFC7FF
01FFFF87FF
00FFFF07FF
003FFC07FF
0001C00000
ENDCHAR
STARTCHAR 00E6
ENCODING 230
SWIDTH 900 0
DWIDTH 70 0
BBX 65 43 3 -1
BITMAP
0003FE00007FE00000
003FFFC003FFFC0000
007FFFF007FFFF0000
01FFFFF81FFFFF8000
03FFFFFC3FFFFFC000
07FFFFFE7FFFFFE000
0FFFFFFEFFFFFFF000
0FFFFFFFFFFFFFF800
1FFFCFFFFFF0FFFC00
1FFE01FFFF803FFC00
3FF800FFFF000FFE00
3FF0007FFE0007FE00
3FF0007FFC0007FE00
3FF0003FFC0003FF00
0000003FF80003FF00
0000003FF80003FF00
0000003FF80003FF00
0000003FF80003FF00
000FFFFFFFFFFFFF80
007FFFFFFFFFFFFF80
03FFFFFFFFFFFFFF80
0FFFFFFFFFFFFFFF80
1FFFFFFFFFFFFFFF80
3FFFFFFFFFFFFFFF80
3FFFC03FF800000000
7FF8003FF800000000
7FF0003FF800000000
7FE0003FF800000000
FFE0003FF800000000
FFE0003FFC0007FF00
FFE0007FFC0007FF00
FFE0007FFE000FFE00
7FF000FFFF001FFE00
7FF001FFFFC07FFC00
7FFC0FFFFFFFFFFC00
7FFFFFF9FFFFFFF800
3FFFFFF8FFFFFFF000
1FFFFFF07FFFFFE000
1FFFFFE03FFFFFC000
07FFFF801FFFFF8000
03FFFF0007FFFE0000
00FFFC0001FFF80000
00078000001F800000
ENDCHAR
STARTCHAR 00E7
ENCODING 231
SWIDTH 565 0
DWIDTH 44 0
BBX 39 61 3 -19
BITMAP
0001FF8000
000FFFF000
003FFFFC00
00FFFFFF00
01FFFFFF80
03FFFFFFC0
07FFFFFFE0
0FFFFFFFE0
0FFFFFFFF0
1FFF00FFF8
3FFE007FF8
3FFC003FF8
3FF8001FFC
7FF0001FFC
7FF0000FFC
7FF0000FFE
7FE0000000
FFE0000000
FFE0000000
FFE0000000
FFE0000000
FFE0000000
FFE0000000
FFE0000000
FFE0000000
FFE0000000
7FE0000FFE
7FF0000FFC
7FF0000FFC
7FF8001FFC
3FF8001FFC
3FFC003FF8
1FFE007FF8
1FFF81FFF0
0FFFFFFFF0
07FFFFFFE0
07FFFFFFC0
03FFFFFF80
01FFFFFF00
007FFFFE00
003FFFF800
000FFFE000
00007E0000
00007C0000
00007C0000
0000FFC000
0000FFF000
0000FFF800
0001FFFC00
0001FFFC00
0000007C00
0000007E00
0000003E00
0000007E00
000000FC00
0000FFFC00
0000FFFC00
0000FFF800
0000FFF000
0000FFE000
00007F8000
ENDCHAR
STARTCHAR 00E8
ENCODING 232
SWIDTH 565 0
DWIDTH 44 0
BBX 39 63 3 -1
BITMAP
03FF800000
01FF800000
01FFC00000
00FFC00000
007FE00000
007FE00000
003FF00000
001FF00000
001FF80000
000FF80000
000FFC0000
0007FC0000
0003FE0000
0003FE0000
0001FF0000
0000000000
0000000000
0000000000
0000000000
0000000000
0001FF8000
000FFFF000
003FFFFC00
00FFFFFE00
01FFFFFF80
03FFFFFFC0
07FFFFFFC0
0FFFFFFFE0
0FFF01FFF0
1FFC007FF0
3FF8003FF8
3FF0001FF8
3FF0001FF8
7FF0000FFC
7FE0000FFC
7FE0000FFC
7FE0000FFC
FFFFFFFFFC
FFFFFFFFFE
FFFFFFFFFE
FFFFFFFFFE
FFFFFFFFFE
FFFFFFFFFE
FFFFFFFFFE
FFE0000000
FFE0000000
7FE0000000
7FE0000000
7FE0000000
7FF0001FFC
3FF0001FFC
3FF8003FF8
1FFC007FF8
1FFF01FFF0
0FFFFFFFF0
0FFFFFFFE0
07FFFFFFC0
03FFFFFF80
01FFFFFF00
007FFFFE00
003FFFF800
0007FFE000
00003C0000
ENDCHAR
STARTCHAR 00E9
ENCODING 233
SWIDTH 565 0
DWIDTH 44 0
BBX 39 63 3 -1
BITMAP
000001FFC0
000001FF80
000003FF80
000003FF00
000007FE00
000007FE00
00000FFC00
00000FF800
00001FF800
00001FF000
00003FE000
00003FE000
00007FC000
00007F8000
0000FF8000
0000000000
0000000000
0000000000
0000000000
0000000000
0001FF8000
000FFFF000
003FFFFC00
00FFFFFE00
01FFFFFF80
03FFFFFFC0
07FFFFFFC0
0FFFFFFFE0
0FFF01FFF0
1FFC007FF0
3FF8003FF8
3FF0001FF8
3FF0001FF8
7FF0000FFC
7FE0000FFC
7FE0000FFC
7FE0000FFC
FFFFFFFFFC
FFFFFFFFFE
FFFFFFFFFE
FFFFFFFFFE
FFFFFFFFFE
FFFFFFFFFE
FFFFFFFFFE
FFE0000000
FFE0000000
7FE0000000
7FE0000000
7FE0000000
7FF0001FFC
3FF0001FFC
3FF8003FF8
1FFC007FF8
1FFF01FFF0
0FFFFFFFF0
0FFFFFFFE0
07FFFFFFC0
03FFFFFF80
01FFFFFF00
007FFFFE00
003FFFF800
0007FFE000
00003C0000
ENDCHAR
STARTCHAR 00EA
ENCODING 234
SWIDTH 565 0
DWIDTH 44 0
BBX 39 59 3 -1
BITMAP
0001FF8000
0003FFC000
0007FFC000
000FFFE000
000FFFF000
001FFFF800
003FFFFC00
007FE7FE00
00FFC3FF00
01FF81FF80
03FF00FFC0
07FE007FE0
0000000000
0000000000
0000000000
0000000000
0001FF8000
000FFFF000
003FFFFC00
00FFFFFE00
01FFFFFF80
03FFFFFFC0
07FFFFFFC0
0FFFFFFFE0
0FFF01FFF0
1FFC007FF0
3FF8003FF8
3FF0001FF8
3FF0001FF8
7FF0000FFC
7FE0000FFC
7FE0000FFC
7FE0000FFC
FFFFFFFFFC
FFFFFFFFFE
FFFFFFFFFE
FFFFFFFFFE
FFFFFFFFFE
FFFFFFFFFE
FFFFFFFFFE
FFE0000000
FFE0000000
7FE0000000
7FE0000000
7FE0000000
7FF0001FFC
3FF0001FFC
3FF8003FF8
1FFC007FF8
1FFF01FFF0
0FFFFFFFF0
0FFFFFFFE0
07FFFFFFC0
03FFFFFF80
01FFFFFF00
007FFFFE00
003FFFF800
0007FFE000
00003C0000
ENDCHAR
STARTCHAR 00EB
ENCODING 235
SWIDTH 565 0
DWIDTH 44 0
BBX 39 61 3 -1
BITMAP
00F8000F80
03FE003FC0
03FF007FE0
07FF007FF0
07FF00FFF0
07FF80FFF0
07FF80FFF0
07FF00FFF0
07FF007FF0
03FE007FE0
01FC003FC0
0070000F00
0000000000
0000000000
0000000000
0000000000
0000000000
0000000000
0001FF8000
000FFFF000
003FFFFC00
00FFFFFE00
01FFFFFF80
03FFFFFFC0
07FFFFFFC0
0FFFFFFFE0
0FFF01FFF0
1FFC007FF0
3FF8003FF8
3FF0001FF8
3FF0001FF8
7FF0000FFC
7FE0000FFC
7FE0000FFC
7FE0000FFC
FFFFFFFFFC
FFFFFFFFFE
FFFFFFFFFE
FFFFFFFFFE
FFFFFFFFFE
FFFFFFFFFE
FFFFFFFFFE
FFE0000000
FFE0000000
7FE0000000
7FE0000000
7FE0000000
7FF0001FFC
3FF0001FFC
3FF8003FF8
1FFC007FF8
1FFF01FFF0
0FFFFFFFF0
0FFFFFFFE0
07FFFFFFC0
03FFFFFF80
01FFFFFF00
007FFFFE00
003FFFF800
0007FFE000
00003C0000
ENDCHAR
STARTCHAR 00EC
ENCODING 236
SWIDTH 282 0
DWIDTH 22 0
BBX 19 62 -3 0
BITMAP
FFE000
7FE000
7FF000
3FF000
1FF800
1FF800
0FFC00
07FC00
07FE00
03FE00
01FF00
01FF00
00FF80
007F80
007FC0
000000
000000
000000
000000
000000
000000
007FE0
007FE0
007FE0
007FE0
007FE0
007FE0
007FE0
007FE0
007FE0
007FE0
007FE0
007FE0
007FE0
007FE0
007FE0
007FE0
007FE0
007FE0
007FE0
007FE0
007FE0
007FE0
007FE0
007FE0
007FE0
007FE0
007FE0
007FE0
007FE0
007FE0
007FE0
007FE0
007FE0
007FE0
007FE0
007FE0
007FE0
007FE0
007FE0
007FE0
007FE0
ENDCHAR
STARTCHAR 00ED
ENCODING 237
SWIDTH 282 0
DWIDTH 22 0
BBX 19 62 6 0
BITMAP
00FFE0
00FFC0
01FFC0
01FF80
03FF00
03FF00
07FE00
07FC00
0FFC00
0FF800
1FF800
1FF000
3FE000
3FE000
7FC000
000000
000000
000000
000000
000000
000000
FFC000
FFC000
FFC000
FFC000
FFC000
FFC000
FFC000
FFC000
FFC000
FFC000
FFC000
FFC000
FFC000
FFC000
FFC000
FFC000
FFC000
FFC000
FFC000
FFC000
FFC000
FFC000
FFC000
FFC000
FFC000
FFC000
FFC000
FFC000
FFC000
FFC000
FFC000
FFC000
FFC000
FFC000
FFC000
FFC000
FFC000
FFC000
FFC000
FFC000
FFC000
ENDCHAR
STARTCHAR 00EE
ENCODING 238
SWIDTH 282 0
DWIDTH 22 0
BBX 30 58 -4 0
BITMAP
003FF000
007FF800
007FFC00
00FFFE00
01FFFF00
03FFFF00
07FFFF80
0FFCFFC0
1FF87FE0
3FF03FF0
7FE01FF8
FFC00FFC
00000000
00000000
00000000
00000000
00000000
003FF000
003FF000
003FF000
003FF000
003FF000
003FF000
003FF000
003FF000
003FF000
003FF000
003FF000
003FF000
003FF000
003FF000
003FF000
003FF000
003FF000
003FF000
003FF000
003FF000
003FF000
003FF000
003FF000
003FF000
003FF000
003FF000
003FF000
003FF000
003FF000
003FF000
003FF000
003FF000
003FF000
003FF000
003FF000
003FF000
003FF000
003FF000
003FF000
003FF000
003FF000
ENDCHAR
STARTCHAR 00EF
ENCODING 239
SWIDTH 282 0
DWIDTH 22 0
BBX 31 60 -4 0
BITMAP
1F0001F0
3FC007FC
7FE00FFC
FFE00FFE
FFF00FFE
FFF01FFE
FFF00FFE
FFE00FFE
FFE00FFE
7FE007FC
3FC003F8
0F0000E0
00000000
00000000
00000000
00000000
00000000
00000000
00000000
003FF000
003FF000
003FF000
003FF000
003FF000
003FF000
003FF000
003FF000
003FF000
003FF000
003FF000
003FF000
003FF000
003FF000
003FF000
003FF000
003FF000
003FF000
003FF000
003FF000
003FF000
003FF000
003FF000
003FF000
003FF000
003FF000
003FF000
003FF000
003FF000
003FF000
003FF000
003FF000
003FF000
003FF000
003FF000
003FF000
003FF000
003FF000
003FF000
003FF000
003FF000
ENDCHAR
STARTCHAR 00F0
ENCODING 240
SWIDTH 604 0
DWIDTH 47 0
BBX 40 64 2 0
BITMAP
000FF00000
000FFF0018
000FFFC07C
000FFFF1FC
000FFFFFFE
000FFFFFFE
000FFFFFFC
000FFFFFF0
00003FFFC0
00000FFFE0
00001FFFF0
00007FFFF0
0000FFFFF8
00007FFFF8
00007F3FFC
00003C1FFC
0000381FFE
0000000FFE
0000000FFE
0000000FFE
00000007FE
000FF807FF
007FFE07FF
00FFFF87FF
03FFFFC7FF
07FFFFE7FF
0FFFFFF7FF
0FFFFFF7FF
1FFFFFFFFF
3FFFFFFFFF
3FFF00FFFF
3FFC007FFF
7FFC003FFF
7FF8001FFF
7FF0000FFF
FFF0000FFF
FFF0000FFF
FFE00007FF
FFE00007FF
FFE00007FF
FFE00007FF
FFE00007FF
FFE00007FF
FFE00007FF
FFE00007FF
FFE00007FF
FFE00007FF
FFE0000FFE
7FF0000FFE
7FF0000FFE
7FF8001FFC
3FF8001FFC
3FFC003FFC
1FFE007FF8
1FFF81FFF8
0FFFFFFFF0
0FFFFFFFE0
07FFFFFFC0
03FFFFFF80
01FFFFFF00
007FFFFE00
003FFFF800
0007FFE000
00003E0000
ENDCHAR
STARTCHAR 00F1
ENCODING 241
SWIDTH 591 0
DWIDTH 46 0
BBX 39 58 4 0
BITMAP
000FC03F00
003FF03F00
007FFC3F00
00FFFFFF00
00FFFFFE00
01FFFFFE00
01FFFFFE00
01F87FFC00
01F81FF800
01F807E000
0000000000
0000000000
0000000000
0000000000
0000000000
0000000000
00000FF800
FFE07FFE00
FFE0FFFF80
FFE1FFFFC0
FFE3FFFFE0
FFE7FFFFF0
FFEFFFFFF0
FFFFFFFFF8
FFFFFFFFF8
FFFF01FFF8
FFFC007FFC
FFF8003FFC
FFF8003FFC
FFF0001FFC
FFF0001FFC
FFF0000FFE
FFE0000FFE
FFE0000FFE
FFE0000FFE
FFE0000FFE
FFE0000FFE
FFE0000FFE
FFE0000FFE
FFE0000FFE
FFE0000FFE
FFE0000FFE
FFE0000FFE
FFE0000FFE
FFE0000FFE
FFE0000FFE
FFE0000FFE
FFE0000FFE
FFE0000FFE
FFE0000FFE
FFE0000FFE
FFE0000FFE
FFE0000FFE
FFE0000FFE
FFE0000FFE
FFE0000FFE
FFE0000FFE
FFE0000FFE
ENDCHAR
STARTCHAR 00F2
ENCODING 242
SWIDTH 578 0
DWIDTH 45 0
BBX 39 63 3 -1
BITMAP
03FF000000
03FF800000
01FF800000
00FFC00000
00FFE00000
007FE00000
003FF00000
003FF00000
001FF80000
000FF80000
000FFC0000
0007FC0000
0003FE0000
0003FE0000
0001FF0000
0000000000
0000000000
0000000000
0000000000
0000000000
0001FF8000
000FFFF000
003FFFFC00
00FFFFFF00
01FFFFFF80
03FFFFFFC0
07FFFFFFE0
0FFFFFFFE0
1FFFFFFFF0
1FFF00FFF8
3FFC007FF8
3FFC003FFC
3FF8001FFC
7FF0001FFC
7FF0000FFE
7FF0000FFE
7FE0000FFE
FFE00007FE
FFE00007FE
FFE00007FE
FFE00007FE
FFE00007FE
FFE00007FE
FFE00007FE
FFE00007FE
FFE0000FFE
7FE0000FFE
7FF0000FFE
7FF0000FFC
7FF8001FFC
3FF8003FFC
3FFC003FF8
1FFE007FF8
1FFF81FFF0
0FFFFFFFF0
0FFFFFFFE0
07FFFFFFC0
03FFFFFF80
01FFFFFF00
007FFFFE00
003FFFF800
0007FFE000
00003E0000
ENDCHAR
STARTCHAR 00F3
ENCODING 243
SWIDTH 578 0
DWIDTH 45 0
BBX 39 63 3 -1
BITMAP
000001FFC0
000001FF80
000003FF00
000003FF00
000007FE00
000007FE00
00000FFC00
00000FF800
00001FF800
00001FF000
00003FE000
00007FE000
00007FC000
0000FF8000
0000FF8000
0000000000
0000000000
0000000000
0000000000
0000000000
0001FF8000
000FFFF000
003FFFFC00
00FFFFFF00
01FFFFFF80
03FFFFFFC0
07FFFFFFE0
0FFFFFFFE0
1FFFFFFFF0
1FFF00FFF8
3FFC007FF8
3FFC003FFC
3FF8001FFC
7FF0001FFC
7FF0000FFE
7FF0000FFE
7FE0000FFE
FFE00007FE
FFE00007FE
FFE00007FE
FFE00007FE
FFE00007FE
FFE00007FE
FFE00007FE
FFE00007FE
FFE0000FFE
7FE0000FFE
7FF0000FFE
7FF0000FFC
7FF8001FFC
3FF8003FFC
3FFC003FF8
1FFE007FF8
1FFF81FFF0
0FFFFFFFF0
0FFFFFFFE0
07FFFFFFC0
03FFFFFF80
01FFFFFF00
007FFFFE00
003FFFF800
0007FFE000
00003E0000
ENDCHAR
STARTCHAR 00F4
ENCODING 244
SWIDTH 578 0
DWIDTH 45 0
BBX 39 59 3 -1
BITMAP
0001FF8000
0003FFC000
0007FFC000
000FFFE000
001FFFF000
001FFFF800
003FEFFC00
007FE7FE00
00FFC3FF00
01FF81FF80
03FF00FFC0
07FE007FE0
0000000000
0000000000
0000000000
0000000000
0001FF8000
000FFFF000
003FFFFC00
00FFFFFF00
01FFFFFF80
03FFFFFFC0
07FFFFFFE0
0FFFFFFFE0
1FFFFFFFF0
1FFF00FFF8
3FFC007FF8
3FFC003FFC
3FF8001FFC
7FF0001FFC
7FF0000FFE
7FF0000FFE
7FE0000FFE
FFE00007FE
FFE00007FE
FFE00007FE
FFE00007FE
FFE00007FE
FFE00007FE
FFE00007FE
FFE00007FE
FFE0000FFE
7FE0000FFE
7FF0000FFE
7FF0000FFC
7FF8001FFC
3FF8003FFC
3FFC003FF8
1FFE007FF8
1FFF81FFF0
0FFFFFFFF0
0FFFFFFFE0
07FFFFFFC0
03FFFFFF80
01FFFFFF00
007FFFFE00
003FFFF800
0007FFE000
00003E0000
ENDCHAR
STARTCHAR 00F5
ENCODING 245
SWIDTH 578 0
DWIDTH 45 0
BBX 39 59 3 -1
BITMAP
000FC01F00
003FF01F00
007FFC3F00
007FFFFF00
00FFFFFF00
00FFFFFE00
00FFFFFE00
01F87FFC00
01F81FFC00
01F803F000
0000000000
0000000000
0000000000
0000000000
0000000000
0000000000
0001FF8000
000FFFF000
003FFFFC00
00FFFFFF00
01FFFFFF80
03FFFFFFC0
07FFFFFFE0
0FFFFFFFE0
1FFFFFFFF0
1FFF00FFF8
3FFC007FF8
3FFC003FFC
3FF8001FFC
7FF0001FFC
7FF0000FFE
7FF0000FFE
7FE0000FFE
FFE00007FE
FFE00007FE
FFE00007FE
FFE00007FE
FFE00007FE
FFE00007FE
FFE00007FE
FFE00007FE
FFE0000FFE
7FE0000FFE
7FF0000FFE
7FF0000FFC
7FF8001FFC
3FF8003FFC
3FFC003FF8
1FFE007FF8
1FFF81FFF0
0FFFFFFFF0
0FFFFFFFE0
07FFFFFFC0
03FFFFFF80
01FFFFFF00
007FFFFE00
003FFFF800
0007FFE000
00003E0000
ENDCHAR
STARTCHAR 00F6
ENCODING 246
SWIDTH 578 0
DWIDTH 45 0
BBX 39 61 3 -1
BITMAP
00F8001F80
03FE003FC0
07FE007FE0
07FF007FF0
07FF00FFF0
0FFF00FFF0
07FF00FFF0
07FF00FFF0
07FF007FF0
03FE007FE0
01FC003FC0
0070000F00
0000000000
0000000000
0000000000
0000000000
0000000000
0000000000
0001FF8000
000FFFF000
003FFFFC00
00FFFFFF00
01FFFFFF80
03FFFFFFC0
07FFFFFFE0
0FFFFFFFE0
1FFFFFFFF0
1FFF00FFF8
3FFC007FF8
3FFC003FFC
3FF8001FFC
7FF0001FFC
7FF0000FFE
7FF0000FFE
7FE0000FFE
FFE00007FE
FFE00007FE
FFE00007FE
FFE00007FE
FFE00007FE
FFE00007FE
FFE00007FE
FFE00007FE
FFE0000FFE
7FE0000FFE
7FF0000FFE
7FF0000FFC
7FF8001FFC
3FF8003FFC
3FFC003FF8
1FFE007FF8
1FFF81FFF0
0FFFFFFFF0
0FFFFFFFE0
07FFFFFFC0
03FFFFFF80
01FFFFFF00
007FFFFE00
003FFFF800
0007FFE000
00003E0000
ENDCHAR
STARTCHAR 00F7
ENCODING 247
SWIDTH 591 0
DWIDTH 46 0
BBX 33 43 6 3
BITMAP
0001C00000
000FF00000
001FF80000
001FFC0000
003FFC0000
003FFC0000
003FFC0000
003FFC0000
001FFC0000
001FFC0000
000FF80000
0007E00000
0000000000
0000000000
0000000000
0000000000
0000000000
0000000000
FFFFFFFF80
FFFFFFFF80
FFFFFFFF80
FFFFFFFF80
FFFFFFFF80
FFFFFFFF80
FFFFFFFF80
FFFFFFFF80
0000000000
0000000000
0000000000
0000000000
0000000000
0003C00000
000FF00000
001FF80000
001FFC0000
003FFC0000
003FFC0000
003FFC0000
003FFC0000
001FFC0000
001FF80000
000FF80000
0007E00000
ENDCHAR
STARTCHAR 00F8
ENCODING 248
SWIDTH 578 0
DWIDTH 45 0
BBX 39 48 3 -3
BITMAP
00000007F8
00000007F0
0000000FF0
0003FF8FE0
001FFFFFE0
007FFFFFC0
00FFFFFF80
01FFFFFF80
03FFFFFFC0
07FFFFFFE0
0FFFFFFFE0
1FFFFFFFF0
1FFF01FFF8
3FFC03FFF8
3FFC07FFFC
3FF807FFFC
7FF00FFFFC
7FF00FEFFE
7FF01FEFFE
7FE01FCFFE
FFE03FC7FE
FFE07F87FE
FFE07F07FE
FFE0FF07FE
FFE0FE07FE
FFE1FE07FE
FFE1FC07FE
FFE3FC07FE
FFE7F80FFE
7FE7F00FFE
7FFFF00FFE
7FFFE01FFC
7FFFE01FFC
3FFFC03FFC
3FFFC03FF8
1FFF807FF8
1FFF81FFF0
0FFFFFFFF0
0FFFFFFFE0
07FFFFFFC0
03FFFFFF80
03FFFFFF00
03FFFFFE00
07FFFFF800
0FF7FFE000
0FE03E0000
1FE0000000
1FC0000000
ENDCHAR
STARTCHAR 00F9
ENCODING 249
SWIDTH 578 0
DWIDTH 45 0
BBX 38 63 4 -1
BITMAP
0FFE000000
07FF000000
03FF000000
03FF800000
01FF800000
00FFC00000
00FFC00000
007FE00000
003FE00000
003FF00000
001FF00000
000FF80000
000FF80000
0007FC0000
0003FC0000
0000000000
0000000000
0000000000
0000000000
0000000000
0000000000
FFE0001FFC
FFE0001FFC
FFE0001FFC
FFE0001FFC
FFE0001FFC
FFE0001FFC
FFE0001FFC
FFE0001FFC
FFE0001FFC
FFE0001FFC
FFE0001FFC
FFE0001FFC
FFE0001FFC
FFE0001FFC
FFE0001FFC
FFE0001FFC
FFE0001FFC
FFE0001FFC
FFE0001FFC
FFE0001FFC
FFE0001FFC
FFE0001FFC
FFE0001FFC
FFE0001FFC
FFE0001FFC
FFE0001FFC
FFF0001FFC
7FF0003FFC
7FF0003FFC
7FF8007FFC
7FF8007FFC
7FFE00FFFC
3FFF83FFFC
3FFFFFFFFC
3FFFFFDFFC
1FFFFFDFFC
0FFFFF9FFC
0FFFFF1FFC
07FFFE1FFC
03FFFC1FFC
00FFF81FFC
001F800000
ENDCHAR
STARTCHAR 00FA
ENCODING 250
SWIDTH 578 0
DWIDTH 45 0
BBX 38 63 4 -1
BITMAP
000003FF00
000007FF00
000007FE00
00000FFC00
00000FFC00
00001FF800
00001FF000
00003FF000
00003FE000
00007FE000
00007FC000
0000FF8000
0000FF8000
0001FF0000
0001FE0000
0000000000
0000000000
0000000000
0000000000
0000000000
0000000000
FFE0001FFC
FFE0001FFC
FFE0001FFC
FFE0001FFC
FFE0001FFC
FFE0001FFC
FFE0001FFC
FFE0001FFC
FFE0001FFC
FFE0001FFC
FFE0001FFC
FFE0001FFC
FFE0001FFC
FFE0001FFC
FFE0001FFC
FFE0001FFC
FFE0001FFC
FFE0001FFC
FFE0001FFC
FFE0001FFC
FFE0001FFC
FFE0001FFC
FFE0001FFC
FFE0001FFC
FFE0001FFC
FFE0001FFC
FFF0001FFC
7FF0003FFC
7FF0003FFC
7FF8007FFC
7FF8007FFC
7FFE00FFFC
3FFF83FFFC
3FFFFFFFFC
3FFFFFDFFC
1FFFFFDFFC
0FFFFF9FFC
0FFFFF1FFC
07FFFE1FFC
03FFFC1FFC
00FFF81FFC
001F800000
ENDCHAR
STARTCHAR 00FB
ENCODING 251
SWIDTH 578 0
DWIDTH 45 0
BBX 38 59 4 -1
BITMAP
0003FE0000
0007FF0000
000FFF8000
001FFFC000
003FFFE000
007FFFF000
00FFDFF800
01FF8FFC00
03FF07FE00
03FE07FE00
07FE03FF00
0FFC01FF80
0000000000
0000000000
0000000000
0000000000
0000000000
FFE0001FFC
FFE0001FFC
FFE0001FFC
FFE0001FFC
FFE0001FFC
FFE0001FFC
FFE0001FFC
FFE0001FFC
FFE0001FFC
FFE0001FFC
FFE0001FFC
FFE0001FFC
FFE0001FFC
FFE0001FFC
FFE0001FFC
FFE0001FFC
FFE0001FFC
FFE0001FFC
FFE0001FFC
FFE0001FFC
FFE0001FFC
FFE0001FFC
FFE0001FFC
FFE0001FFC
FFE0001FFC
FFE0001FFC
FFF0001FFC
7FF0003FFC
7FF0003FFC
7FF8007FFC
7FF8007FFC
7FFE00FFFC
3FFF83FFFC
3FFFFFFFFC
3FFFFFDFFC
1FFFFFDFFC
0FFFFF9FFC
0FFFFF1FFC
07FFFE1FFC
03FFFC1FFC
00FFF81FFC
001F800000
ENDCHAR
STARTCHAR 00FC
ENCODING 252
SWIDTH 578 0
DWIDTH 45 0
BBX 38 61 4 -1
BITMAP
03F0003F00
07F8007F80
0FFC00FFC0
0FFE01FFC0
1FFE01FFE0
1FFE01FFE0
1FFE01FFE0
1FFE01FFE0
0FFC01FFC0
0FFC00FFC0
07F8007F80
01E0001E00
0000000000
0000000000
0000000000
0000000000
0000000000
0000000000
0000000000
FFE0001FFC
FFE0001FFC
FFE0001FFC
FFE0001FFC
FFE0001FFC
FFE0001FFC
FFE0001FFC
FFE0001FFC
FFE0001FFC
FFE0001FFC
FFE0001FFC
FFE0001FFC
FFE0001FFC
FFE0001FFC
FFE0001FFC
FFE0001FFC
FFE0001FFC
FFE0001FFC
FFE0001FFC
FFE0001FFC
FFE0001FFC
FFE0001FFC
FFE0001FFC
FFE0001FFC
FFE0001FFC
FFE0001FFC
FFF0001FFC
7FF0003FFC
7FF0003FFC
7FF8007FFC
7FF8007FFC
7FFE00FFFC
3FFF83FFFC
3FFFFFFFFC
3FFFFFDFFC
1FFFFFDFFC
0FFFFF9FFC
0FFFFF1FFC
07FFFE1FFC
03FFFC1FFC
00FFF81FFC
001F800000
ENDCHAR
STARTCHAR 00FD
ENCODING 253
SWIDTH 540 0
DWIDTH 42 0
BBX 40 79 2 -17
BITMAP
000001FFC0
000003FF80
000003FF00
000007FF00
000007FE00
00000FFC00
00000FFC00
00001FF800
00001FF000
00003FF000
00003FE000
00007FC000
00007FC000
0000FF8000
0000FF0000
0000000000
0000000000
0000000000
0000000000
0000000000
0000000000
FFE00007FF
FFE00007FE
7FE0000FFE
7FF0000FFE
7FF0000FFC
3FF0001FFC
3FF8001FFC
3FF8001FF8
1FF8003FF8
1FFC003FF0
0FFC003FF0
0FFC007FF0
0FFC007FE0
07FE007FE0
07FE00FFC0
07FE00FFC0
03FF00FFC0
03FF01FF80
03FF01FF80
01FF81FF80
01FF83FF00
00FF83FF00
00FFC3FE00
00FFC7FE00
007FC7FE00
007FE7FC00
007FEFFC00
003FEFF800
003FFFF800
001FFFF800
001FFFF000
001FFFF000
000FFFF000
000FFFE000
000FFFE000
0007FFC000
0007FFC000
0007FFC000
0003FF8000
0003FF8000
0003FF0000
0003FF0000
0007FF0000
0007FE0000
0007FE0000
000FFC0000
000FFC0000
001FFC0000
003FF80000
007FF80000
7FFFF00000
7FFFF00000
7FFFE00000
7FFFC00000
7FFF800000
7FFF000000
7FFE000000
7FF8000000
ENDCHAR
STARTCHAR 00FE
ENCODING 254
SWIDTH 617 0
DWIDTH 48 0
BBX 41 77 4 -19
BITMAP
FFE000000000
FFE000000000
FFE000000000
FFE000000000
FFE000000000
FFE000000000
FFE000000000
FFE000000000
FFE000000000
FFE000000000
FFE000000000
FFE000000000
FFE000000000
FFE000000000
FFE000000000
FFE000000000
FFE00FF80000
FFE07FFF0000
FFE0FFFF8000
FFE1FFFFC000
FFE3FFFFE000
FFE7FFFFF000
FFEFFFFFF800
FFFFFFFFFC00
FFFFFFFFFC00
FFFF80FFFE00
FFFE003FFE00
FFFC001FFE00
FFFC001FFF00
FFF8000FFF00
FFF8000FFF00
FFF00007FF00
FFF00007FF00
FFF00007FF00
FFE00003FF80
FFE00003FF80
FFE00003FF80
FFE00003FF80
FFE00003FF80
FFE00003FF80
FFE00007FF80
FFF00007FF00
FFF00007FF00
FFF00007FF00
FFF8000FFF00
FFF8000FFF00
FFFC001FFE00
FFFC001FFE00
FFFF003FFE00
FFFF80FFFC00
FFFFFFFFFC00
FFEFFFFFF800
FFE7FFFFF800
FFE7FFFFF000
FFE3FFFFE000
FFE1FFFFC000
FFE07FFF0000
FFE03FFC0000
FFE003C00000
FFE000000000
FFE000000000
FFE000000000
FFE000000000
FFE000000000
FFE000000000
FFE000000000
FFE000000000
FFE000000000
FFE000000000
FFE000000000
FFE000000000
FFE000000000
FFE000000000
FFE000000000
FFE000000000
FFE000000000
FFE000000000
ENDCHAR
STARTCHAR 00FF
ENCODING 255
SWIDTH 540 0
DWIDTH 42 0
BBX 40 77 2 -17
BITMAP
00F8001F80
03FC003FC0
07FE007FE0
07FF00FFF0
0FFF00FFF0
0FFF00FFF0
0FFF00FFF0
0FFF00FFF0
07FF007FE0
07FE007FE0
03FC003FC0
00F0000F00
0000000000
0000000000
0000000000
0000000000
0000000000
0000000000
0000000000
FFE00007FF
FFE00007FE
7FE0000FFE
7FF0000FFE
7FF0000FFC
3FF0001FFC
3FF8001FFC
3FF8001FF8
1FF8003FF8
1FFC003FF0
0FFC003FF0
0FFC007FF0
0FFC007FE0
07FE007FE0
07FE00FFC0
07FE00FFC0
03FF00FFC0
03FF01FF80
03FF01FF80
01FF81FF80
01FF83FF00
00FF83FF00
00FFC3FE00
00FFC7FE00
007FC7FE00
007FE7FC00
007FEFFC00
003FEFF800
003FFFF800
001FFFF800
001FFFF000
001FFFF000
000FFFF000
000FFFE000
000FFFE000
0007FFC000
0007FFC000
0007FFC000
0003FF8000
0003FF8000
0003FF0000
0003FF0000
0007FF0000
0007FE0000
0007FE0000
000FFC0000
000FFC0000
001FFC0000
003FF80000
007FF80000
7FFFF00000
7FFFF00000
7FFFE00000
7FFFC00000
7FFF800000
7FFF000000
7FFE000000
7FF8000000
ENDCHAR
STARTCHAR 0100
ENCODING 256
SWIDTH 668 0
DWIDTH 52 0
BBX 49 66 2 0
BITMAP
000FFFFFF80000
000FFFFFF80000
000FFFFFF80000
000FFFFFF80000
000FFFFFF80000
00000000000000
00000000000000
00000000000000
00000000000000
00000000000000
00000000000000
00000000000000
00001FFC000000
00001FFC000000
00003FFE000000
00003FFE000000
00003FFE000000
00007FFF000000
00007FFF000000
00007FFF000000
0000FFFF800000
0000FFFF800000
0001FFFF800000
0001FFFFC00000
0001FFFFC00000
0003FF7FE00000
0003FF7FE00000
0003FE7FE00000
0007FE3FF00000
0007FE3FF00000
0007FC3FF00000
000FFC1FF80000
000FFC1FF80000
001FF81FF80000
001FF80FFC0000
001FF80FFC0000
003FF00FFC0000
003FF007FE0000
003FF007FE0000
007FE007FF0000
007FE003FF0000
007FE003FF0000
00FFC003FF8000
00FFC001FF8000
00FFFFFFFF8000
01FFFFFFFFC000
01FFFFFFFFC000
03FFFFFFFFC000
03FFFFFFFFE000
03FFFFFFFFE000
07FFFFFFFFE000
07FFFFFFFFF000
07FFFFFFFFF000
0FFE00003FF800
0FFC00003FF800
0FFC00001FF800
1FFC00001FFC00
1FF800001FFC00
3FF800000FFC00
3FF800000FFE00
3FF000000FFE00
7FF0000007FE00
7FF0000007FF00
7FF0000007FF00
FFE0000003FF00
FFE0000003FF80
ENDCHAR
STARTCHAR 0101
ENCODING 257
SWIDTH 604 0
DWIDTH 47 0
BBX 40 54 3 -1
BITMAP
00FFFFFF80
00FFFFFF80
00FFFFFF80
00FFFFFF80
00FFFFFF80
0000000000
0000000000
0000000000
0000000000
0000000000
0000000000
000FF80000
007FFE07FF
01FFFF87FF
03FFFFC7FF
07FFFFE7FF
0FFFFFE7FF
0FFFFFF7FF
1FFFFFFFFF
3FFFFFFFFF
3FFF00FFFF
3FFE007FFF
7FFC003FFF
7FF8001FFF
7FF0000FFF
FFF0000FFF
FFF0000FFF
FFE00007FF
FFE00007FF
FFE00007FF
FFE00007FF
FFE00007FF
FFE00007FF
FFE00007FF
FFE00007FF
FFE00007FF
FFE00007FF
FFE0000FFF
FFF0000FFF
FFF0000FFF
7FF8001FFF
7FF8001FFF
7FFC003FFF
3FFE007FFF
3FFF81FFFF
1FFFFFFFFF
1FFFFFF7FF
0FFFFFF7FF
07FFFFE7FF
07FFFFC7FF
01FFFF87FF
00FFFF07FF
003FFC07FF
0001C00000
ENDCHAR
STARTCHAR 0102
ENCODING 258
SWIDTH 668 0
DWIDTH 52 0
BBX 49 70 2 0
BITMAP
003FE003FC0000
003FE007FC0000
001FF00FF80000
000FFC1FF80000
0007FFFFF00000
0007FFFFE00000
0003FFFFC00000
0000FFFF000000
00003FFE000000
000007E0000000
00000000000000
00000000000000
00000000000000
00000000000000
00000000000000
00000000000000
00001FFC000000
00001FFC000000
00003FFE000000
00003FFE000000
00003FFE000000
00007FFF000000
00007FFF000000
00007FFF000000
0000FFFF800000
0000FFFF800000
0001FFFF800000
0001FFFFC00000
0001FFFFC00000
0003FF7FE00000
0003FF7FE00000
0003FE7FE00000
0007FE3FF00000
0007FE3FF00000
0007FC3FF00000
000FFC1FF80000
000FFC1FF80000
001FF81FF80000
001FF80FFC0000
001FF80FFC0000
003FF00FFC0000
003FF007FE0000
003FF007FE0000
007FE007FF0000
007FE003FF0000
007FE003FF0000
00FFC003FF8000
00FFC001FF8000
00FFFFFFFF8000
01FFFFFFFFC000
01FFFFFFFFC000
03FFFFFFFFC000
03FFFFFFFFE000
03FFFFFFFFE000
07FFFFFFFFE000
07FFFFFFFFF000
07FFFFFFFFF000
0FFE00003FF800
0FFC00003FF800
0FFC00001FF800
1FFC00001FFC00
1FF800001FFC00
3FF800000FFC00
3FF800000FFE00
3FF000000FFE00
7FF0000007FE00
7FF0000007FF00
7FF0000007FF00
FFE0000003FF00
FFE0000003FF80
ENDCHAR
STARTCHAR 0103
ENCODING 259
SWIDTH 604 0
DWIDTH 47 0
BBX 40 57 3 -1
BITMAP
01FF003FE0
01FF007FC0
00FFC0FFC0
007FFFFF80
003FFFFF00
001FFFFE00
000FFFFC00
0007FFF000
0000FFC000
0000000000
0000000000
0000000000
0000000000
0000000000
000FF80000
007FFE07FF
01FFFF87FF
03FFFFC7FF
07FFFFE7FF
0FFFFFE7FF
0FFFFFF7FF
1FFFFFFFFF
3FFFFFFFFF
3FFF00FFFF
3FFE007FFF
7FFC003FFF
7FF8001FFF
7FF0000FFF
FFF0000FFF
FFF0000FFF
FFE00007FF
FFE00007FF
FFE00007FF
FFE00007FF
FFE00007FF
FFE00007FF
FFE00007FF
FFE00007FF
FFE00007FF
FFE00007FF
FFE0000FFF
FFF0000FFF
FFF0000FFF
7FF8001FFF
7FF8001FFF
7FFC003FFF
3FFE007FFF
3FFF81FFFF
1FFFFFFFFF
1FFFFFF7FF
0FFFFFF7FF
07FFFFE7FF
07FFFFC7FF
01FFFF87FF
00FFFF07FF
003FFC07FF
0001C00000
ENDCHAR
STARTCHAR 0104
ENCODING 260
SWIDTH 668 0
DWIDTH 52 0
BBX 49 68 2 -14
BITMAP
00001FFC000000
00001FFC000000
00003FFE000000
00003FFE000000
00003FFE000000
00007FFF000000
00007FFF000000
00007FFF000000
0000FFFF800000
0000FFFF800000
0001FFFF800000
0001FFFFC00000
0001FFFFC00000
0003FF7FE00000
0003FF7FE00000
0003FE7FE00000
0007FE3FF00000
0007FE3FF00000
0007FC3FF00000
000FFC1FF80000
000FFC1FF80000
001FF81FF80000
001FF80FFC0000
001FF80FFC0000
003FF00FFC0000
003FF007FE0000
003FF007FE0000
007FE007FF0000
007FE003FF0000
007FE003FF0000
00FFC003FF8000
00FFC001FF8000
00FFFFFFFF8000
01FFFFFFFFC000
01FFFFFFFFC000
03FFFFFFFFC000
03FFFFFFFFE000
03FFFFFFFFE000
07FFFFFFFFE000
07FFFFFFFFF000
07FFFFFFFFF000
0FFE00003FF800
0FFC00003FF800
0FFC00001FF800
1FFC00001FFC00
1FF800001FFC00
3FF800000FFC00
3FF800000FFE00
3FF000000FFE00
7FF0000007FE00
7FF0000007FF00
7FF0000007FF00
FFE0000003FF00
FFE0000003FF80
0000000007FC00
0000000007F000
000000000FE000
000000000FE000
000000001FC000
000000001FC000
000000001FE000
000000001FF000
000000000FFF80
000000000FFF80
0000000007FF80
0000000003FF80
0000000001FF80
00000000000E00
ENDCHAR
STARTCHAR 0105
ENCODING 261
SWIDTH 604 0
DWIDTH 47 0
BBX 43 56 3 -14
BITMAP
000FF8000000
007FFE07FF00
01FFFF87FF00
03FFFFC7FF00
07FFFFE7FF00
0FFFFFE7FF00
0FFFFFF7FF00
1FFFFFFFFF00
3FFFFFFFFF00
3FFF00FFFF00
3FFE007FFF00
7FFC003FFF00
7FF8001FFF00
7FF0000FFF00
FFF0000FFF00
FFF0000FFF00
FFE00007FF00
FFE00007FF00
FFE00007FF00
FFE00007FF00
FFE00007FF00
FFE00007FF00
FFE00007FF00
FFE00007FF00
FFE00007FF00
FFE00007FF00
FFE0000FFF00
FFF0000FFF00
FFF0000FFF00
7FF8001FFF00
7FF8001FFF00
7FFC003FFF00
3FFE007FFF00
3FFF81FFFF00
1FFFFFFFFF00
1FFFFFF7FF00
0FFFFFF7FF00
07FFFFE7FF00
07FFFFC7FF00
01FFFF87FF00
00FFFF07FF00
003FFC07FF00
0001C001FE00
00000003FC00
00000003F800
00000007F000
00000007F000
00000007F000
00000007F000
00000007FC00
00000007FFE0
00000003FFE0
00000003FFE0
00000000FFE0
000000007FE0
000000000200
ENDCHAR
STARTCHAR 0106
ENCODING 262
SWIDTH 694 0
DWIDTH 54 0
BBX 48 77 3 -1
BITMAP
0000000FFE00
0000000FFC00
0000001FFC00
0000001FF800
0000003FF000
0000003FF000
0000007FE000
0000007FE000
000000FFC000
000000FF8000
000001FF8000
000001FF0000
000003FE0000
000003FE0000
000007FC0000
000007F80000
000000000000
000000000000
000000000000
000000000000
000000600000
00003FFF8000
0001FFFFE000
0007FFFFF800
001FFFFFFE00
003FFFFFFF00
007FFFFFFF80
00FFFFFFFFC0
01FFFFFFFFE0
03FFFFFFFFF0
07FFF807FFF8
07FFE000FFF8
0FFF80007FFC
0FFF00003FFC
1FFE00001FFE
1FFE00000FFE
3FFC000007FF
3FFC000007FF
3FF8000003FF
7FF8000003FF
7FF000000000
7FF000000000
7FF000000000
7FF000000000
FFF000000000
FFF000000000
FFF000000000
FFE000000000
FFE000000000
FFE000000000
FFF000000000
FFF000000000
FFF000000000
7FF000000000
7FF000000000
7FF000000000
7FF000000000
7FF800000000
3FF8000007FF
3FFC000007FF
3FFC000007FE
1FFE00000FFE
1FFE00001FFE
0FFF00003FFC
0FFF80007FFC
07FFE000FFF8
07FFF803FFF8
03FFFFFFFFF0
01FFFFFFFFE0
00FFFFFFFFC0
007FFFFFFF80
003FFFFFFF00
001FFFFFFE00
0007FFFFF800
0001FFFFE000
00007FFF8000
000001E00000
ENDCHAR
STARTCHAR 0107
ENCODING 263
SWIDTH 565 0
DWIDTH 44 0
BBX 39 63 3 -1
BITMAP
000001FFC0
000001FF80
000003FF80
000003FF00
000007FE00
000007FE00
00000FFC00
00000FF800
00001FF800
00001FF000
00003FE000
00003FE000
00007FC000
00007F8000
0000FF8000
0000000000
0000000000
0000000000
0000000000
0000000000
0001FF8000
000FFFF000
003FFFFC00
00FFFFFF00
01FFFFFF80
03FFFFFFC0
07FFFFFFE0
0FFFFFFFE0
0FFFFFFFF0
1FFF00FFF8
3FFE007FF8
3FFC003FF8
3FF8001FFC
7FF0001FFC
7FF0000FFC
7FF0000FFE
7FE0000000
FFE0000000
FFE0000000
FFE0000000
FFE0000000
FFE0000000
FFE0000000
FFE0000000
FFE0000000
7FE0000000
7FE0000FFE
7FF0000FFC
7FF0000FFC
7FF8001FFC
3FF8001FFC
3FFC003FF8
1FFE007FF8
1FFF81FFF0
0FFFFFFFF0
0FFFFFFFE0
07FFFFFFC0
03FFFFFF80
01FFFFFF00
007FFFFE00
003FFFF800
000FFFE000
00007E0000
ENDCHAR
STARTCHAR 010A
ENCODING 266
SWIDTH 694 0
DWIDTH 54 0
BBX 48 74 3 0
BITMAP
000007F00000
00000FF80000
00001FFC0000
00001FFC0000
00001FFE0000
00001FFE0000
00001FFE0000
00001FFC0000
00001FFC0000
00000FF80000
000007F00000
000000000000
000000000000
000000000000
000000000000
000000000000
000000000000
000000600000
00003FFF8000
0001FFFFE000
0007FFFFF800
001FFFFFFE00
003FFFFFFF00
007FFFFFFF80
00FFFFFFFFC0
01FFFFFFFFE0
03FFFFFFFFF0
07FFF807FFF8
07FFE000FFF8
0FFF80007FFC
0FFF00003FFC
1FFE00001FFE
1FFE00000FFE
3FFC000007FF
3FFC000007FF
3FF8000003FF
7FF8000003FF
7FF000000000
7FF000000000
7FF000000000
7FF000000000
FFF000000000
FFF000000000
FFF000000000
FFE000000000
FFE000000000
FFE000000000
FFF000000000
FFF000000000
FFF000000000
7FF000000000
7FF000000000
7FF000000000
7FF000000000
7FF800000000
3FF8000007FF
3FFC000007FF
3FFC000007FE
1FFE00000FFE
1FFE00001FFE
0FFF00003FFC
0FFF80007FFC
07FFE000FFF8
07FFF803FFF8
03FFFFFFFFF0
01FFFFFFFFE0
00FFFFFFFFC0
007FFFFFFF80
003FFFFFFF00
001FFFFFFE00
0007FFFFF800
0001FFFFE000
00007FFF8000
000001E00000
ENDCHAR
STARTCHAR 010B
ENCODING 267
SWIDTH 565 0
DWIDTH 44 0
BBX 39 61 3 -1
BITMAP
00007E0000
0000FF0000
0001FF8000
0003FF8000
0003FFC000
0003FFC000
0003FFC000
0003FFC000
0003FF8000
0001FF8000
0000FF0000
00003C0000
0000000000
0000000000
0000000000
0000000000
0000000000
0000000000
0001FF8000
000FFFF000
003FFFFC00
00FFFFFF00
01FFFFFF80
03FFFFFFC0
07FFFFFFE0
0FFFFFFFE0
0FFFFFFFF0
1FFF00FFF8
3FFE007FF8
3FFC003FF8
3FF8001FFC
7FF0001FFC
7FF0000FFC
7FF0000FFE
7FE0000000
FFE0000000
FFE0000000
FFE0000000
FFE0000000
FFE0000000
FFE0000000
FFE0000000
FFE0000000
7FE0000000
7FE0000FFE
7FF0000FFC
7FF0000FFC
7FF8001FFC
3FF8001FFC
3FFC003FF8
1FFE007FF8
1FFF81FFF0
0FFFFFFFF0
0FFFFFFFE0
07FFFFFFC0
03FFFFFF80
01FFFFFF00
007FFFFE00
003FFFF800
000FFFE000
00007E0000
ENDCHAR
STARTCHAR 010C
ENCODING 268
SWIDTH 694 0
DWIDTH 54 0
BBX 48 73 3 -1
BITMAP
003FF003FF00
001FF007FE00
000FF80FFC00
000FFC1FF800
0007FE3FF000
0003FF7FE000
0001FFFFC000
0000FFFF8000
00007FFF0000
00003FFE0000
00001FFE0000
00000FFC0000
000007F80000
000000000000
000000000000
000000000000
000000600000
00003FFF8000
0001FFFFE000
0007FFFFF800
001FFFFFFE00
003FFFFFFF00
007FFFFFFF80
00FFFFFFFFC0
01FFFFFFFFE0
03FFFFFFFFF0
07FFF807FFF8
07FFE000FFF8
0FFF80007FFC
0FFF00003FFC
1FFE00001FFE
1FFE00000FFE
3FFC000007FF
3FFC000007FF
3FF8000003FF
7FF8000003FF
7FF000000000
7FF000000000
7FF000000000
7FF000000000
FFF000000000
FFF000000000
FFF000000000
FFE000000000
FFE000000000
FFE000000000
FFF000000000
FFF000000000
FFF000000000
7FF000000000
7FF000000000
7FF000000000
7FF000000000
7FF800000000
3FF8000007FF
3FFC000007FF
3FFC000007FE
1FFE00000FFE
1FFE00001FFE
0FFF00003FFC
0FFF80007FFC
07FFE000FFF8
07FFF803FFF8
03FFFFFFFFF0
01FFFFFFFFE0
00FFFFFFFFC0
007FFFFFFF80
003FFFFFFF00
001FFFFFFE00
0007FFFFF800
0001FFFFE000
00007FFF8000
000001E00000
ENDCHAR
STARTCHAR 010D
ENCODING 269
SWIDTH 565 0
DWIDTH 44 0
BBX 39 59 3 -1
BITMAP
07FE00FFC0
03FF01FF80
01FF81FF00
00FFC3FF00
007FE7FE00
003FFFFC00
001FFFF800
000FFFF000
0007FFE000
0003FFC000
0001FF8000
0001FF0000
0000000000
0000000000
0000000000
0000000000
0001FF8000
000FFFF000
003FFFFC00
00FFFFFF00
01FFFFFF80
03FFFFFFC0
07FFFFFFE0
0FFFFFFFE0
0FFFFFFFF0
1FFF00FFF8
3FFE007FF8
3FFC003FF8
3FF8001FFC
7FF0001FFC
7FF0000FFC
7FF0000FFE
7FE0000000
FFE0000000
FFE0000000
FFE0000000
FFE0000000
FFE0000000
FFE0000000
FFE0000000
FFE0000000
7FE0000000
7FE0000FFE
7FF0000FFC
7FF0000FFC
7FF8001FFC
3FF8001FFC
3FFC003FF8
1FFE007FF8
1FFF81FFF0
0FFFFFFFF0
0FFFFFFFE0
07FFFFFFC0
03FFFFFF80
01FFFFFF00
007FFFFE00
003FFFF800
000FFFE000
00007E0000
ENDCHAR
STARTCHAR 010E
ENCODING 270
SWIDTH 668 0
DWIDTH 52 0
BBX 46 72 4 0
BITMAP
01FF001FF800
00FF803FF000
00FFC07FE000
007FE0FFC000
003FF1FF8000
001FFBFF0000
000FFFFE0000
0007FFFC0000
0003FFF80000
0001FFF00000
0000FFE00000
00007FE00000
00007FC00000
000000000000
000000000000
000000000000
000000000000
FFFFFC000000
FFFFFFF80000
FFFFFFFF0000
FFFFFFFFC000
FFFFFFFFF000
FFFFFFFFF800
FFFFFFFFFC00
FFFFFFFFFE00
FFFFFFFFFF00
FFFFFFFFFF80
FFE000FFFF80
FFE0001FFFC0
FFE0000FFFE0
FFE00003FFE0
FFE00001FFF0
FFE00000FFF0
FFE00000FFF0
FFE000007FF8
FFE000007FF8
FFE000007FF8
FFE000003FF8
FFE000003FFC
FFE000003FFC
FFE000003FFC
FFE000003FFC
FFE000003FFC
FFE000003FFC
FFE000003FFC
FFE000003FFC
FFE000003FFC
FFE000003FFC
FFE000003FFC
FFE000003FFC
FFE000003FFC
FFE000003FF8
FFE000003FF8
FFE000007FF8
FFE000007FF8
FFE00000FFF0
FFE00000FFF0
FFE00001FFF0
FFE00003FFE0
FFE00007FFE0
FFE0001FFFC0
FFE0007FFFC0
FFFFFFFFFF80
FFFFFFFFFF00
FFFFFFFFFE00
FFFFFFFFFE00
FFFFFFFFF800
FFFFFFFFF000
FFFFFFFFE000
FFFFFFFF8000
FFFFFFFC0000
FFFFFFE00000
ENDCHAR
STARTCHAR 010F
ENCODING 271
SWIDTH 771 0
DWIDTH 60 0
BBX 57 64 3 -1
BITMAP
000000000003FC00
000000000007FE00
00000000000FFF00
00000000000FFF00
00000000001FFF80
00000003FF1FFF80
00000003FF1FFF80
00000003FF0FFF80
00000003FF0FFF80
00000003FF07FF80
00000003FF03FF80
00000003FF001F80
00000003FF000F80
00000003FF000F80
00000003FF000F80
00000003FF000F00
00000003FF001F00
00000003FF001F00
00000003FF003E00
00000003FF007C00
00000003FF01F800
000FF803FF03F000
007FFE03FF03E000
00FFFF83FF038000
03FFFFC3FF000000
07FFFFE3FF000000
07FFFFF3FF000000
0FFFFFF3FF000000
1FFFFFFFFF000000
1FFFFFFFFF000000
3FFF80FFFF000000
3FFE007FFF000000
7FFC003FFF000000
7FF8001FFF000000
7FF8000FFF000000
7FF0000FFF000000
7FF00007FF000000
FFF00007FF000000
FFE00007FF000000
FFE00007FF000000
FFE00007FF000000
FFE00007FF000000
FFE00007FF000000
FFE00007FF000000
FFE00007FF000000
FFE00007FF000000
FFE00007FF000000
FFF00007FF000000
7FF00007FF000000
7FF0000FFF000000
7FF8000FFF000000
7FF8001FFF000000
3FFC003FFF000000
3FFE007FFF000000
3FFF81FFFF000000
1FFFFFFFFF000000
1FFFFFFBFF000000
0FFFFFF3FF000000
07FFFFE3FF000000
03FFFFC3FF000000
01FFFF83FF000000
00FFFF03FF000000
003FFE03FF000000
0001C00000000000
ENDCHAR
STARTCHAR 0110
ENCODING 272
SWIDTH 707 0
DWIDTH 55 0
BBX 49 55 3 0
BITMAP
0FFFFF00000000
0FFFFFFF000000
0FFFFFFFE00000
0FFFFFFFF80000
0FFFFFFFFE0000
0FFFFFFFFF0000
0FFFFFFFFF8000
0FFFFFFFFFC000
0FFFFFFFFFE000
0FFFFFFFFFF000
0FFC003FFFF800
0FFC0003FFF800
0FFC0000FFFC00
0FFC00007FFC00
0FFC00003FFE00
0FFC00001FFE00
0FFC00001FFF00
0FFC00000FFF00
0FFC00000FFF00
0FFC000007FF00
0FFC000007FF80
0FFC000007FF80
0FFC000007FF80
0FFC000007FF80
FFFFFC0003FF80
FFFFFC0003FF80
FFFFFC0003FF80
FFFFFC0003FF80
FFFFFC0003FF80
FFFFFC0003FF80
FFFFFC0003FF80
0FFC000003FF80
0FFC000007FF80
0FFC000007FF80
0FFC000007FF80
0FFC000007FF80
0FFC00000FFF00
0FFC00000FFF00
0FFC00000FFF00
0FFC00001FFE00
0FFC00003FFE00
0FFC00007FFE00
0FFC0000FFFC00
0FFC0001FFFC00
0FFC000FFFF800
0FFFFFFFFFF000
0FFFFFFFFFE000
0FFFFFFFFFE000
0FFFFFFFFFC000
0FFFFFFFFF8000
0FFFFFFFFE0000
0FFFFFFFFC0000
0FFFFFFFF00000
0FFFFFFF800000
0FFFFFF8000000
ENDCHAR
STARTCHAR 0111
ENCODING 273
SWIDTH 617 0
DWIDTH 48 0
BBX 45 59 3 -1
BITMAP
00000003FF00
00000003FF00
00000003FF00
00000003FF00
00000003FF00
000007FFFFF8
000007FFFFF8
000007FFFFF8
000007FFFFF8
000007FFFFF8
000007FFFFF8
000007FFFFF8
00000003FF00
00000003FF00
00000003FF00
00000003FF00
000FF803FF00
007FFE03FF00
00FFFF83FF00
03FFFFC3FF00
07FFFFE3FF00
07FFFFF3FF00
0FFFFFF3FF00
1FFFFFFFFF00
1FFFFFFFFF00
3FFF80FFFF00
3FFE007FFF00
7FFC003FFF00
7FF8001FFF00
7FF8000FFF00
7FF0000FFF00
7FF00007FF00
FFF00007FF00
FFE00007FF00
FFE00007FF00
FFE00007FF00
FFE00007FF00
FFE00007FF00
FFE00007FF00
FFE00007FF00
FFE00007FF00
FFE00007FF00
FFF00007FF00
7FF00007FF00
7FF0000FFF00
7FF8000FFF00
7FF8001FFF00
3FFC003FFF00
3FFE007FFF00
3FFF81FFFF00
1FFFFFFFFF00
1FFFFFFBFF00
0FFFFFF3FF00
07FFFFE3FF00
03FFFFC3FF00
01FFFF83FF00
00FFFF03FF00
003FFE03FF00
0001C0000000
ENDCHAR
STARTCHAR 0112
ENCODING 274
SWIDTH 565 0
DWIDTH 44 0
BBX 36 66 5 0
BITMAP
07FFFFFC00
07FFFFFC00
07FFFFFC00
07FFFFFC00
07FFFFFC00
0000000000
0000000000
0000000000
0000000000
0000000000
0000000000
0000000000
FFFFFFFFF0
FFFFFFFFF0
FFFFFFFFF0
FFFFFFFFF0
FFFFFFFFF0
FFFFFFFFF0
FFFFFFFFF0
FFFFFFFFF0
FFFFFFFFF0
FFC0000000
FFC0000000
FFC0000000
FFC0000000
FFC0000000
FFC0000000
FFC0000000
FFC0000000
FFC0000000
FFC0000000
FFC0000000
FFC0000000
FFC0000000
FFFFFFFF00
FFFFFFFF00
FFFFFFFF00
FFFFFFFF00
FFFFFFFF00
FFFFFFFF00
FFFFFFFF00
FFFFFFFF00
FFFFFFFF00
FFC0000000
FFC0000000
FFC0000000
FFC0000000
FFC0000000
FFC0000000
FFC0000000
FFC0000000
FFC0000000
FFC0000000
FFC0000000
FFC0000000
FFC0000000
FFC0000000
FFFFFFFFF0
FFFFFFFFF0
FFFFFFFFF0
FFFFFFFFF0
FFFFFFFFF0
FFFFFFFFF0
FFFFFFFFF0
FFFFFFFFF0
FFFFFFFFF0
ENDCHAR
STARTCHAR 0113
ENCODING 275
SWIDTH 565 0
DWIDTH 44 0
BBX 39 54 3 -1
BITMAP
01FFFFFF00
01FFFFFF00
01FFFFFF00
01FFFFFF00
01FFFFFF00
0000000000
0000000000
0000000000
0000000000
0000000000
0000000000
0001FF8000
000FFFF000
003FFFFC00
00FFFFFE00
01FFFFFF80
03FFFFFFC0
07FFFFFFC0
0FFFFFFFE0
0FFF01FFF0
1FFC007FF0
3FF8003FF8
3FF0001FF8
3FF0001FF8
7FF0000FFC
7FE0000FFC
7FE0000FFC
7FE0000FFC
FFFFFFFFFC
FFFFFFFFFE
FFFFFFFFFE
FFFFFFFFFE
FFFFFFFFFE
FFFFFFFFFE
FFFFFFFFFE
FFE0000000
FFE0000000
7FE0000000
7FE0000000
7FE0000000
7FF0001FFC
3FF0001FFC
3FF8003FF8
1FFC007FF8
1FFF01FFF0
0FFFFFFFF0
0FFFFFFFE0
07FFFFFFC0
03FFFFFF80
01FFFFFF00
007FFFFE00
003FFFF800
0007FFE000
00003C0000
ENDCHAR
STARTCHAR 0116
ENCODING 278
SWIDTH 565 0
DWIDTH 44 0
BBX 36 74 5 0
BITMAP
0000400000
0003F80000
0007FC0000
000FFE0000
000FFE0000
001FFE0000
001FFE0000
001FFE0000
000FFE0000
000FFE0000
0007FC0000
0003F80000
0000000000
0000000000
0000000000
0000000000
0000000000
0000000000
0000000000
0000000000
FFFFFFFFF0
FFFFFFFFF0
FFFFFFFFF0
FFFFFFFFF0
FFFFFFFFF0
FFFFFFFFF0
FFFFFFFFF0
FFFFFFFFF0
FFFFFFFFF0
FFC0000000
FFC0000000
FFC0000000
FFC0000000
FFC0000000
FFC0000000
FFC0000000
FFC0000000
FFC0000000
FFC0000000
FFC0000000
FFC0000000
FFC0000000
FFFFFFFF00
FFFFFFFF00
FFFFFFFF00
FFFFFFFF00
FFFFFFFF00
FFFFFFFF00
FFFFFFFF00
FFFFFFFF00
FFFFFFFF00
FFC0000000
FFC0000000
FFC0000000
FFC0000000
FFC0000000
FFC0000000
FFC0000000
FFC0000000
FFC0000000
FFC0000000
FFC0000000
FFC0000000
FFC0000000
FFC0000000
FFFFFFFFF0
FFFFFFFFF0
FFFFFFFFF0
FFFFFFFFF0
FFFFFFFFF0
FFFFFFFFF0
FFFFFFFFF0
FFFFFFFFF0
FFFFFFFFF0
ENDCHAR
STARTCHAR 0117
ENCODING 279
SWIDTH 565 0
DWIDTH 44 0
BBX 39 61 3 -1
BITMAP
00007E0000
0000FF0000
0001FF8000
0003FF8000
0003FFC000
0003FFC000
0003FFC000
0003FFC000
0003FF8000
0001FF8000
0000FF0000
00003C0000
0000000000
0000000000
0000000000
0000000000
0000000000
0000000000
0001FF8000
000FFFF000
003FFFFC00
00FFFFFE00
01FFFFFF80
03FFFFFFC0
07FFFFFFC0
0FFFFFFFE0
0FFF01FFF0
1FFC007FF0
3FF8003FF8
3FF0001FF8
3FF0001FF8
7FF0000FFC
7FE0000FFC
7FE0000FFC
7FE0000FFC
FFFFFFFFFC
FFFFFFFFFE
FFFFFFFFFE
FFFFFFFFFE
FFFFFFFFFE
FFFFFFFFFE
FFFFFFFFFE
FFE0000000
FFE0000000
7FE0000000
7FE0000000
7FE0000000
7FF0001FFC
3FF0001FFC
3FF8003FF8
1FFC007FF8
1FFF01FFF0
0FFFFFFFF0
0FFFFFFFE0
07FFFFFFC0
03FFFFFF80
01FFFFFF00
007FFFFE00
003FFFF800
0007FFE000
00003C0000
ENDCHAR
STARTCHAR 0118
ENCODING 280
SWIDTH 565 0
DWIDTH 44 0
BBX 38 68 5 -14
BITMAP
FFFFFFFFF0
FFFFFFFFF0
FFFFFFFFF0
FFFFFFFFF0
FFFFFFFFF0
FFFFFFFFF0
FFFFFFFFF0
FFFFFFFFF0
FFFFFFFFF0
FFC0000000
FFC0000000
FFC0000000
FFC0000000
FFC0000000
FFC0000000
FFC0000000
FFC0000000
FFC0000000
FFC0000000
FFC0000000
FFC0000000
FFC0000000
FFFFFFFF00
FFFFFFFF00
FFFFFFFF00
FFFFFFFF00
FFFFFFFF00
FFFFFFFF00
FFFFFFFF00
FFFFFFFF00
FFFFFFFF00
FFC0000000
FFC0000000
FFC0000000
FFC0000000
FFC0000000
FFC0000000
FFC0000000
FFC0000000
FFC0000000
FFC0000000
FFC0000000
FFC0000000
FFC0000000
FFC0000000
FFFFFFFFF0
FFFFFFFFF0
FFFFFFFFF0
FFFFFFFFF0
FFFFFFFFF0
FFFFFFFFF0
FFFFFFFFF0
FFFFFFFFF0
FFFFFFFFF0
0000003FE0
0000003F80
0000007F00
0000007F00
000000FF00
000000FF00
000000FF00
0000007F80
0000007FFC
0000007FFC
0000003FFC
0000001FFC
00000007FC
0000000030
ENDCHAR
STARTCHAR 0119
ENCODING 281
SWIDTH 565 0
DWIDTH 44 0
BBX 39 56 3 -14
BITMAP
0001FF8000
000FFFF000
003FFFFC00
00FFFFFE00
01FFFFFF80
03FFFFFFC0
07FFFFFFC0
0FFFFFFFE0
0FFF01FFF0
1FFC007FF0
3FF8003FF8
3FF0001FF8
3FF0001FF8
7FF0000FFC
7FE0000FFC
7FE0000FFC
7FE0000FFC
FFFFFFFFFC
FFFFFFFFFE
FFFFFFFFFE
FFFFFFFFFE
FFFFFFFFFE
FFFFFFFFFE
FFFFFFFFFE
FFE0000000
FFE0000000
7FE0000000
7FE0000000
7FE0000000
7FF0001FFC
3FF0001FFC
3FF8003FF8
1FFC007FF8
1FFF01FFF0
0FFFFFFFF0
0FFFFFFFE0
07FFFFFFC0
03FFFFFF80
01FFFFFF00
007FFFFE00
003FFFF800
0007FFE000
0003FE0000
0003F80000
0007F00000
000FE00000
000FE00000
000FE00000
000FE00000
000FF00000
000FFFC000
0007FFC000
0007FFC000
0003FFC000
0001FFC000
00003FC000
ENDCHAR
STARTCHAR 011A
ENCODING 282
SWIDTH 565 0
DWIDTH 44 0
BBX 36 72 5 0
BITMAP
3FF003FF00
1FF807FE00
0FFC07FC00
07FE0FFC00
03FF1FF800
01FFBFF000
00FFFFE000
007FFFC000
003FFF8000
001FFF0000
001FFE0000
000FFC0000
0007F80000
0000000000
0000000000
0000000000
0000000000
0000000000
FFFFFFFFF0
FFFFFFFFF0
FFFFFFFFF0
FFFFFFFFF0
FFFFFFFFF0
FFFFFFFFF0
FFFFFFFFF0
FFFFFFFFF0
FFFFFFFFF0
FFC0000000
FFC0000000
FFC0000000
FFC0000000
FFC0000000
FFC0000000
FFC0000000
FFC0000000
FFC0000000
FFC0000000
FFC0000000
FFC0000000
FFC0000000
FFFFFFFF00
FFFFFFFF00
FFFFFFFF00
FFFFFFFF00
FFFFFFFF00
FFFFFFFF00
FFFFFFFF00
FFFFFFFF00
FFFFFFFF00
FFC0000000
FFC0000000
FFC0000000
FFC0000000
FFC0000000
FFC0000000
FFC0000000
FFC0000000
FFC0000000
FFC0000000
FFC0000000
FFC0000000
FFC0000000
FFC0000000
FFFFFFFFF0
FFFFFFFFF0
FFFFFFFFF0
FFFFFFFFF0
FFFFFFFFF0
FFFFFFFFF0
FFFFFFFFF0
FFFFFFFFF0
FFFFFFFFF0
ENDCHAR
STARTCHAR 011B
ENCODING 283
SWIDTH 565 0
DWIDTH 44 0
BBX 39 59 3 -1
BITMAP
07FE00FFC0
03FF01FF80
01FF81FF00
00FFC3FF00
007FE7FE00
003FFFFC00
001FFFF800
000FFFF000
0007FFE000
0003FFC000
0001FF8000
0001FF0000
0000000000
0000000000
0000000000
0000000000
0001FF8000
000FFFF000
003FFFFC00
00FFFFFE00
01FFFFFF80
03FFFFFFC0
07FFFFFFC0
0FFFFFFFE0
0FFF01FFF0
1FFC007FF0
3FF8003FF8
3FF0001FF8
3FF0001FF8
7FF0000FFC
7FE0000FFC
7FE0000FFC
7FE0000FFC
FFFFFFFFFC
FFFFFFFFFE
FFFFFFFFFE
FFFFFFFFFE
FFFFFFFFFE
FFFFFFFFFE
FFFFFFFFFE
FFE0000000
FFE0000000
7FE0000000
7FE0000000
7FE0000000
7FF0001FFC
3FF0001FFC
3FF8003FF8
1FFC007FF8
1FFF01FFF0
0FFFFFFFF0
0FFFFFFFE0
07FFFFFFC0
03FFFFFF80
01FFFFFF00
007FFFFE00
003FFFF800
0007FFE000
00003C0000
ENDCHAR
STARTCHAR 011E
ENCODING 286
SWIDTH 707 0
DWIDTH 55 0
BBX 49 71 3 -1
BITMAP
001FF001FE0000
001FF003FE0000
000FF807FC0000
0007FE1FF80000
0007FFFFF80000
0003FFFFF00000
0001FFFFE00000
00007FFF800000
00003FFF000000
000003F0000000
00000000000000
00000000000000
00000000000000
00000000000000
00000040000000
00007FFF800000
0001FFFFE00000
0007FFFFF80000
001FFFFFFE0000
003FFFFFFF0000
007FFFFFFF8000
00FFFFFFFFC000
01FFFFFFFFE000
03FFFFFFFFF000
03FFF807FFF800
07FFE000FFF800
0FFF80007FFC00
0FFF00003FFC00
1FFE00001FFE00
1FFE00000FFE00
3FFC00000FFF00
3FFC000007FF00
3FF8000007FF00
3FF80000000000
7FF00000000000
7FF00000000000
7FF00000000000
7FF00000000000
7FF00000000000
7FE00000000000
FFE00000000000
FFE0001FFFFF80
FFE0001FFFFF80
FFE0001FFFFF80
FFE0001FFFFF80
7FE0001FFFFF80
7FE0001FFFFF80
7FF0001FFFFF80
7FF0000003FF80
7FF0000003FF80
7FF0000003FF80
7FF0000003FF80
3FF8000003FF80
3FF8000007FF80
3FFC000007FF80
1FFC000007FF80
1FFE00000FFF80
0FFE00001FFF80
0FFF00001FFF80
07FFC0003FFF80
07FFE000FFFF80
03FFFC03FFFF80
01FFFFFFFF7F80
01FFFFFFFE7F80
00FFFFFFFC7F80
003FFFFFF87F80
001FFFFFF87F80
000FFFFFE07F80
0003FFFF807F80
0000FFFE007F80
00000380000000
ENDCHAR
STARTCHAR 011F
ENCODING 287
SWIDTH 604 0
DWIDTH 47 0
BBX 40 73 3 -17
BITMAP
01FE003FE0
01FF007FC0
00FFC0FF80
007FFFFF80
003FFFFF00
001FFFFE00
000FFFFC00
0007FFF000
0000FFC000
0000000000
0000000000
0000000000
0000000000
0000000000
000FF80000
007FFE03FF
00FFFF83FF
01FFFFC3FF
07FFFFE3FF
07FFFFF3FF
0FFFFFF3FF
1FFFFFFBFF
1FFFFFFFFF
3FFF00FFFF
3FFE003FFF
7FFC001FFF
7FF8001FFF
7FF8000FFF
7FF0000FFF
7FF00007FF
FFF00007FF
FFE00007FF
FFE00007FF
FFE00003FF
FFE00003FF
FFE00003FF
FFE00007FF
FFE00007FF
FFF00007FF
FFF00007FF
7FF00007FF
7FF8000FFF
7FF8000FFF
7FFC001FFF
3FFC003FFF
3FFF007FFF
3FFFC1FFFF
1FFFFFFFFF
0FFFFFFBFF
0FFFFFF3FF
07FFFFE3FF
03FFFFC3FF
01FFFFC3FF
00FFFF03FF
003FFC03FF
0001C007FF
00000007FF
00000007FF
00000007FF
0000000FFF
0000000FFE
0000001FFE
0000003FFE
000000FFFC
0003FFFFFC
0003FFFFF8
0003FFFFF8
0003FFFFF0
0003FFFFE0
0003FFFFC0
0003FFFF00
0003FFFC00
0001FFF000
ENDCHAR
STARTCHAR 0120
ENCODING 288
SWIDTH 707 0
DWIDTH 55 0
BBX 49 74 3 0
BITMAP
000003F0000000
000007FC000000
00000FFC000000
00001FFE000000
00001FFE000000
00001FFE000000
00001FFE000000
00001FFE000000
00000FFC000000
000007FC000000
000003F0000000
00000000000000
00000000000000
00000000000000
00000000000000
00000000000000
00000000000000
00000040000000
00007FFF800000
0001FFFFE00000
0007FFFFF80000
001FFFFFFE0000
003FFFFFFF0000
007FFFFFFF8000
00FFFFFFFFC000
01FFFFFFFFE000
03FFFFFFFFF000
03FFF807FFF800
07FFE000FFF800
0FFF80007FFC00
0FFF00003FFC00
1FFE00001FFE00
1FFE00000FFE00
3FFC00000FFF00
3FFC000007FF00
3FF8000007FF00
3FF80000000000
7FF00000000000
7FF00000000000
7FF00000000000
7FF00000000000
7FF00000000000
7FE00000000000
FFE00000000000
FFE0001FFFFF80
FFE0001FFFFF80
FFE0001FFFFF80
FFE0001FFFFF80
7FE0001FFFFF80
7FE0001FFFFF80
7FF0001FFFFF80
7FF0000003FF80
7FF0000003FF80
7FF0000003FF80
7FF0000003FF80
3FF8000003FF80
3FF8000007FF80
3FFC000007FF80
1FFC000007FF80
1FFE00000FFF80
0FFE00001FFF80
0FFF00001FFF80
07FFC0003FFF80
07FFE000FFFF80
03FFFC03FFFF80
01FFFFFFFF7F80
01FFFFFFFE7F80
00FFFFFFFC7F80
003FFFFFF87F80
001FFFFFF87F80
000FFFFFE07F80
0003FFFF807F80
0000FFFE007F80
00000380000000
ENDCHAR
STARTCHAR 0121
ENCODING 289
SWIDTH 604 0
DWIDTH 47 0
BBX 40 77 3 -17
BITMAP
00003E0000
0000FF8000
0000FFC000
0001FFC000
0001FFC000
0001FFE000
0001FFE000
0001FFC000
0001FFC000
0000FF8000
00007F0000
00001E0000
0000000000
0000000000
0000000000
0000000000
0000000000
0000000000
000FF80000
007FFE03FF
00FFFF83FF
01FFFFC3FF
07FFFFE3FF
07FFFFF3FF
0FFFFFF3FF
1FFFFFFBFF
1FFFFFFFFF
3FFF00FFFF
3FFE003FFF
7FFC001FFF
7FF8001FFF
7FF8000FFF
7FF0000FFF
7FF00007FF
FFF00007FF
FFE00007FF
FFE00007FF
FFE00003FF
FFE00003FF
FFE00003FF
FFE00007FF
FFE00007FF
FFF00007FF
FFF00007FF
7FF00007FF
7FF8000FFF
7FF8000FFF
7FFC001FFF
3FFC003FFF
3FFF007FFF
3FFFC1FFFF
1FFFFFFFFF
0FFFFFFBFF
0FFFFFF3FF
07FFFFE3FF
03FFFFC3FF
01FFFFC3FF
00FFFF03FF
003FFC03FF
0001C007FF
00000007FF
00000007FF
00000007FF
0000000FFF
0000000FFE
0000001FFE
0000003FFE
000000FFFC
0003FFFFFC
0003FFFFF8
0003FFFFF8
0003FFFFF0
0003FFFFE0
0003FFFFC0
0003FFFF00
0003FFFC00
0001FFF000
ENDCHAR
STARTCHAR 0126
ENCODING 294
SWIDTH 694 0
DWIDTH 54 0
BBX 52 54 1 0
BITMAP
0FFE000007FF00
0FFE000007FF00
0FFE000007FF00
0FFE000007FF00
0FFE000007FF00
0FFE000007FF00
FFFFFFFFFFFFF0
FFFFFFFFFFFFF0
FFFFFFFFFFFFF0
FFFFFFFFFFFFF0
FFFFFFFFFFFFF0
FFFFFFFFFFFFF0
FFFFFFFFFFFFF0
FFFFFFFFFFFFF0
FFFFFFFFFFFFF0
0FFE000007FF00
0FFE000007FF00
0FFE000007FF00
0FFE000007FF00
0FFE000007FF00
0FFE000007FF00
0FFE000007FF00
0FFFFFFFFFFF00
0FFFFFFFFFFF00
0FFFFFFFFFFF00
0FFFFFFFFFFF00
0FFFFFFFFFFF00
0FFFFFFFFFFF00
0FFFFFFFFFFF00
0FFFFFFFFFFF00
0FFFFFFFFFFF00
0FFE000007FF00
0FFE000007FF00
0FFE000007FF00
0FFE000007FF00
0FFE000007FF00
0FFE000007FF00
0FFE000007FF00
0FFE000007FF00
0FFE000007FF00
0FFE000007FF00
0FFE000007FF00
0FFE000007FF00
0FFE000007FF00
0FFE000007FF00
0FFE000007FF00
0FFE000007FF00
0FFE000007FF00
0FFE000007FF00
0FFE000007FF00
0FFE000007FF00
0FFE000007FF00
0FFE000007FF00
0FFE000007FF00
ENDCHAR
STARTCHAR 0127
ENCODING 295
SWIDTH 604 0
DWIDTH 47 0
BBX 43 58 1 0
BITMAP
07FF00000000
07FF00000000
07FF00000000
07FF00000000
07FF00000000
FFFFFF000000
FFFFFF000000
FFFFFF000000
FFFFFF000000
FFFFFF000000
FFFFFF000000
FFFFFF000000
07FF00000000
07FF00000000
07FF00000000
07FF00000000
07FF00FFC000
07FF03FFF800
07FF0FFFFC00
07FF1FFFFE00
07FF3FFFFF00
07FF3FFFFF00
07FF7FFFFF80
07FFFFFFFF80
07FFFFFFFFC0
07FFF80FFFC0
07FFE003FFC0
07FFC001FFC0
07FF8001FFE0
07FF8000FFE0
07FF0000FFE0
07FF0000FFE0
07FF0000FFE0
07FF0000FFE0
07FF0000FFE0
07FF0000FFE0
07FF0000FFE0
07FF0000FFE0
07FF0000FFE0
07FF0000FFE0
07FF0000FFE0
07FF0000FFE0
07FF0000FFE0
07FF0000FFE0
07FF0000FFE0
07FF0000FFE0
07FF0000FFE0
07FF0000FFE0
07FF0000FFE0
07FF0000FFE0
07FF0000FFE0
07FF0000FFE0
07FF0000FFE0
07FF0000FFE0
07FF0000FFE0
07FF0000FFE0
07FF0000FFE0
07FF0000FFE0
ENDCHAR
STARTCHAR 0128
ENCODING 296
SWIDTH 257 0
DWIDTH 20 0
BBX 25 71 -2 0
BITMAP
0FE01F80
3FFC1F80
3FFF3F80
7FFFFF80
7FFFFF00
FFFFFF00
FEFFFF00
FC1FFE00
FC07FC00
FC00E000
00000000
00000000
00000000
00000000
00000000
00000000
00000000
01FFC000
01FFC000
01FFC000
01FFC000
01FFC000
01FFC000
01FFC000
01FFC000
01FFC000
01FFC000
01FFC000
01FFC000
01FFC000
01FFC000
01FFC000
01FFC000
01FFC000
01FFC000
01FFC000
01FFC000
01FFC000
01FFC000
01FFC000
01FFC000
01FFC000
01FFC000
01FFC000
01FFC000
01FFC000
01FFC000
01FFC000
01FFC000
01FFC000
01FFC000
01FFC000
01FFC000
01FFC000
01FFC000
01FFC000
01FFC000
01FFC000
01FFC000
01FFC000
01FFC000
01FFC000
01FFC000
01FFC000
01FFC000
01FFC000
01FFC000
01FFC000
01FFC000
01FFC000
01FFC000
ENDCHAR
STARTCHAR 0129
ENCODING 297
SWIDTH 282 0
DWIDTH 22 0
BBX 24 58 -1 0
BITMAP
0FC01F
3FF01F
7FFC3F
7FFFFF
FFFFFF
FFFFFF
FFFFFE
FC3FFE
F80FFC
F803F0
000000
000000
000000
000000
000000
000000
000000
01FF80
01FF80
01FF80
01FF80
01FF80
01FF80
01FF80
01FF80
01FF80
01FF80
01FF80
01FF80
01FF80
01FF80
01FF80
01FF80
01FF80
01FF80
01FF80
01FF80
01FF80
01FF80
01FF80
01FF80
01FF80
01FF80
01FF80
01FF80
01FF80
01FF80
01FF80
01FF80
01FF80
01FF80
01FF80
01FF80
01FF80
01FF80
01FF80
01FF80
01FF80
ENDCHAR
STARTCHAR 012A
ENCODING 298
SWIDTH 257 0
DWIDTH 20 0
BBX 25 66 -2 0
BITMAP
FFFFFF80
FFFFFF80
FFFFFF80
FFFFFF80
FFFFFF80
00000000
00000000
00000000
00000000
00000000
00000000
00000000
01FFC000
01FFC000
01FFC000
01FFC000
01FFC000
01FFC000
01FFC000
01FFC000
01FFC000
01FFC000
01FFC000
01FFC000
01FFC000
01FFC000
01FFC000
01FFC000
01FFC000
01FFC000
01FFC000
01FFC000
01FFC000
01FFC000
01FFC000
01FFC000
01FFC000
01FFC000
01FFC000
01FFC000
01FFC000
01FFC000
01FFC000
01FFC000
01FFC000
01FFC000
01FFC000
01FFC000
01FFC000
01FFC000
01FFC000
01FFC000
01FFC000
01FFC000
01FFC000
01FFC000
01FFC000
01FFC000
01FFC000
01FFC000
01FFC000
01FFC000
01FFC000
01FFC000
01FFC000
01FFC000
ENDCHAR
STARTCHAR 012B
ENCODING 299
SWIDTH 282 0
DWIDTH 22 0
BBX 24 53 -1 0
BITMAP
FFFFFF
FFFFFF
FFFFFF
FFFFFF
FFFFFF
000000
000000
000000
000000
000000
000000
000000
01FF80
01FF80
01FF80
01FF80
01FF80
01FF80
01FF80
01FF80
01FF80
01FF80
01FF80
01FF80
01FF80
01FF80
01FF80
01FF80
01FF80
01FF80
01FF80
01FF80
01FF80
01FF80
01FF80
01FF80
01FF80
01FF80
01FF80
01FF80
01FF80
01FF80
01FF80
01FF80
01FF80
01FF80
01FF80
01FF80
01FF80
01FF80
01FF80
01FF80
01FF80
ENDCHAR
STARTCHAR 012E
ENCODING 302
SWIDTH 257 0
DWIDTH 20 0
BBX 14 68 5 -14
BITMAP
FFE0
FFE0
FFE0
FFE0
FFE0
FFE0
FFE0
FFE0
FFE0
FFE0
FFE0
FFE0
FFE0
FFE0
FFE0
FFE0
FFE0
FFE0
FFE0
FFE0
FFE0
FFE0
FFE0
FFE0
FFE0
FFE0
FFE0
FFE0
FFE0
FFE0
FFE0
FFE0
FFE0
FFE0
FFE0
FFE0
FFE0
FFE0
FFE0
FFE0
FFE0
FFE0
FFE0
FFE0
FFE0
FFE0
FFE0
FFE0
FFE0
FFE0
FFE0
FFE0
FFE0
FFE0
3FC0
7F80
FF00
FE00
FE00
FE00
FE00
FF84
FFFC
7FFC
7FFC
3FFC
0FFC
0040
ENDCHAR
STARTCHAR 012F
ENCODING 303
SWIDTH 282 0
DWIDTH 22 0
BBX 14 74 5 -14
BITMAP
1F80
3FC0
7FE0
FFE0
FFF0
FFF0
FFF0
FFF0
7FE0
7FE0
3FC0
0F00
0000
0000
0000
0000
0000
0000
0000
7FE0
7FE0
7FE0
7FE0
7FE0
7FE0
7FE0
7FE0
7FE0
7FE0
7FE0
7FE0
7FE0
7FE0
7FE0
7FE0
7FE0
7FE0
7FE0
7FE0
7FE0
7FE0
7FE0
7FE0
7FE0
7FE0
7FE0
7FE0
7FE0
7FE0
7FE0
7FE0
7FE0
7FE0
7FE0
7FE0
7FE0
7FE0
7FE0
7FE0
7FE0
3FE0
3F80
7F00
7F00
FE00
FE00
FF00
FF80
7FFC
7FFC
3FFC
1FFC
07FC
0070
ENDCHAR
STARTCHAR 0130
ENCODING 304
SWIDTH 257 0
DWIDTH 20 0
BBX 12 74 4 0
BITMAP
0200
1FC0
3FE0
7FF0
7FF0
FFF0
FFF0
FFF0
7FF0
7FF0
3FE0
1FC0
0000
0000
0000
0000
0000
0000
0000
0000
7FF0
7FF0
7FF0
7FF0
7FF0
7FF0
7FF0
7FF0
7FF0
7FF0
7FF0
7FF0
7FF0
7FF0
7FF0
7FF0
7FF0
7FF0
7FF0
7FF0
7FF0
7FF0
7FF0
7FF0
7FF0
7FF0
7FF0
7FF0
7FF0
7FF0
7FF0
7FF0
7FF0
7FF0
7FF0
7FF0
7FF0
7FF0
7FF0
7FF0
7FF0
7FF0
7FF0
7FF0
7FF0
7FF0
7FF0
7FF0
7FF0
7FF0
7FF0
7FF0
7FF0
7FF0
ENDCHAR
STARTCHAR 0131
ENCODING 305
SWIDTH 282 0
DWIDTH 22 0
BBX 10 41 6 0
BITMAP
FFC0
FFC0
FFC0
FFC0
FFC0
FFC0
FFC0
FFC0
FFC0
FFC0
FFC0
FFC0
FFC0
FFC0
FFC0
FFC0
FFC0
FFC0
FFC0
FFC0
FFC0
FFC0
FFC0
FFC0
FFC0
FFC0
FFC0
FFC0
FFC0
FFC0
FFC0
FFC0
FFC0
FFC0
FFC0
FFC0
FFC0
FFC0
FFC0
FFC0
FFC0
ENDCHAR
STARTCHAR 0139
ENCODING 313
SWIDTH 527 0
DWIDTH 41 0
BBX 35 76 4 0
BITMAP
003FF00000
007FF00000
00FFE00000
00FFC00000
01FFC00000
01FF800000
03FF000000
03FF000000
07FE000000
07FC000000
0FFC000000
0FF8000000
1FF0000000
1FF0000000
3FE0000000
3FC0000000
0000000000
0000000000
0000000000
0000000000
0000000000
0000000000
FFE0000000
FFE0000000
FFE0000000
FFE0000000
FFE0000000
FFE0000000
FFE0000000
FFE0000000
FFE0000000
FFE0000000
FFE0000000
FFE0000000
FFE0000000
FFE0000000
FFE0000000
FFE0000000
FFE0000000
FFE0000000
FFE0000000
FFE0000000
FFE0000000
FFE0000000
FFE0000000
FFE0000000
FFE0000000
FFE0000000
FFE0000000
FFE0000000
FFE0000000
FFE0000000
FFE0000000
FFE0000000
FFE0000000
FFE0000000
FFE0000000
FFE0000000
FFE0000000
FFE0000000
FFE0000000
FFE0000000
FFE0000000
FFE0000000
FFE0000000
7FE0000000
7FE0000000
7FFFFFFFE0
7FFFFFFFE0
7FFFFFFFE0
7FFFFFFFE0
7FFFFFFFE0
7FFFFFFFE0
7FFFFFFFE0
7FFFFFFFE0
7FFFFFFFE0
ENDCHAR
STARTCHAR 013A
ENCODING 314
SWIDTH 334 0
DWIDTH 26 0
BBX 19 79 5 0
BITMAP
007FE0
00FFE0
00FFC0
01FFC0
01FF80
03FF00
03FF00
07FE00
07FC00
0FFC00
0FF800
1FF000
1FF000
3FE000
3FC000
000000
000000
000000
000000
000000
000000
FFE000
FFE000
FFE000
FFE000
FFE000
FFE000
FFE000
FFE000
FFE000
FFE000
FFE000
FFE000
FFE000
FFE000
FFE000
FFE000
FFE000
FFE000
FFE000
FFE000
FFE000
FFE000
FFE000
FFE000
FFE000
FFE000
FFE000
FFE000
FFE000
FFE000
FFE000
FFE000
FFE000
FFE000
FFE000
FFE000
FFE000
FFE000
FFE000
FFE000
FFE000
FFE000
FFE000
FFE000
FFE000
FFE000
FFE000
FFE000
FFE000
FFF000
FFFF60
FFFFE0
7FFFE0
7FFFE0
3FFFE0
1FFFE0
0FFFE0
03FFE0
ENDCHAR
STARTCHAR 013D
ENCODING 317
SWIDTH 527 0
DWIDTH 41 0
BBX 44 72 -5 0
BITMAP
FFC00FFC0000
7FE01FF80000
3FE03FF00000
1FF07FE00000
1FF8FFC00000
0FFDFF800000
07FFFF000000
03FFFE000000
01FFFC000000
00FFFC000000
007FF8000000
003FF0000000
001FE0000000
000000000000
000000000000
000000000000
000000000000
000000000000
007FF0000000
007FF0000000
007FF0000000
007FF0000000
007FF0000000
007FF0000000
007FF0000000
007FF0000000
007FF0000000
007FF0000000
007FF0000000
007FF0000000
007FF0000000
007FF0000000
007FF0000000
007FF0000000
007FF0000000
007FF0000000
007FF0000000
007FF0000000
007FF0000000
007FF0000000
007FF0000000
007FF0000000
007FF0000000
007FF0000000
007FF0000000
007FF0000000
007FF0000000
007FF0000000
007FF0000000
007FF0000000
007FF0000000
007FF0000000
007FF0000000
007FF0000000
007FF0000000
007FF0000000
007FF0000000
007FF0000000
007FF0000000
007FF0000000
007FF0000000
003FF0000000
003FF0000000
003FFFFFFFF0
003FFFFFFFF0
003FFFFFFFF0
003FFFFFFFF0
003FFFFFFFF0
003FFFFFFFF0
003FFFFFFFF0
003FFFFFFFF0
003FFFFFFFF0
ENDCHAR
STARTCHAR 013E
ENCODING 318
SWIDTH 424 0
DWIDTH 33 0
BBX 27 63 5 0
BITMAP
00007F00
0001FF80
0001FFC0
0003FFE0
0003FFE0
FFE3FFE0
FFE3FFE0
FFE3FFE0
FFE3FFE0
FFE1FFE0
FFE0FFE0
FFE007E0
FFE003E0
FFE003E0
FFE003E0
FFE003E0
FFE003C0
FFE007C0
FFE00F80
FFE01F80
FFE07F00
FFE07E00
FFE07800
FFE06000
FFE00000
FFE00000
FFE00000
FFE00000
FFE00000
FFE00000
FFE00000
FFE00000
FFE00000
FFE00000
FFE00000
FFE00000
FFE00000
FFE00000
FFE00000
FFE00000
FFE00000
FFE00000
FFE00000
FFE00000
FFE00000
FFE00000
FFE00000
FFE00000
FFE00000
FFE00000
FFE00000
FFE00000
FFE00000
FFE00000
FFF00000
FFFF6000
FFFFE000
7FFFE000
7FFFE000
3FFFE000
1FFFE000
0FFFE000
03FFE000
ENDCHAR
STARTCHAR 0143
ENCODING 323
SWIDTH 694 0
DWIDTH 54 0
BBX 46 76 4 0
BITMAP
0000001FFC00
0000003FF800
0000003FF000
0000007FF000
0000007FE000
000000FFC000
000000FFC000
000001FF8000
000001FF0000
000003FF0000
000003FE0000
000007FE0000
000007FC0000
00000FF80000
00000FF80000
00001FF00000
000000000000
000000000000
000000000000
000000000000
000000000000
000000000000
FFFC00001FFC
FFFC00001FFC
FFFE00001FFC
FFFE00001FFC
FFFF00001FFC
FFFF00001FFC
FFFF80001FFC
FFFFC0001FFC
FFFFC0001FFC
FFFFE0001FFC
FFFFE0001FFC
FFFFF0001FFC
FFFFF8001FFC
FFFFF8001FFC
FFFFFC001FFC
FFFFFC001FFC
FFFFFE001FFC
FFFFFF001FFC
FFEFFF001FFC
FFE7FF801FFC
FFE7FF801FFC
FFE3FFC01FFC
FFE1FFC01FFC
FFE1FFE01FFC
FFE0FFF01FFC
FFE0FFF01FFC
FFE07FF81FFC
FFE07FF81FFC
FFE03FFC1FFC
FFE01FFE1FFC
FFE01FFE1FFC
FFE00FFF1FFC
FFE007FF1FFC
FFE007FF9FFC
FFE003FFDFFC
FFE003FFDFFC
FFE001FFFFFC
FFE000FFFFFC
FFE000FFFFFC
FFE0007FFFFC
FFE0007FFFFC
FFE0003FFFFC
FFE0001FFFFC
FFE0001FFFFC
FFE0000FFFFC
FFE0000FFFFC
FFE00007FFFC
FFE00003FFFC
FFE00003FFFC
FFE00001FFFC
FFE00001FFFC
FFE00000FFFC
FFE000007FFC
FFE000007FFC
ENDCHAR
STARTCHAR 0144
ENCODING 324
SWIDTH 591 0
DWIDTH 46 0
BBX 39 62 4 0
BITMAP
000001FF80
000003FF80
000003FF00
000007FE00
000007FE00
00000FFC00
00000FF800
00001FF800
00001FF000
00003FF000
00003FE000
00007FC000
00007FC000
0000FF8000
0000FF0000
0000000000
0000000000
0000000000
0000000000
0000000000
00000FF800
FFE07FFE00
FFE0FFFF80
FFE1FFFFC0
FFE3FFFFE0
FFE7FFFFF0
FFEFFFFFF0
FFFFFFFFF8
FFFFFFFFF8
FFFF01FFF8
FFFC007FFC
FFF8003FFC
FFF8003FFC
FFF0001FFC
FFF0001FFC
FFF0000FFE
FFE0000FFE
FFE0000FFE
FFE0000FFE
FFE0000FFE
FFE0000FFE
FFE0000FFE
FFE0000FFE
FFE0000FFE
FFE0000FFE
FFE0000FFE
FFE0000FFE
FFE0000FFE
FFE0000FFE
FFE0000FFE
FFE0000FFE
FFE0000FFE
FFE0000FFE
FFE0000FFE
FFE0000FFE
FFE0000FFE
FFE0000FFE
FFE0000FFE
FFE0000FFE
FFE0000FFE
FFE0000FFE
FFE0000FFE
ENDCHAR
STARTCHAR 0147
ENCODING 327
SWIDTH 694 0
DWIDTH 54 0
BBX 46 72 4 0
BITMAP
00FFC00FFC00
007FE01FF800
003FF01FF000
001FF83FF000
000FFC7FE000
0007FEFFC000
0003FFFF8000
0001FFFF0000
0000FFFE0000
0000FFFC0000
00007FF80000
00003FF00000
00001FE00000
000000000000
000000000000
000000000000
000000000000
000000000000
FFFC00001FFC
FFFC00001FFC
FFFE00001FFC
FFFE00001FFC
FFFF00001FFC
FFFF00001FFC
FFFF80001FFC
FFFFC0001FFC
FFFFC0001FFC
FFFFE0001FFC
FFFFE0001FFC
FFFFF0001FFC
FFFFF8001FFC
FFFFF8001FFC
FFFFFC001FFC
FFFFFC001FFC
FFFFFE001FFC
FFFFFF001FFC
FFEFFF001FFC
FFE7FF801FFC
FFE7FF801FFC
FFE3FFC01FFC
FFE1FFC01FFC
FFE1FFE01FFC
FFE0FFF01FFC
FFE0FFF01FFC
FFE07FF81FFC
FFE07FF81FFC
FFE03FFC1FFC
FFE01FFE1FFC
FFE01FFE1FFC
FFE00FFF1FFC
FFE007FF1FFC
FFE007FF9FFC
FFE003FFDFFC
FFE003FFDFFC
FFE001FFFFFC
FFE000FFFFFC
FFE000FFFFFC
FFE0007FFFFC
FFE0007FFFFC
FFE0003FFFFC
FFE0001FFFFC
FFE0001FFFFC
FFE0000FFFFC
FFE0000FFFFC
FFE00007FFFC
FFE00003FFFC
FFE00003FFFC
FFE00001FFFC
FFE00001FFFC
FFE00000FFFC
FFE000007FFC
FFE000007FFC
ENDCHAR
STARTCHAR 0148
ENCODING 328
SWIDTH 591 0
DWIDTH 46 0
BBX 39 58 4 0
BITMAP
07FE00FFC0
03FF01FF80
01FF83FF00
00FF87FE00
007FCFFC00
003FFFF800
003FFFF000
001FFFE000
000FFFE000
0007FFC000
0003FF8000
0001FF0000
0000000000
0000000000
0000000000
0000000000
00000FF800
FFE07FFE00
FFE0FFFF80
FFE1FFFFC0
FFE3FFFFE0
FFE7FFFFF0
FFEFFFFFF0
FFFFFFFFF8
FFFFFFFFF8
FFFF01FFF8
FFFC007FFC
FFF8003FFC
FFF8003FFC
FFF0001FFC
FFF0001FFC
FFF0000FFE
FFE0000FFE
FFE0000FFE
FFE0000FFE
FFE0000FFE
FFE0000FFE
FFE0000FFE
FFE0000FFE
FFE0000FFE
FFE0000FFE
FFE0000FFE
FFE0000FFE
FFE0000FFE
FFE0000FFE
FFE0000FFE
FFE0000FFE
FFE0000FFE
FFE0000FFE
FFE0000FFE
FFE0000FFE
FFE0000FFE
FFE0000FFE
FFE0000FFE
FFE0000FFE
FFE0000FFE
FFE0000FFE
FFE0000FFE
ENDCHAR
STARTCHAR 014C
ENCODING 332
SWIDTH 720 0
DWIDTH 56 0
BBX 50 67 3 -1
BITMAP
0007FFFFFC0000
0007FFFFFC0000
0007FFFFFC0000
0007FFFFFC0000
0007FFFFFC0000
00000000000000
00000000000000
00000000000000
00000000000000
00000000000000
00000060000000
00003FFF800000
0001FFFFF00000
0007FFFFF80000
001FFFFFFE0000
003FFFFFFF0000
007FFFFFFFC000
00FFFFFFFFE000
01FFFFFFFFE000
03FFFFFFFFF000
07FFFC0FFFF800
07FFF001FFFC00
0FFFC000FFFC00
0FFF80007FFE00
1FFF00003FFE00
1FFE00001FFF00
3FFE00000FFF00
3FFC00000FFF00
3FFC000007FF80
7FF8000007FF80
7FF8000007FF80
7FF8000003FF80
7FF0000003FFC0
7FF0000003FFC0
FFF0000003FFC0
FFF0000003FFC0
FFF0000003FFC0
FFF0000003FFC0
FFF0000001FFC0
FFF0000001FFC0
FFF0000003FFC0
FFF0000003FFC0
FFF0000003FFC0
FFF0000003FFC0
7FF0000003FFC0
7FF0000003FF80
7FF8000007FF80
7FF8000007FF80
7FF8000007FF80
3FFC00000FFF80
3FFC00000FFF00
3FFE00001FFF00
1FFF00001FFE00
1FFF80003FFE00
0FFFC0007FFC00
0FFFE001FFFC00
07FFFC07FFF800
03FFFFFFFFF800
03FFFFFFFFF000
01FFFFFFFFE000
00FFFFFFFFC000
007FFFFFFF8000
001FFFFFFE0000
000FFFFFFC0000
0003FFFFF00000
00007FFF800000
000001E0000000
ENDCHAR
STARTCHAR 014D
ENCODING 333
SWIDTH 578 0
DWIDTH 45 0
BBX 39 54 3 -1
BITMAP
01FFFFFF00
01FFFFFF00
01FFFFFF00
01FFFFFF00
01FFFFFF00
0000000000
0000000000
0000000000
0000000000
0000000000
0000000000
0001FF8000
000FFFF000
003FFFFC00
00FFFFFF00
01FFFFFF80
03FFFFFFC0
07FFFFFFE0
0FFFFFFFE0
1FFFFFFFF0
1FFF00FFF8
3FFC007FF8
3FFC003FFC
3FF8001FFC
7FF0001FFC
7FF0000FFE
7FF0000FFE
7FE0000FFE
FFE00007FE
FFE00007FE
FFE00007FE
FFE00007FE
FFE00007FE
FFE00007FE
FFE00007FE
FFE00007FE
FFE0000FFE
7FE0000FFE
7FF0000FFE
7FF0000FFC
7FF8001FFC
3FF8003FFC
3FFC003FF8
1FFE007FF8
1FFF81FFF0
0FFFFFFFF0
0FFFFFFFE0
07FFFFFFC0
03FFFFFF80
01FFFFFF00
007FFFFE00
003FFFF800
0007FFE000
00003E0000
ENDCHAR
STARTCHAR 0152
ENCODING 338
SWIDTH 964 0
DWIDTH 75 0
BBX 69 54 3 0
BITMAP
00007FFFFFFFFFFFF8
0003FFFFFFFFFFFFF8
000FFFFFFFFFFFFFF8
001FFFFFFFFFFFFFF8
007FFFFFFFFFFFFFF8
00FFFFFFFFFFFFFFF8
01FFFFFFFFFFFFFFF8
03FFFFFFFFFFFFFFF8
07FFFFFFFFFFFFFFF8
07FFF8007FF0000000
0FFFE0007FF0000000
1FFF80007FF0000000
1FFF00007FF0000000
3FFE00007FF0000000
3FFE00007FF0000000
3FFC00007FF0000000
7FF800007FF0000000
7FF800007FF0000000
7FF800007FF0000000
7FF000007FF0000000
FFF000007FF0000000
FFF000007FF0000000
FFF000007FFFFFFF80
FFE000007FFFFFFF80
FFE000007FFFFFFF80
FFE000007FFFFFFF80
FFE000007FFFFFFF80
FFE000007FFFFFFF80
FFE000007FFFFFFF80
FFE000007FFFFFFF80
FFF000007FFFFFFF80
FFF000007FF0000000
FFF000007FF0000000
FFF000007FF0000000
7FF000007FF0000000
7FF800007FF0000000
7FF800007FF0000000
7FFC00007FF0000000
3FFC00007FF0000000
3FFE00007FF0000000
1FFF00007FF0000000
1FFF80007FF0000000
0FFFC0007FF0000000
0FFFF0007FF0000000
07FFFFFFFFF0000000
03FFFFFFFFFFFFFFF8
01FFFFFFFFFFFFFFF8
01FFFFFFFFFFFFFFF8
007FFFFFFFFFFFFFF8
003FFFFFFFFFFFFFF8
001FFFFFFFFFFFFFF8
0007FFFFFFFFFFFFF8
0001FFFFFFFFFFFFF8
00001FFFFFFFFFFFF8
ENDCHAR
STARTCHAR 0153
ENCODING 339
SWIDTH 938 0
DWIDTH 73 0
BBX 67 43 3 -1
BITMAP
0001FE00000FFC0000
000FFFE0007FFF8000
003FFFF801FFFFE000
00FFFFFC03FFFFF000
01FFFFFE07FFFFF800
03FFFFFF0FFFFFFC00
07FFFFFF9FFFFFFE00
0FFFFFFFDFFFFFFF00
0FFFFFFFFFF80FFF80
1FFF01FFFFE003FF80
3FFC00FFFFC001FF80
3FFC003FFFC000FFC0
3FF8003FFF8000FFC0
7FF0001FFF80007FC0
7FF0001FFF00007FE0
7FE0000FFF00007FE0
7FE0000FFF00007FE0
FFE0000FFFFFFFFFE0
FFE0000FFFFFFFFFE0
FFE0000FFFFFFFFFE0
FFC00007FFFFFFFFE0
FFC00007FFFFFFFFE0
FFC00007FFFFFFFFE0
FFE0000FFFFFFFFFE0
FFE0000FFF00000000
FFE0000FFF00000000
7FE0000FFF00000000
7FE0000FFF00000000
7FF0001FFF80000000
7FF0001FFF8000FFE0
3FF8003FFFC000FFC0
3FFC007FFFC001FFC0
3FFE00FFFFF003FFC0
1FFF01FFFFFC0FFF80
0FFFFFFFFFFFFFFF80
0FFFFFFFDFFFFFFF00
07FFFFFF9FFFFFFE00
03FFFFFF0FFFFFFC00
01FFFFFE07FFFFF800
00FFFFFC03FFFFF000
003FFFF800FFFFC000
000FFFC0003FFF0000
0001FE000003C00000
ENDCHAR
STARTCHAR 0154
ENCODING 340
SWIDTH 604 0
DWIDTH 47 0
BBX 41 76 4 0
BITMAP
000003FF8000
000003FF0000
000007FF0000
000007FE0000
00000FFC0000
00000FFC0000
00001FF80000
00001FF00000
00003FF00000
00003FE00000
00007FE00000
00007FC00000
0000FF800000
0000FF800000
0001FF000000
0001FE000000
000000000000
000000000000
000000000000
000000000000
000000000000
000000000000
FFFFFFF00000
FFFFFFFC0000
FFFFFFFF0000
FFFFFFFFC000
FFFFFFFFE000
FFFFFFFFF000
FFFFFFFFF800
FFFFFFFFF800
FFFFFFFFFC00
FFE001FFFE00
FFE0003FFE00
FFE0000FFE00
FFE0000FFF00
FFE00007FF00
FFE00007FF00
FFE00003FF00
FFE00003FF00
FFE00003FF00
FFE00003FF00
FFE00007FF00
FFE00007FF00
FFE00007FF00
FFE0000FFE00
FFE0001FFE00
FFE0007FFE00
FFFFFFFFFC00
FFFFFFFFFC00
FFFFFFFFF800
FFFFFFFFF000
FFFFFFFFE000
FFFFFFFFC000
FFFFFFFF0000
FFFFFFFC0000
FFFFFFF80000
FFE03FFC0000
FFE01FFC0000
FFE00FFE0000
FFE00FFF0000
FFE007FF0000
FFE007FF8000
FFE003FF8000
FFE001FFC000
FFE001FFC000
FFE000FFE000
FFE000FFF000
FFE0007FF000
FFE0007FF800
FFE0003FF800
FFE0001FFC00
FFE0001FFE00
FFE0000FFE00
FFE0000FFF00
FFE00007FF00
FFE00003FF80
ENDCHAR
STARTCHAR 0155
ENCODING 341
SWIDTH 385 0
DWIDTH 30 0
BBX 25 62 5 0
BITMAP
0001FF80
0003FF80
0003FF00
0007FE00
0007FE00
000FFC00
000FF800
001FF800
001FF000
003FE000
003FE000
007FC000
007F8000
00FF8000
01FF0000
00000000
00000000
00000000
00000000
00000000
00000000
FFC03F00
FFC1FF00
FFC3FF00
FFC7FF00
FFCFFF00
FFDFFF00
FFFFFF00
FFFFFF00
FFFFFF00
FFFFFF00
FFFE0000
FFF80000
FFF00000
FFF00000
FFE00000
FFE00000
FFE00000
FFE00000
FFC00000
FFC00000
FFC00000
FFC00000
FFC00000
FFC00000
FFC00000
FFC00000
FFC00000
FFC00000
FFC00000
FFC00000
FFC00000
FFC00000
FFC00000
FFC00000
FFC00000
FFC00000
FFC00000
FFC00000
FFC00000
FFC00000
FFC00000
ENDCHAR
STARTCHAR 0158
ENCODING 344
SWIDTH 604 0
DWIDTH 47 0
BBX 41 72 4 0
BITMAP
0FFC00FFC000
07FC01FF8000
03FE03FF0000
03FF07FE0000
01FF8FFC0000
00FFDFF80000
007FFFF00000
003FFFE00000
001FFFC00000
000FFF800000
0007FF800000
0003FF000000
0001FE000000
000000000000
000000000000
000000000000
000000000000
000000000000
FFFFFFF00000
FFFFFFFC0000
FFFFFFFF0000
FFFFFFFFC000
FFFFFFFFE000
FFFFFFFFF000
FFFFFFFFF800
FFFFFFFFF800
FFFFFFFFFC00
FFE001FFFE00
FFE0003FFE00
FFE0000FFE00
FFE0000FFF00
FFE00007FF00
FFE00007FF00
FFE00003FF00
FFE00003FF00
FFE00003FF00
FFE00003FF00
FFE00007FF00
FFE00007FF00
FFE00007FF00
FFE0000FFE00
FFE0001FFE00
FFE0007FFE00
FFFFFFFFFC00
FFFFFFFFFC00
FFFFFFFFF800
FFFFFFFFF000
FFFFFFFFE000
FFFFFFFFC000
FFFFFFFF0000
FFFFFFFC0000
FFFFFFF80000
FFE03FFC0000
FFE01FFC0000
FFE00FFE0000
FFE00FFF0000
FFE007FF0000
FFE007FF8000
FFE003FF8000
FFE001FFC000
FFE001FFC000
FFE000FFE000
FFE000FFF000
FFE0007FF000
FFE0007FF800
FFE0003FF800
FFE0001FFC00
FFE0001FFE00
FFE0000FFE00
FFE0000FFF00
FFE00007FF00
FFE00003FF80
ENDCHAR
STARTCHAR 0159
ENCODING 345
SWIDTH 385 0
DWIDTH 30 0
BBX 29 58 2 0
BITMAP
FFC01FF8
7FE03FF0
3FF07FE0
1FF0FFC0
0FF9FF80
0FFFFF00
07FFFE00
03FFFC00
01FFF800
00FFF800
007FF000
003FE000
00000000
00000000
00000000
00000000
00000000
1FF807E0
1FF83FE0
1FF87FE0
1FF8FFE0
1FF9FFE0
1FFBFFE0
1FFFFFE0
1FFFFFE0
1FFFFFE0
1FFFFFE0
1FFFC000
1FFF0000
1FFE0000
1FFE0000
1FFC0000
1FFC0000
1FFC0000
1FFC0000
1FF80000
1FF80000
1FF80000
1FF80000
1FF80000
1FF80000
1FF80000
1FF80000
1FF80000
1FF80000
1FF80000
1FF80000
1FF80000
1FF80000
1FF80000
1FF80000
1FF80000
1FF80000
1FF80000
1FF80000
1FF80000
1FF80000
1FF80000
ENDCHAR
STARTCHAR 015A
ENCODING 346
SWIDTH 591 0
DWIDTH 46 0
BBX 41 76 3 -1
BITMAP
0000003FF800
0000003FF000
0000007FF000
0000007FE000
000000FFC000
000000FFC000
000001FF8000
000001FF0000
000003FF0000
000003FE0000
000007FC0000
000007FC0000
00000FF80000
00000FF00000
00001FF00000
000000000000
000000000000
000000000000
000000000000
000018000000
0007FFF00000
001FFFFE0000
007FFFFF0000
01FFFFFFC000
03FFFFFFE000
07FFFFFFF000
0FFFFFFFF800
0FFFFFFFFC00
1FFFFFFFFC00
1FFF007FFE00
3FFE003FFE00
3FFC001FFF00
3FF8001FFF00
3FF8000FFF00
3FF8000FFF00
3FF8000FFF00
3FF8000FFF00
3FF800000000
3FF800000000
3FFC00000000
3FFF00000000
1FFFC0000000
1FFFFC000000
0FFFFFE00000
0FFFFFFC0000
07FFFFFF0000
03FFFFFFC000
00FFFFFFF000
003FFFFFF800
000FFFFFFC00
0003FFFFFE00
00001FFFFE00
000001FFFF00
0000003FFF00
0000000FFF80
00000007FF80
00000007FF80
FFF00003FF80
FFF00003FF80
FFF00003FF80
7FF80003FF80
7FF80007FF80
7FFC0007FF80
7FFC000FFF00
3FFF001FFF00
3FFF807FFF00
1FFFFFFFFE00
1FFFFFFFFE00
0FFFFFFFFC00
07FFFFFFF800
03FFFFFFF000
01FFFFFFE000
007FFFFFC000
001FFFFF0000
0007FFF80000
00003F000000
ENDCHAR
STARTCHAR 015B
ENCODING 347
SWIDTH 488 0
DWIDTH 38 0
BBX 33 64 3 -1
BITMAP
00000FFE00
00000FFC00
00001FF800
00001FF800
00003FF000
00007FE000
00007FE000
0000FFC000
0000FF8000
0001FF8000
0001FF0000
0003FE0000
0003FE0000
0007FC0000
0007FC0000
0000000000
0000000000
0000000000
0000000000
0000000000
0000000000
001FF80000
00FFFF0000
03FFFFC000
07FFFFF000
0FFFFFF800
1FFFFFFC00
3FFFFFFC00
3FFFFFFE00
3FF81FFE00
7FE00FFF00
7FE007FF00
7FE007FF00
7FE003FF00
7FE0000000
7FE0000000
7FF8000000
3FFE000000
3FFFF00000
1FFFFF0000
1FFFFFC000
0FFFFFF000
03FFFFF800
01FFFFFC00
007FFFFE00
0007FFFF00
00003FFF00
000007FF00
000003FF80
FFE003FF80
FFE001FF80
FFE001FF80
FFE003FF80
7FF003FF00
7FF80FFF00
7FFFFFFF00
3FFFFFFE00
1FFFFFFE00
1FFFFFFC00
0FFFFFF800
03FFFFF000
01FFFFC000
003FFF0000
0001C00000
ENDCHAR
STARTCHAR 015E
ENCODING 350
SWIDTH 591 0
DWIDTH 46 0
BBX 41 75 3 -19
BITMAP
000018000000
0007FFF00000
001FFFFE0000
007FFFFF0000
01FFFFFFC000
03FFFFFFE000
07FFFFFFF000
0FFFFFFFF800
0FFFFFFFFC00
1FFFFFFFFC00
1FFF007FFE00
3FFE003FFE00
3FFC001FFF00
3FF8001FFF00
3FF8000FFF00
3FF8000FFF00
3FF8000FFF00
3FF8000FFF00
3FF800000000
3FF800000000
3FFC00000000
3FFF00000000
1FFFC0000000
1FFFFC000000
0FFFFFE00000
0FFFFFFC0000
07FFFFFF0000
03FFFFFFC000
00FFFFFFF000
003FFFFFF800
000FFFFFFC00
0003FFFFFE00
00001FFFFE00
000001FFFF00
0000003FFF00
0000000FFF80
00000007FF80
00000007FF80
FFF00003FF80
FFF00003FF80
FFF00003FF80
7FF80003FF80
7FF80007FF80
7FFC0007FF80
7FFC000FFF00
3FFF001FFF00
3FFF807FFF00
1FFFFFFFFE00
1FFFFFFFFE00
0FFFFFFFFC00
07FFFFFFF800
03FFFFFFF000
01FFFFFFE000
007FFFFF8000
001FFFFF0000
0007FFF80000
00003F000000
00003E000000
00007E000000
00007F800000
00007FF00000
00007FF80000
0000FFFC0000
0000FFFE0000
0000007E0000
0000003E0000
0000003E0000
0000003E0000
0000003E0000
000060FE0000
00007FFE0000
00007FFC0000
00007FF80000
00007FF00000
00007FE00000
ENDCHAR
STARTCHAR 015F
ENCODING 351
SWIDTH 488 0
DWIDTH 38 0
BBX 33 61 3 -19
BITMAP
001FF80000
00FFFF0000
03FFFFC000
07FFFFF000
0FFFFFF800
1FFFFFFC00
3FFFFFFC00
3FFFFFFE00
3FF81FFE00
7FE00FFF00
7FE007FF00
7FE007FF00
7FE003FF00
7FE0000000
7FE0000000
7FF8000000
3FFE000000
3FFFF00000
1FFFFF0000
1FFFFFC000
0FFFFFF000
03FFFFF800
01FFFFFC00
007FFFFE00
0007FFFF00
00003FFF00
000007FF00
000003FF80
FFE003FF80
FFE001FF80
FFE001FF80
FFE003FF80
7FF003FF00
7FF80FFF00
7FFFFFFF00
3FFFFFFE00
1FFFFFFE00
1FFFFFFC00
0FFFFFF800
03FFFFF000
01FFFFC000
007FFF0000
0003F00000
0003F00000
0003E00000
0003FC0000
0007FF8000
0007FFC000
0007FFE000
0007FFE000
000003F000
000001F000
000001F000
000001F000
000003F000
00079FF000
0007FFE000
0007FFE000
0007FFC000
0007FF8000
0003FE0000
ENDCHAR
STARTCHAR 0160
ENCODING 352
SWIDTH 591 0
DWIDTH 46 0
BBX 41 73 3 -1
BITMAP
00FFC00FFC00
007FE01FF800
003FF03FF000
001FF87FE000
000FF87FC000
0007FCFFC000
0007FFFF8000
0003FFFF0000
0001FFFE0000
0000FFFC0000
00007FF80000
00003FF00000
00001FE00000
000000000000
000000000000
000000000000
000018000000
0007FFF00000
001FFFFE0000
007FFFFF0000
01FFFFFFC000
03FFFFFFE000
07FFFFFFF000
0FFFFFFFF800
0FFFFFFFFC00
1FFFFFFFFC00
1FFF007FFE00
3FFE003FFE00
3FFC001FFF00
3FF8001FFF00
3FF8000FFF00
3FF8000FFF00
3FF8000FFF00
3FF8000FFF00
3FF800000000
3FF800000000
3FFC00000000
3FFF00000000
1FFFC0000000
1FFFFC000000
0FFFFFE00000
0FFFFFFC0000
07FFFFFF0000
03FFFFFFC000
00FFFFFFF000
003FFFFFF800
000FFFFFFC00
0003FFFFFE00
00001FFFFE00
000001FFFF00
0000003FFF00
0000000FFF80
00000007FF80
00000007FF80
FFF00003FF80
FFF00003FF80
FFF00003FF80
7FF80003FF80
7FF80007FF80
7FFC0007FF80
7FFC000FFF00
3FFF001FFF00
3FFF807FFF00
1FFFFFFFFE00
1FFFFFFFFE00
0FFFFFFFFC00
07FFFFFFF800
03FFFFFFF000
01FFFFFFE000
007FFFFFC000
001FFFFF0000
0007FFF80000
00003F000000
ENDCHAR
STARTCHAR 0161
ENCODING 353
SWIDTH 488 0
DWIDTH 38 0
BBX 33 60 3 -1
BITMAP
3FF007FE00
1FF80FFC00
0FFC1FF800
07FE1FF000
03FF3FE000
01FFFFE000
00FFFFC000
007FFF8000
003FFF0000
003FFE0000
001FFC0000
000FF80000
0000000000
0000000000
0000000000
0000000000
0000000000
001FF80000
00FFFF0000
03FFFFC000
07FFFFF000
0FFFFFF800
1FFFFFFC00
3FFFFFFC00
3FFFFFFE00
3FF81FFE00
7FE00FFF00
7FE007FF00
7FE007FF00
7FE003FF00
7FE0000000
7FE0000000
7FF8000000
3FFE000000
3FFFF00000
1FFFFF0000
1FFFFFC000
0FFFFFF000
03FFFFF800
01FFFFFC00
007FFFFE00
0007FFFF00
00003FFF00
000007FF00
000003FF80
FFE003FF80
FFE001FF80
FFE001FF80
FFE003FF80
7FF003FF00
7FF80FFF00
7FFFFFFF00
3FFFFFFE00
1FFFFFFE00
1FFFFFFC00
0FFFFFF800
03FFFFF000
01FFFFC000
003FFF0000
0001C00000
ENDCHAR
STARTCHAR 0162
ENCODING 354
SWIDTH 591 0
DWIDTH 46 0
BBX 40 73 3 -19
BITMAP
FFFFFFFFFF
FFFFFFFFFF
FFFFFFFFFF
FFFFFFFFFF
FFFFFFFFFF
FFFFFFFFFF
FFFFFFFFFF
FFFFFFFFFF
FFFFFFFFFF
0001FF8000
0001FF8000
0001FF8000
0001FF8000
0001FF8000
0001FF8000
0001FF8000
0001FF8000
0001FF8000
0001FF8000
0001FF8000
0001FF8000
0001FF8000
0001FF8000
0001FF8000
0001FF8000
0001FF8000
0001FF8000
0001FF8000
0001FF8000
0001FF8000
0001FF8000
0001FF8000
0001FF8000
0001FF8000
0001FF8000
0001FF8000
0001FF8000
0001FF8000
0001FF8000
0001FF8000
0001FF8000
0001FF8000
0001FF8000
0001FF8000
0001FF8000
0001FF8000
0001FF8000
0001FF8000
0001FF8000
0001FF8000
0001FF8000
0001FF8000
0001FF8000
0001FF8000
0000F80000
0000F80000
0001F80000
0001FE0000
0001FFC000
0003FFE000
0003FFF000
0003FFF800
000001F800
000000F800
000000F800
000000F800
000001F800
000383F800
0003FFF800
0003FFF000
0003FFE000
0003FFC000
0001FF8000
ENDCHAR
STARTCHAR 0163
ENCODING 355
SWIDTH 411 0
DWIDTH 32 0
BBX 28 73 2 -19
BITMAP
01FFC000
01FFC000
01FFC000
01FFC000
01FFC000
01FFC000
01FFC000
01FFC000
01FFC000
01FFC000
01FFC000
01FFC000
01FFC000
FFFFFFE0
FFFFFFE0
FFFFFFE0
FFFFFFE0
FFFFFFE0
FFFFFFE0
FFFFFFE0
FFFFFFE0
01FFC000
01FFC000
01FFC000
01FFC000
01FFC000
01FFC000
01FFC000
01FFC000
01FFC000
01FFC000
01FFC000
01FFC000
01FFC000
01FFC000
01FFC000
01FFC000
01FFC000
01FFC000
01FFC000
01FFC000
01FFC000
01FFC000
01FFC000
01FFC000
01FFE000
01FFFEE0
01FFFFE0
00FFFFE0
00FFFFE0
007FFFE0
003FFFE0
001FFFE0
0007FFE0
0003E000
0003E000
0007E000
0007FE00
0007FF80
0007FFC0
000FFFC0
000FFFE0
000003E0
000003E0
000003F0
000003F0
000007E0
0007FFE0
0007FFE0
0007FFC0
0007FF80
0007FF00
0003FC00
ENDCHAR
STARTCHAR 0164
ENCODING 356
SWIDTH 591 0
DWIDTH 46 0
BBX 40 72 3 0
BITMAP
07FE007FE0
03FF00FFC0
01FF81FF80
00FFC3FF00
007FC7FE00
003FE7FC00
001FFFFC00
001FFFF800
000FFFF000
0007FFE000
0003FFC000
0001FF8000
0000FF0000
0000000000
0000000000
0000000000
0000000000
0000000000
FFFFFFFFFF
FFFFFFFFFF
FFFFFFFFFF
FFFFFFFFFF
FFFFFFFFFF
FFFFFFFFFF
FFFFFFFFFF
FFFFFFFFFF
FFFFFFFFFF
0001FF8000
0001FF8000
0001FF8000
0001FF8000
0001FF8000
0001FF8000
0001FF8000
0001FF8000
0001FF8000
0001FF8000
0001FF8000
0001FF8000
0001FF8000
0001FF8000
0001FF8000
0001FF8000
0001FF8000
0001FF8000
0001FF8000
0001FF8000
0001FF8000
0001FF8000
0001FF8000
0001FF8000
0001FF8000
0001FF8000
0001FF8000
0001FF8000
0001FF8000
0001FF8000
0001FF8000
0001FF8000
0001FF8000
0001FF8000
0001FF8000
0001FF8000
0001FF8000
0001FF8000
0001FF8000
0001FF8000
0001FF8000
0001FF8000
0001FF8000
0001FF8000
0001FF8000
ENDCHAR
STARTCHAR 0165
ENCODING 357
SWIDTH 552 0
DWIDTH 43 0
BBX 40 63 2 0
BITMAP
00000003F8
00000007FC
0000000FFE
0000001FFF
0000001FFF
0000001FFF
0000001FFF
0000001FFF
0000001FFF
01FFC00FFF
01FFC003FF
01FFC0003F
01FFC0001F
01FFC0001F
01FFC0001F
01FFC0001F
01FFC0001F
01FFC0003E
01FFC0003E
01FFC000FC
01FFC001F8
01FFC003F0
FFFFFFE3C0
FFFFFFE300
FFFFFFE000
FFFFFFE000
FFFFFFE000
FFFFFFE000
FFFFFFE000
FFFFFFE000
01FFC00000
01FFC00000
01FFC00000
01FFC00000
01FFC00000
01FFC00000
01FFC00000
01FFC00000
01FFC00000
01FFC00000
01FFC00000
01FFC00000
01FFC00000
01FFC00000
01FFC00000
01FFC00000
01FFC00000
01FFC00000
01FFC00000
01FFC00000
01FFC00000
01FFC00000
01FFC00000
01FFC00000
01FFE00000
01FFFEE000
01FFFFE000
00FFFFE000
00FFFFE000
007FFFE000
003FFFE000
001FFFE000
0007FFE000
ENDCHAR
STARTCHAR 0166
ENCODING 358
SWIDTH 591 0
DWIDTH 46 0
BBX 40 54 3 0
BITMAP
FFFFFFFFFF
FFFFFFFFFF
FFFFFFFFFF
FFFFFFFFFF
FFFFFFFFFF
FFFFFFFFFF
FFFFFFFFFF
FFFFFFFFFF
FFFFFFFFFF
0001FF8000
0001FF8000
0001FF8000
0001FF8000
0001FF8000
0001FF8000
0001FF8000
0001FF8000
0001FF8000
0001FF8000
0001FF8000
0001FF8000
0001FF8000
1FFFFFFFF8
1FFFFFFFF8
1FFFFFFFF8
1FFFFFFFF8
1FFFFFFFF8
1FFFFFFFF8
1FFFFFFFF8
0001FF8000
0001FF8000
0001FF8000
0001FF8000
0001FF8000
0001FF8000
0001FF8000
0001FF8000
0001FF8000
0001FF8000
0001FF8000
0001FF8000
0001FF8000
0001FF8000
0001FF8000
0001FF8000
0001FF8000
0001FF8000
0001FF8000
0001FF8000
0001FF8000
0001FF8000
0001FF8000
0001FF8000
0001FF8000
ENDCHAR
STARTCHAR 0167
ENCODING 359
SWIDTH 411 0
DWIDTH 32 0
BBX 27 54 2 0
BITMAP
01FFC000
01FFC000
01FFC000
01FFC000
01FFC000
01FFC000
01FFC000
01FFC000
01FFC000
01FFC000
01FFC000
01FFC000
01FFC000
FFFFFFE0
FFFFFFE0
FFFFFFE0
FFFFFFE0
FFFFFFE0
FFFFFFE0
FFFFFFE0
FFFFFFE0
01FFC000
01FFC000
01FFC000
01FFC000
01FFC000
01FFC000
01FFC000
FFFFFFE0
FFFFFFE0
FFFFFFE0
FFFFFFE0
FFFFFFE0
FFFFFFE0
01FFC000
01FFC000
01FFC000
01FFC000
01FFC000
01FFC000
01FFC000
01FFC000
01FFC000
01FFC000
01FFC000
01FFE000
01FFFEE0
00FFFFE0
00FFFFE0
00FFFFE0
007FFFE0
003FFFE0
001FFFE0
0007FFE0
ENDCHAR
STARTCHAR 0168
ENCODING 360
SWIDTH 681 0
DWIDTH 53 0
BBX 45 72 4 -1
BITMAP
0003FC07E000
000FFF07E000
000FFFC7E000
001FFFFFE000
001FFFFFC000
003FFFFFC000
003FBFFFC000
003F07FF8000
003F01FF0000
003F00180000
000000000000
000000000000
000000000000
000000000000
000000000000
000000000000
000000000000
FFE000003FF8
FFE000003FF8
FFE000003FF8
FFE000003FF8
FFE000003FF8
FFE000003FF8
FFE000003FF8
FFE000003FF8
FFE000003FF8
FFE000003FF8
FFE000003FF8
FFE000003FF8
FFE000003FF8
FFE000003FF8
FFE000003FF8
FFE000003FF8
FFE000003FF8
FFE000003FF8
FFE000003FF8
FFE000003FF8
FFE000003FF8
FFE000003FF8
FFE000003FF8
FFE000003FF8
FFE000003FF8
FFE000003FF8
FFE000003FF8
FFE000003FF8
FFE000003FF8
FFE000003FF8
FFE000003FF8
FFE000003FF8
FFE000003FF8
FFE000003FF8
FFE000003FF8
7FF000003FF8
7FF000007FF0
7FF000007FF0
7FF800007FF0
7FF80000FFF0
3FFC0000FFF0
3FFE0001FFE0
3FFF0003FFE0
1FFF800FFFC0
1FFFFFFFFFC0
0FFFFFFFFF80
0FFFFFFFFF80
07FFFFFFFF00
03FFFFFFFE00
01FFFFFFFC00
00FFFFFFF800
003FFFFFE000
000FFFFFC000
0003FFFE0000
00001FC00000
ENDCHAR
STARTCHAR 0169
ENCODING 361
SWIDTH 578 0
DWIDTH 45 0
BBX 38 59 4 -1
BITMAP
001F807E00
007FE07E00
00FFF87E00
01FFFFFE00
01FFFFFC00
03FFFFFC00
03FFFFFC00
03F0FFF800
03F03FF000
03F00FC000
0000000000
0000000000
0000000000
0000000000
0000000000
0000000000
0000000000
FFE0001FFC
FFE0001FFC
FFE0001FFC
FFE0001FFC
FFE0001FFC
FFE0001FFC
FFE0001FFC
FFE0001FFC
FFE0001FFC
FFE0001FFC
FFE0001FFC
FFE0001FFC
FFE0001FFC
FFE0001FFC
FFE0001FFC
FFE0001FFC
FFE0001FFC
FFE0001FFC
FFE0001FFC
FFE0001FFC
FFE0001FFC
FFE0001FFC
FFE0001FFC
FFE0001FFC
FFE0001FFC
FFE0001FFC
FFF0001FFC
7FF0003FFC
7FF0003FFC
7FF8007FFC
7FF8007FFC
7FFE00FFFC
3FFF83FFFC
3FFFFFFFFC
3FFFFFDFFC
1FFFFFDFFC
0FFFFF9FFC
0FFFFF1FFC
07FFFE1FFC
03FFFC1FFC
00FFF81FFC
001F800000
ENDCHAR
STARTCHAR 016A
ENCODING 362
SWIDTH 681 0
DWIDTH 53 0
BBX 45 67 4 -1
BITMAP
003FFFFFE000
003FFFFFE000
003FFFFFE000
003FFFFFE000
003FFFFFE000
000000000000
000000000000
000000000000
000000000000
000000000000
000000000000
000000000000
FFE000003FF8
FFE000003FF8
FFE000003FF8
FFE000003FF8
FFE000003FF8
FFE000003FF8
FFE000003FF8
FFE000003FF8
FFE000003FF8
FFE000003FF8
FFE000003FF8
FFE000003FF8
FFE000003FF8
FFE000003FF8
FFE000003FF8
FFE000003FF8
FFE000003FF8
FFE000003FF8
FFE000003FF8
FFE000003FF8
FFE000003FF8
FFE000003FF8
FFE000003FF8
FFE000003FF8
FFE000003FF8
FFE000003FF8
FFE000003FF8
FFE000003FF8
FFE000003FF8
FFE000003FF8
FFE000003FF8
FFE000003FF8
FFE000003FF8
FFE000003FF8
FFE000003FF8
7FF000003FF8
7FF000007FF0
7FF000007FF0
7FF800007FF0
7FF80000FFF0
3FFC0000FFF0
3FFE0001FFE0
3FFF0003FFE0
1FFF800FFFC0
1FFFFFFFFFC0
0FFFFFFFFF80
0FFFFFFFFF80
07FFFFFFFF00
03FFFFFFFE00
01FFFFFFFC00
00FFFFFFF800
003FFFFFE000
000FFFFFC000
0003FFFE0000
00001FC00000
ENDCHAR
STARTCHAR 016B
ENCODING 363
SWIDTH 578 0
DWIDTH 45 0
BBX 38 54 4 -1
BITMAP
03FFFFFE00
03FFFFFE00
03FFFFFE00
03FFFFFE00
03FFFFFE00
0000000000
0000000000
0000000000
0000000000
0000000000
0000000000
0000000000
FFE0001FFC
FFE0001FFC
FFE0001FFC
FFE0001FFC
FFE0001FFC
FFE0001FFC
FFE0001FFC
FFE0001FFC
FFE0001FFC
FFE0001FFC
FFE0001FFC
FFE0001FFC
FFE0001FFC
FFE0001FFC
FFE0001FFC
FFE0001FFC
FFE0001FFC
FFE0001FFC
FFE0001FFC
FFE0001FFC
FFE0001FFC
FFE0001FFC
FFE0001FFC
FFE0001FFC
FFE0001FFC
FFE0001FFC
FFF0001FFC
7FF0003FFC
7FF0003FFC
7FF8007FFC
7FF8007FFC
7FFE00FFFC
3FFF83FFFC
3FFFFFFFFC
3FFFFFDFFC
1FFFFFDFFC
0FFFFF9FFC
0FFFFF1FFC
07FFFE1FFC
03FFFC1FFC
00FFF81FFC
001F800000
ENDCHAR
STARTCHAR 016E
ENCODING 366
SWIDTH 681 0
DWIDTH 53 0
BBX 45 77 4 -1
BITMAP
000002000000
00001FC00000
00007FF00000
0000FFF80000
0000FFF80000
0001F8FC0000
0001F07C0000
0001E03C0000
0001E03C0000
0001F03C0000
0001F07C0000
0000FFFC0000
0000FFF80000
00007FF00000
00003FE00000
00000F800000
000000000000
000000000000
000000000000
000000000000
000000000000
000000000000
FFE000003FF8
FFE000003FF8
FFE000003FF8
FFE000003FF8
FFE000003FF8
FFE000003FF8
FFE000003FF8
FFE000003FF8
FFE000003FF8
FFE000003FF8
FFE000003FF8
FFE000003FF8
FFE000003FF8
FFE000003FF8
FFE000003FF8
FFE000003FF8
FFE000003FF8
FFE000003FF8
FFE000003FF8
FFE000003FF8
FFE000003FF8
FFE000003FF8
FFE000003FF8
FFE000003FF8
FFE000003FF8
FFE000003FF8
FFE000003FF8
FFE000003FF8
FFE000003FF8
FFE000003FF8
FFE000003FF8
FFE000003FF8
FFE000003FF8
FFE000003FF8
FFE000003FF8
7FF000003FF8
7FF000007FF0
7FF000007FF0
7FF800007FF0
7FF80000FFF0
3FFC0000FFF0
3FFE0001FFE0
3FFF0003FFE0
1FFF800FFFC0
1FFFFFFFFFC0
0FFFFFFFFF80
0FFFFFFFFF80
07FFFFFFFF00
03FFFFFFFE00
01FFFFFFFC00
00FFFFFFF800
003FFFFFE000
000FFFFFC000
0003FFFE0000
00001FC00000
ENDCHAR
STARTCHAR 016F
ENCODING 367
SWIDTH 578 0
DWIDTH 45 0
BBX 38 63 4 -1
BITMAP
0001FC0000
0003FE0000
0007FF0000
000FFF8000
001FDF8000
001F07C000
001E07C000
001E03C000
001E03C000
001F07C000
001F8FC000
000FFF8000
000FFF0000
0007FE0000
0001FC0000
0000000000
0000000000
0000000000
0000000000
0000000000
0000000000
FFE0001FFC
FFE0001FFC
FFE0001FFC
FFE0001FFC
FFE0001FFC
FFE0001FFC
FFE0001FFC
FFE0001FFC
FFE0001FFC
FFE0001FFC
FFE0001FFC
FFE0001FFC
FFE0001FFC
FFE0001FFC
FFE0001FFC
FFE0001FFC
FFE0001FFC
FFE0001FFC
FFE0001FFC
FFE0001FFC
FFE0001FFC
FFE0001FFC
FFE0001FFC
FFE0001FFC
FFE0001FFC
FFE0001FFC
FFF0001FFC
7FF0003FFC
7FF0003FFC
7FF8007FFC
7FF8007FFC
7FFE00FFFC
3FFF83FFFC
3FFFFFFFFC
3FFFFFDFFC
1FFFFFDFFC
0FFFFF9FFC
0FFFFF1FFC
07FFFE1FFC
03FFFC1FFC
00FFF81FFC
001F800000
ENDCHAR
STARTCHAR 0172
ENCODING 370
SWIDTH 681 0
DWIDTH 53 0
BBX 45 68 4 -14
BITMAP
FFE000003FF8
FFE000003FF8
FFE000003FF8
FFE000003FF8
FFE000003FF8
FFE000003FF8
FFE000003FF8
FFE000003FF8
FFE000003FF8
FFE000003FF8
FFE000003FF8
FFE000003FF8
FFE000003FF8
FFE000003FF8
FFE000003FF8
FFE000003FF8
FFE000003FF8
FFE000003FF8
FFE000003FF8
FFE000003FF8
FFE000003FF8
FFE000003FF8
FFE000003FF8
FFE000003FF8
FFE000003FF8
FFE000003FF8
FFE000003FF8
FFE000003FF8
FFE000003FF8
FFE000003FF8
FFE000003FF8
FFE000003FF8
FFE000003FF8
FFE000003FF8
FFE000003FF8
7FF000003FF8
7FF000007FF0
7FF000007FF0
7FF800007FF0
7FF80000FFF0
3FFC0000FFF0
3FFE0001FFE0
3FFF0003FFE0
1FFF800FFFC0
1FFFFFFFFFC0
0FFFFFFFFF80
07FFFFFFFF80
07FFFFFFFF00
03FFFFFFFE00
01FFFFFFFC00
00FFFFFFF800
003FFFFFE000
000FFFFF8000
0003FFFE0000
00003FE00000
00003FC00000
00007F000000
00007F000000
0000FE000000
0000FE000000
0000FF000000
0000FF800000
00007FFC0000
00007FFC0000
00003FFC0000
00001FFC0000
00000FFC0000
000001FC0000
ENDCHAR
STARTCHAR 0173
ENCODING 371
SWIDTH 578 0
DWIDTH 45 0
BBX 40 55 4 -14
BITMAP
FFE0001FFC
FFE0001FFC
FFE0001FFC
FFE0001FFC
FFE0001FFC
FFE0001FFC
FFE0001FFC
FFE0001FFC
FFE0001FFC
FFE0001FFC
FFE0001FFC
FFE0001FFC
FFE0001FFC
FFE0001FFC
FFE0001FFC
FFE0001FFC
FFE0001FFC
FFE0001FFC
FFE0001FFC
FFE0001FFC
FFE0001FFC
FFE0001FFC
FFE0001FFC
FFE0001FFC
FFE0001FFC
FFE0001FFC
FFF0001FFC
7FF0003FFC
7FF0003FFC
7FF8007FFC
7FF8007FFC
7FFE00FFFC
3FFF83FFFC
3FFFFFFFFC
3FFFFFDFFC
1FFFFFDFFC
0FFFFF9FFC
0FFFFF1FFC
07FFFE1FFC
03FFFC1FFC
00FFF81FFC
001F800FF8
0000000FE0
0000001FC0
0000001FC0
0000003F80
0000003F80
0000003FC0
0000003FE0
0000001FFF
0000001FFF
0000000FFF
00000007FF
00000003FF
000000001C
ENDCHAR
STARTCHAR 0174
ENCODING 372
SWIDTH 990 0
DWIDTH 77 0
BBX 75 72 1 0
BITMAP
000000003FC000000000
000000007FE000000000
00000000FFF000000000
00000001FFF800000000
00000003FFFC00000000
00000007FFFE00000000
0000000FFFFE00000000
0000001FFBFF00000000
0000003FF1FF80000000
0000007FE0FFC0000000
0000007FC07FE0000000
000000FFC03FF0000000
000001FF801FF8000000
00000000000000000000
00000000000000000000
00000000000000000000
00000000000000000000
00000000000000000000
FFE000007FE000007FE0
FFE00000FFE00000FFE0
7FE00000FFE00000FFE0
7FF00000FFF00000FFE0
7FF00001FFF00000FFC0
7FF00001FFF00001FFC0
3FF00001FFF80001FFC0
3FF80001FFF80001FFC0
3FF80003FFF80001FF80
3FF80003FFF80003FF80
1FF80003FFFC0003FF80
1FF80007FFFC0003FF80
1FFC0007FFFC0003FF00
1FFC0007FFFE0007FF00
0FFC000FFFFE0007FF00
0FFC000FFFFE0007FF00
0FFE000FFFFF0007FE00
0FFE001FFFFF0007FE00
07FE001FFFFF000FFE00
07FE001FFBFF800FFC00
07FF001FFBFF800FFC00
03FF003FF9FF800FFC00
03FF003FF1FF801FFC00
03FF003FF1FFC01FF800
03FF007FF0FFC01FF800
01FF807FE0FFC01FF800
01FF807FE0FFE03FF800
01FF80FFE07FE03FF000
01FF80FFE07FE03FF000
00FFC0FFC07FF03FF000
00FFC1FFC07FF03FF000
00FFC1FFC03FF07FE000
00FFC1FF803FF87FE000
007FE1FF803FF87FE000
007FE3FF801FF87FE000
007FE3FF001FF8FFC000
007FE3FF001FFCFFC000
003FF7FF000FFCFFC000
003FF7FF000FFCFFC000
003FF7FE000FFFFF8000
003FFFFE0007FFFF8000
001FFFFE0007FFFF8000
001FFFFC0007FFFF8000
001FFFFC0007FFFF0000
001FFFFC0003FFFF0000
000FFFF80003FFFF0000
000FFFF80003FFFF0000
000FFFF80001FFFE0000
000FFFF80001FFFE0000
0007FFF00001FFFE0000
0007FFF00000FFFE0000
0007FFF00000FFFC0000
0007FFE00000FFFC0000
0003FFE00000FFFC0000
ENDCHAR
STARTCHAR 0175
ENCODING 373
SWIDTH 822 0
DWIDTH 64 0
BBX 60 58 2 0
BITMAP
0000007FE0000000
0000007FF0000000
000000FFF8000000
000001FFFC000000
000003FFFE000000
000007FFFF000000
00000FFFFF000000
00001FF9FF800000
00003FF0FFC00000
00007FE07FE00000
0000FFC03FF00000
0000FF801FF80000
0000000000000000
0000000000000000
0000000000000000
0000000000000000
0000000000000000
FFC0007FE0003FF0
FFC0007FE0003FF0
FFC0007FE0003FF0
FFC000FFF0003FF0
7FE000FFF0007FE0
7FE000FFF0007FE0
7FE001FFF8007FE0
3FE001FFF8007FE0
3FF001FFF800FFC0
3FF001FFFC00FFC0
3FF003FFFC00FFC0
1FF003FFFC00FFC0
1FF803FFFC00FF80
1FF807FFFE01FF80
1FF807FFFE01FF80
0FF807FFFE01FF00
0FFC07FFFF01FF00
0FFC0FFDFF03FF00
0FFC0FF9FF03FF00
07FC0FF9FF03FE00
07FC1FF9FF83FE00
07FE1FF0FF87FE00
07FE1FF0FF87FE00
03FE1FF0FFC7FC00
03FE3FF07FC7FC00
03FF3FE07FC7FC00
01FF3FE07FCFFC00
01FF7FE07FEFF800
01FF7FE03FEFF800
01FFFFC03FFFF800
00FFFFC03FFFF800
00FFFFC03FFFF000
00FFFFC01FFFF000
00FFFF801FFFF000
007FFF801FFFF000
007FFF801FFFE000
007FFF000FFFE000
007FFF000FFFE000
003FFF000FFFE000
003FFF0007FFC000
003FFE0007FFC000
ENDCHAR
STARTCHAR 0176
ENCODING 374
SWIDTH 642 0
DWIDTH 50 0
BBX 46 72 2 0
BITMAP
00001FE00000
00003FF00000
00007FF80000
0000FFFC0000
0001FFFE0000
0003FFFF0000
0003FFFF8000
0007FCFFC000
000FF87FE000
001FF83FE000
003FF03FF000
007FE01FF800
00FFC00FFC00
000000000000
000000000000
000000000000
000000000000
000000000000
FFF000001FFC
7FF000003FF8
7FF800003FF8
3FF800007FF0
3FFC00007FF0
1FFC0000FFE0
1FFE0000FFE0
0FFE0001FFC0
0FFF0001FFC0
07FF0003FF80
07FF0003FF80
03FF8007FF00
03FF8007FF00
01FFC00FFE00
01FFC00FFE00
00FFE01FFC00
00FFE01FFC00
007FF01FF800
007FF03FF800
003FF83FF000
003FF87FF000
001FFC7FE000
001FFCFFE000
000FFEFFC000
000FFFFFC000
0007FFFF8000
0007FFFF8000
0003FFFF0000
0001FFFF0000
0001FFFE0000
0000FFFE0000
0000FFFC0000
00007FFC0000
00007FF80000
00003FF80000
00003FF00000
00003FF00000
00003FF00000
00003FF00000
00003FF00000
00003FF00000
00003FF00000
00003FF00000
00003FF00000
00003FF00000
00003FF00000
00003FF00000
00003FF00000
00003FF00000
00003FF00000
00003FF00000
00003FF00000
00003FF00000
00003FF00000
ENDCHAR
STARTCHAR 0177
ENCODING 375
SWIDTH 540 0
DWIDTH 42 0
BBX 40 75 2 -17
BITMAP
0001FF0000
0003FF8000
0007FFC000
000FFFE000
001FFFF000
003FFFF800
003FEFFC00
007FC7FE00
00FFC3FF00
01FF81FF80
03FF00FFC0
07FE007FC0
0000000000
0000000000
0000000000
0000000000
0000000000
FFE00007FF
FFE00007FE
7FE0000FFE
7FF0000FFE
7FF0000FFC
3FF0001FFC
3FF8001FFC
3FF8001FF8
1FF8003FF8
1FFC003FF0
0FFC003FF0
0FFC007FF0
0FFC007FE0
07FE007FE0
07FE00FFC0
07FE00FFC0
03FF00FFC0
03FF01FF80
03FF01FF80
01FF81FF80
01FF83FF00
00FF83FF00
00FFC3FE00
00FFC7FE00
007FC7FE00
007FE7FC00
007FEFFC00
003FEFF800
003FFFF800
001FFFF800
001FFFF000
001FFFF000
000FFFF000
000FFFE000
000FFFE000
0007FFC000
0007FFC000
0007FFC000
0003FF8000
0003FF8000
0003FF0000
0003FF0000
0007FF0000
0007FE0000
0007FE0000
000FFC0000
000FFC0000
001FFC0000
003FF80000
007FF80000
7FFFF00000
7FFFF00000
7FFFE00000
7FFFC00000
7FFF800000
7FFF000000
7FFE000000
7FF8000000
ENDCHAR
STARTCHAR 0178
ENCODING 376
SWIDTH 642 0
DWIDTH 50 0
BBX 46 74 2 0
BITMAP
000000004000
003F8003F800
007FC007FC00
00FFE00FFE00
00FFE00FFE00
00FFF00FFE00
00FFF01FFE00
00FFF00FFE00
00FFE00FFE00
00FFE00FFE00
007FC007FC00
003F8003F800
000000000000
000000000000
000000000000
000000000000
000000000000
000000000000
000000000000
000000000000
FFF000001FFC
7FF000003FF8
7FF800003FF8
3FF800007FF0
3FFC00007FF0
1FFC0000FFE0
1FFE0000FFE0
0FFE0001FFC0
0FFF0001FFC0
07FF0003FF80
07FF0003FF80
03FF8007FF00
03FF8007FF00
01FFC00FFE00
01FFC00FFE00
00FFE01FFC00
00FFE01FFC00
007FF01FF800
007FF03FF800
003FF83FF000
003FF87FF000
001FFC7FE000
001FFCFFE000
000FFEFFC000
000FFFFFC000
0007FFFF8000
0007FFFF8000
0003FFFF0000
0001FFFF0000
0001FFFE0000
0000FFFE0000
0000FFFC0000
00007FFC0000
00007FF80000
00003FF80000
00003FF00000
00003FF00000
00003FF00000
00003FF00000
00003FF00000
00003FF00000
00003FF00000
00003FF00000
00003FF00000
00003FF00000
00003FF00000
00003FF00000
00003FF00000
00003FF00000
00003FF00000
00003FF00000
00003FF00000
00003FF00000
00003FF00000
ENDCHAR
ENDFONT
